<svg width="16" height="12" viewBox="0 0 16 12" fill="none" xmlns="http://www.w3.org/2000/svg">
<path d="M0 0H5V12H0V0Z" fill="#272727"/>
<path d="M11 0H16V12H11V0Z" fill="#2B9F5A"/>
<path d="M5 0H11V12H5V0Z" fill="#A71B14"/>
<path d="M9.6384 5.99973C9.63825 5.09523 8.90426 4.36203 7.99973 4.36203C7.09532 4.36217 6.36217 5.09532 6.36203 5.99973C6.36203 6.90426 7.09523 7.63825 7.99973 7.6384V8.3884L7.75558 8.3757C6.55156 8.2533 5.61203 7.23605 5.61203 5.99973C5.61217 4.6811 6.6811 3.61217 7.99973 3.61203C9.31847 3.61203 10.3883 4.68101 10.3884 5.99973L10.3757 6.24387C10.2535 7.44815 9.23623 8.3884 7.99973 8.3884V7.6384C8.90435 7.6384 9.6384 6.90435 9.6384 5.99973Z" fill="#B2A46A"/>
<path d="M8.13156 7.63513L8.19016 8.3783C8.12688 8.38336 8.06346 8.38807 7.99973 8.38806C7.93541 8.38805 7.87118 8.38347 7.80734 8.3783L7.86789 7.63513V7.6322C7.91171 7.63575 7.95558 7.64098 7.99973 7.64099C8.04357 7.641 8.08706 7.63568 8.13058 7.6322L8.13156 7.63513ZM7.54758 7.57361C7.58857 7.58539 7.62981 7.59533 7.6716 7.60388L7.67258 7.60486L7.52316 8.33826C7.46036 8.32545 7.39821 8.31018 7.33664 8.29236L7.36984 8.17908L7.54465 7.57361H7.54758ZM8.66183 8.29236C8.60024 8.31014 8.53813 8.32549 8.47531 8.33826L8.40109 7.97302L8.32687 7.60486C8.36868 7.59634 8.40988 7.58536 8.4509 7.57361C8.45196 7.5733 8.45374 7.57392 8.4548 7.57361L8.66183 8.29236ZM8.87473 7.38806L9.27219 8.01892C9.21831 8.05287 9.16379 8.08596 9.10715 8.1156C9.05016 8.14542 8.99131 8.17163 8.93234 8.19666L8.64133 7.51013L8.63937 7.5072C8.67998 7.48998 8.72122 7.47402 8.76047 7.45349C8.79942 7.43311 8.83573 7.40847 8.87277 7.38513L8.87473 7.38806ZM7.23898 7.45349C7.27796 7.4739 7.31878 7.49006 7.3591 7.5072L7.35812 7.51013L7.21164 7.85486L7.21066 7.85388L7.06516 8.19568C7.00681 8.17084 6.94871 8.14513 6.8923 8.1156C6.83535 8.08577 6.78044 8.05212 6.72629 8.01794L7.12473 7.38708L7.1257 7.38513C7.1629 7.40861 7.19985 7.433 7.23898 7.45349ZM6.86691 7.18298C6.89862 7.21335 6.9315 7.24217 6.96555 7.2699L6.72824 7.55994L6.72922 7.56091L6.49191 7.85095C6.44236 7.81058 6.39451 7.76822 6.34836 7.724L6.54953 7.51501L6.86691 7.18298ZM9.65012 7.724C9.60374 7.76839 9.55539 7.81044 9.50558 7.85095L9.27023 7.56189L9.03391 7.27087C9.03603 7.26914 9.03765 7.26676 9.03976 7.26501C9.06958 7.2405 9.09866 7.2154 9.12668 7.18884C9.12852 7.1871 9.1307 7.18571 9.13254 7.18396L9.65012 7.724ZM6.65207 6.93494C6.67686 6.97068 6.70471 7.00395 6.73215 7.03748L6.73117 7.03943L6.44113 7.27771L6.44016 7.27673L6.15305 7.51306C6.11276 7.46388 6.07419 7.41317 6.03781 7.36072C6.00113 7.3078 5.96646 7.2531 5.9343 7.19763L6.58078 6.82361L6.58273 6.82166C6.60483 6.85977 6.62687 6.89858 6.65207 6.93494ZM9.41867 6.82361L10.0642 7.19861C10.0321 7.25383 9.99818 7.30803 9.96164 7.36072C9.92504 7.41347 9.885 7.46363 9.84445 7.51306L9.26828 7.04041L9.26633 7.03845C9.29412 7.00456 9.32327 6.9711 9.34836 6.93494C9.37347 6.89872 9.39371 6.85962 9.41574 6.82166L9.41867 6.82361ZM6.44797 6.52283C6.46154 6.56313 6.47622 6.60284 6.49289 6.64197C6.49343 6.64323 6.4943 6.64462 6.49484 6.64587L5.80637 6.9408C5.78104 6.88175 5.75751 6.822 5.73703 6.76111L6.44797 6.52283ZM9.90598 6.64294L10.2331 6.7533L10.2614 6.76208C10.2411 6.82259 10.2183 6.88212 10.1931 6.9408L9.84933 6.79431L9.50461 6.64587C9.5205 6.60886 9.53543 6.57165 9.54855 6.53357C9.54969 6.53026 9.55134 6.52712 9.55246 6.5238L9.90598 6.64294ZM10.237 5.16345C10.3265 5.40267 10.3756 5.65404 10.3855 5.90759L10.3825 5.90955L10.3484 5.81873L10.0075 5.84607L10.0066 5.84509L9.83078 5.85876L9.91476 6.08337L10.3845 6.10388C10.3817 6.16799 10.3778 6.23233 10.3698 6.29626C10.3619 6.35973 10.3496 6.42237 10.3366 6.48474L9.60617 6.33337L9.60324 6.3324C9.61211 6.28961 9.62221 6.24703 9.62766 6.20349C9.63317 6.15938 9.63356 6.11491 9.63547 6.07068L9.63937 6.07166L9.78098 6.07751L9.70285 5.86853L9.63351 5.87439C9.63014 5.83046 9.62382 5.78705 9.61691 5.74353L9.65305 5.73767L9.58273 5.54822L9.57785 5.55017H9.57492C9.56297 5.50834 9.55214 5.46609 9.53683 5.42517L10.237 5.16345ZM6.46359 5.42419C6.44817 5.46537 6.43655 5.50807 6.42453 5.55017H6.42258L6.41672 5.54822L6.34641 5.73767L6.38156 5.74255C6.3746 5.7863 6.37031 5.83023 6.36691 5.87439L6.2966 5.86853L6.21945 6.07751L6.36105 6.07166L6.36301 6.07068C6.3649 6.11463 6.36634 6.15868 6.3718 6.20251C6.3772 6.2459 6.38643 6.28878 6.39523 6.33142L6.39328 6.3324L5.66183 6.48376C5.64895 6.4215 5.63848 6.35864 5.63058 6.29529C5.62262 6.23135 5.61773 6.16701 5.61496 6.10291L5.98605 6.08728L6.08371 6.0824L6.16769 5.85876L5.65012 5.81775L5.61691 5.90857L5.61398 5.90759C5.62382 5.65368 5.6737 5.402 5.7634 5.16248L6.46359 5.42419ZM5.71848 5.63708L6.01144 5.68396L6.22043 5.71716L6.2341 5.68396L6.2966 5.51404L5.81613 5.37634L5.71848 5.63708ZM9.9382 5.44763L9.70285 5.51404L9.77902 5.71716L10.281 5.63806L10.1833 5.37732L9.9382 5.44763Z" fill="#F5F8FB"/>
<path d="M7.34558 5.0229H8.65445V6.97709H7.34558V5.0229Z" fill="#B2A46A"/>
</svg>
