<svg width="16" height="12" viewBox="0 0 16 12" fill="none" xmlns="http://www.w3.org/2000/svg">
<path d="M0 0H16V12H0V0Z" fill="#A71B14"/>
<path d="M6 2H7V3H6V2Z" fill="#272727"/>
<path d="M7 3H8V4H7V3Z" fill="#272727"/>
<path d="M7 7H8V11L7 9V7Z" fill="#272727"/>
<path d="M5 4H8V7H5V4Z" fill="#272727"/>
<path d="M8 3H9V4H8V3Z" fill="#272727"/>
<path d="M8 7H9V9L8 11V7Z" fill="#272727"/>
<path d="M8 4H11V7H8V4Z" fill="#272727"/>
<path d="M9 2H10V3H9V2Z" fill="#272727"/>
<path d="M11 3H12V4H11V3Z" fill="#272727"/>
<path d="M4 3H5V4H4V3Z" fill="#272727"/>
<path d="M11 5H12V6H11V5Z" fill="#272727"/>
<path d="M4 5H5V6H4V5Z" fill="#272727"/>
<path d="M11 7H12V8H11V7Z" fill="#272727"/>
<path d="M4 7H5V8H4V7Z" fill="#272727"/>
</svg>
