<svg width="16" height="12" viewBox="0 0 16 12" fill="none" xmlns="http://www.w3.org/2000/svg">
<path d="M0 0H5V12H0V0Z" fill="#2E4E9D"/>
<path d="M5 0H11V12H5V0Z" fill="#FFD018"/>
<path d="M11 0H16V12H11V0Z" fill="#A71B14"/>
<path d="M6 4.5C6 4.22386 6.22386 4 6.5 4H9.5C9.77614 4 10 4.22386 10 4.5V7.5C10 7.77614 9.77614 8 9.5 8H6.5C6.22386 8 6 7.77614 6 7.5V4.5Z" fill="#D9D9D9"/>
<path d="M5.5 7.5V4.5C5.5 3.94772 5.94772 3.5 6.5 3.5V4C6.22386 4 6 4.22386 6 4.5V7.5C6 7.77614 6.22386 8 6.5 8H9.5C9.77614 8 10 7.77614 10 7.5V4.5C10 4.22386 9.77614 4 9.5 4V3.5C10.0523 3.5 10.5 3.94772 10.5 4.5V7.5C10.5 8.05228 10.0523 8.5 9.5 8.5H6.5C5.94772 8.5 5.5 8.05228 5.5 7.5ZM9.5 3.5V4H6.5V3.5H9.5Z" fill="#B2A46A"/>
<path d="M7 3.5C7 3.22386 7.22386 3 7.5 3H8.5C8.77614 3 9 3.22386 9 3.5C9 3.77614 8.77614 4 8.5 4H7.5C7.22386 4 7 3.77614 7 3.5Z" fill="#B2A46A"/>
<path d="M7 8.5C7 8.22386 7.22386 8 7.5 8H8.5C8.77614 8 9 8.22386 9 8.5C9 8.77614 8.77614 9 8.5 9H7.5C7.22386 9 7 8.77614 7 8.5Z" fill="#B2A46A"/>
<path d="M6 4.5C6 4.22386 6.22386 4 6.5 4H8V6H6V4.5Z" fill="#A71B14"/>
<path d="M8 4H9.5C9.77614 4 10 4.22386 10 4.5V6H8V4Z" fill="#FF8718"/>
<path d="M6 6H8V8H6.5C6.22386 8 6 7.77614 6 7.5V6Z" fill="#FF8718"/>
<path d="M8 6H10V7.5C10 7.77614 9.77614 8 9.5 8H8V6Z" fill="#FFD018"/>
<path d="M7.5 5C7.5 5.27614 7.27614 5.5 7 5.5C6.72386 5.5 6.5 5.27614 6.5 5C6.5 4.72386 6.72386 4.5 7 4.5C7.27614 4.5 7.5 4.72386 7.5 5Z" fill="#FFD018"/>
</svg>
