<svg width="16" height="12" viewBox="0 0 16 12" fill="none" xmlns="http://www.w3.org/2000/svg">
<path d="M4.5 7L8 12L11.5 7H4.5Z" fill="#F5F8FB"/>
<path d="M0 0H16V4H0V0Z" fill="#272727"/>
<path d="M8 1L8.35116 2.23459L9.14805 1.22836L9.00003 2.50335L10.1213 1.87868L9.49665 2.99997L10.7716 2.85195L9.76541 3.64884L11 4L9.76541 4.35116L10.7716 5.14805L9.49665 5.00003L10.1213 6.12132L9.00003 5.49665L9.14805 6.77164L8.35116 5.76541L8 7L7.64884 5.76541L6.85195 6.77164L6.99997 5.49665L5.87868 6.12132L6.50335 5.00003L5.22836 5.14805L6.23459 4.35116L5 4L6.23459 3.64884L5.22836 2.85195L6.50335 2.99997L5.87868 1.87868L6.99997 2.50335L6.85195 1.22836L7.64884 2.23459L8 1Z" fill="#FFD018"/>
<path d="M2 4H14V7H2V4Z" fill="#3273D3"/>
<path d="M0 0L8 12H0V0Z" fill="#A71B14"/>
<path d="M8 12L16 0V12H8Z" fill="#A71B14"/>
</svg>
