<svg width="16" height="12" viewBox="0 0 16 12" fill="none" xmlns="http://www.w3.org/2000/svg">
<path d="M0 0H16V6H0V0Z" fill="#DC251C"/>
<path d="M0 6H16V12H0V6Z" fill="#272727"/>
<path d="M8.58984 1.58301C8.72766 1.61995 8.86353 1.66469 8.99609 1.71582L8.90527 1.94922L8.89258 1.98145C9.13935 2.07664 9.3755 2.19771 9.59668 2.34277L9.61719 2.31348L9.75488 2.10547C9.87357 2.18339 9.98841 2.26795 10.0986 2.3584C10.209 2.44895 10.3144 2.54517 10.4141 2.64648L10.2363 2.82227L10.21 2.84668C10.3957 3.03543 10.5614 3.24311 10.7031 3.4668L10.7334 3.44824L10.9443 3.31445C11.0202 3.43435 11.0903 3.55872 11.1533 3.68652C11.2164 3.81447 11.2733 3.94575 11.3223 4.0791L11.0869 4.16602L11.0527 4.17773C11.144 4.42642 11.2094 4.68394 11.2461 4.94629L11.5293 4.90723C11.549 5.04789 11.5617 5.19044 11.5664 5.33301C11.5711 5.47553 11.5671 5.61816 11.5566 5.75977L11.3076 5.74121L11.2715 5.73828C11.252 6.00242 11.2038 6.2635 11.1289 6.51758L11.1641 6.52832L11.4043 6.59863C11.3642 6.73492 11.3173 6.87013 11.2627 7.00195C11.2081 7.13363 11.146 7.26209 11.0781 7.38672L10.8584 7.26758L10.8262 7.25C10.6994 7.48257 10.548 7.70081 10.375 7.90137L10.5918 8.08789C10.4989 8.19553 10.4011 8.29987 10.2969 8.39746C10.1927 8.49499 10.0831 8.58631 9.96973 8.67188L9.79688 8.44238C9.58554 8.60193 9.35839 8.73925 9.11816 8.85059L9.23828 9.10938C9.1094 9.16905 8.97686 9.22269 8.8418 9.26855C8.70675 9.3144 8.56922 9.35363 8.43066 9.38477L8.375 9.14062L8.36719 9.10449C8.10872 9.16259 7.84496 9.19305 7.58008 9.19531L7.58301 9.48242C7.44098 9.48358 7.2982 9.47686 7.15625 9.46289C7.01419 9.4489 6.87258 9.42731 6.7334 9.39844L6.79199 9.11816C6.53245 9.06416 6.27943 8.9826 6.03711 8.875L5.9209 9.1377C5.79121 9.08019 5.66441 9.01556 5.54102 8.94434L5.68359 8.69531L5.93359 8.2627C6.33198 8.4927 6.7756 8.63555 7.2334 8.68066C7.69102 8.72567 8.15343 8.67317 8.58887 8.52539C9.02449 8.37751 9.42302 8.13674 9.75879 7.82227C10.0944 7.50788 10.3601 7.12601 10.5361 6.70117C10.7121 6.27623 10.7953 5.81809 10.7803 5.3584C10.7652 4.89871 10.6516 4.44768 10.4482 4.03516C10.2448 3.62267 9.95606 3.25764 9.60059 2.96582C9.24509 2.6741 8.8309 2.46186 8.38672 2.34277L8.45215 2.10059L8.46094 2.06641H8.45996L8.52539 1.82422L8.58984 1.58301Z" fill="#FFD018"/>
<path d="M8.00001 2.87848L8.34957 3.69017L9.22955 3.77179L8.5656 4.35506L8.75991 5.2172L8.00001 4.76598L7.24012 5.2172L7.43443 4.35506L6.77048 3.77179L7.65046 3.69017L8.00001 2.87848Z" fill="#FFD018"/>
<path d="M10.7766 8.7772L9.06704 7.34836L7.86783 8.2669L9.44977 9.54266L10.7766 8.7772Z" fill="#272727"/>
<path d="M9.85799 8.49653L5.46939 5.02647C5.46939 5.02647 5.08998 6.20423 6.41345 7.01665C8.99048 8.59859 9.42424 8.90477 9.42424 8.90477L9.85799 8.49653Z" fill="#FFD018"/>
<path d="M9.74547 9.08034C10.9552 9.68625 10.4586 10.1385 10.9552 10.053C11.3644 9.9825 10.9552 9.26202 10.9552 9.26202L10.1792 8.6721C10.1792 8.6721 9.53749 8.97616 9.74547 9.08034Z" fill="#FFD018"/>
</svg>
