<svg width="16" height="12" viewBox="0 0 16 12" fill="none" xmlns="http://www.w3.org/2000/svg">
<path d="M0 0H16V12H0V0Z" fill="#2E4E9D"/>
<mask id="mask0_2251_1491" style="mask-type:alpha" maskUnits="userSpaceOnUse" x="0" y="0" width="10" height="8">
<path d="M0 0H10V8H0V0Z" fill="#C4C4C4"/>
</mask>
<g mask="url(#mask0_2251_1491)">
<path d="M11.8301 -0.398743L-0.169922 10.2673L-1.83008 8.39911L10.1699 -2.26788L11.8301 -0.398743Z" fill="#F5F8FB"/>
<path d="M11.249 -1.05304L-0.750977 9.61395L-1.24902 9.05341L10.751 -1.61359L11.249 -1.05304Z" fill="#DC251C"/>
<path d="M-1.83008 -0.398743L10.1699 10.2673L11.8301 8.39911L-0.169922 -2.26788L-1.83008 -0.398743Z" fill="#F5F8FB"/>
<path d="M-1.24902 -1.05304L10.751 9.61395L11.249 9.05341L-0.750977 -1.61359L-1.24902 -1.05304Z" fill="#DC251C"/>
<path d="M6.5 0V2.5H10V5.5H6.5V8H3.5V5.5H0V2.5H3.5V0H6.5Z" fill="#F5F8FB"/>
<path d="M6 0V3H10V5H6V8H4V5H0V3H4V0H6Z" fill="#DC251C"/>
</g>
<path d="M13 2.5C13 2.77614 12.7761 3 12.5 3C12.2239 3 12 2.77614 12 2.5C12 2.22386 12.2239 2 12.5 2C12.7761 2 13 2.22386 13 2.5Z" fill="#F5F8FB"/>
<path d="M12 5.5C12 5.77614 11.7761 6 11.5 6C11.2239 6 11 5.77614 11 5.5C11 5.22386 11.2239 5 11.5 5C11.7761 5 12 5.22386 12 5.5Z" fill="#F5F8FB"/>
<path d="M15 4.5C15 4.77614 14.7761 5 14.5 5C14.2239 5 14 4.77614 14 4.5C14 4.22386 14.2239 4 14.5 4C14.7761 4 15 4.22386 15 4.5Z" fill="#F5F8FB"/>
<path d="M14 6.5C14 6.77614 13.7761 7 13.5 7C13.2239 7 13 6.77614 13 6.5C13 6.22386 13.2239 6 13.5 6C13.7761 6 14 6.22386 14 6.5Z" fill="#F5F8FB"/>
<path d="M13 9.5C13 9.77614 12.7761 10 12.5 10C12.2239 10 12 9.77614 12 9.5C12 9.22386 12.2239 9 12.5 9C12.7761 9 13 9.22386 13 9.5Z" fill="#F5F8FB"/>
<path d="M5.00391 8.24219L5.32915 9.00018L6.1097 8.78841L5.73473 9.52183L6.38281 10.0157L5.58998 10.1723L5.61758 11L5.00391 10.4618L4.39024 11L4.41783 10.1723L3.625 10.0157L4.27309 9.52183L3.89811 8.78841L4.67866 9.00018L5.00391 8.24219Z" fill="#F5F8FB"/>
</svg>
