<svg width="16" height="12" viewBox="0 0 16 12" fill="none" xmlns="http://www.w3.org/2000/svg">
<path d="M0 0H16V4H0V0Z" fill="#259EC9"/>
<path d="M0 4H16V8H0V4Z" fill="#DC251C"/>
<path d="M0 8H16V12H0V8Z" fill="#2B9F5A"/>
<path d="M7.97516 4.13884C8.42845 4.13888 8.84376 4.30112 9.16656 4.57048C8.99644 4.50527 8.81178 4.46892 8.61871 4.46892C7.77314 4.46905 7.08746 5.15456 7.08746 6.00017C7.08755 6.8457 7.77319 7.53129 8.61871 7.53142C8.81154 7.53142 8.99564 7.49393 9.16559 7.42888C8.84282 7.69811 8.42833 7.86146 7.97516 7.8615C6.94732 7.8615 6.11392 7.02798 6.11383 6.00017C6.11383 4.97228 6.94727 4.13884 7.97516 4.13884Z" fill="#F5F8FB"/>
<path d="M9.47122 4.9736L9.66762 5.52587L10.197 5.27423L9.94536 5.80361L10.4976 6L9.94536 6.19639L10.197 6.72577L9.66762 6.47413L9.47122 7.0264L9.27483 6.47413L8.74545 6.72577L8.99709 6.19639L8.44482 6L8.99709 5.80361L8.74545 5.27423L9.27483 5.52587L9.47122 4.9736Z" fill="#F5F8FB"/>
</svg>
