<svg width="16" height="12" viewBox="0 0 16 12" fill="none" xmlns="http://www.w3.org/2000/svg">
<rect x="2" width="14" height="9" fill="#A71B14"/>
<rect x="2" y="9" width="14" height="3" fill="#2B9F5A"/>
<rect width="1" height="1" fill="#A71B14"/>
<rect x="1" width="1" height="1" fill="#F5F8FB"/>
<rect x="1" y="1" width="1" height="1" fill="#A71B14"/>
<rect y="1" width="1" height="1" fill="#F5F8FB"/>
<rect y="2" width="1" height="1" fill="#A71B14"/>
<rect x="1" y="2" width="1" height="1" fill="#F5F8FB"/>
<rect x="1" y="3" width="1" height="1" fill="#A71B14"/>
<rect y="3" width="1" height="1" fill="#F5F8FB"/>
<rect y="4" width="1" height="1" fill="#A71B14"/>
<rect x="1" y="4" width="1" height="1" fill="#F5F8FB"/>
<rect x="1" y="5" width="1" height="1" fill="#A71B14"/>
<rect y="5" width="1" height="1" fill="#F5F8FB"/>
<rect y="6" width="1" height="1" fill="#A71B14"/>
<rect x="1" y="6" width="1" height="1" fill="#F5F8FB"/>
<rect x="1" y="7" width="1" height="1" fill="#A71B14"/>
<rect y="7" width="1" height="1" fill="#F5F8FB"/>
<rect y="8" width="1" height="1" fill="#A71B14"/>
<rect x="1" y="8" width="1" height="1" fill="#F5F8FB"/>
<rect x="1" y="9" width="1" height="1" fill="#A71B14"/>
<rect y="9" width="1" height="1" fill="#F5F8FB"/>
<rect y="10" width="1" height="1" fill="#A71B14"/>
<rect x="1" y="10" width="1" height="1" fill="#F5F8FB"/>
<rect x="1" y="11" width="1" height="1" fill="#A71B14"/>
<rect y="11" width="1" height="1" fill="#F5F8FB"/>
</svg>
