<svg width="16" height="12" viewBox="0 0 16 12" fill="none" xmlns="http://www.w3.org/2000/svg">
<path d="M0 0H16V12H0V0Z" fill="#FFD018"/>
<path d="M16 5L0 1V4L16 8V5Z" fill="#F5F8FB"/>
<path d="M16 8L0 4V7L16 11V8Z" fill="#272727"/>
<path d="M9.71094 4.96875C9.89301 5.27017 10 5.62218 10 6C10 7.10457 9.10457 8 8 8C6.89543 8 6 7.10457 6 6C6 5.62236 6.10618 5.27007 6.28809 4.96875C6.26138 5.09037 6.24707 5.21704 6.24707 5.34668C6.24727 6.31463 7.03201 7.09961 8 7.09961C8.96799 7.09961 9.75273 6.31463 9.75293 5.34668C9.75293 5.21696 9.73767 5.09044 9.71094 4.96875Z" fill="#DC251C"/>
<path d="M4 5H5V8H4V5Z" fill="#DC251C"/>
<path d="M11 5H12V8H11V5Z" fill="#DC251C"/>
<path d="M6 4H10V5H6V4Z" fill="#DC251C"/>
<path d="M8.375 5.5V8.59668C8.82298 8.53371 9.12872 8.36656 9.32812 8.20703C9.45581 8.10488 9.54413 8.00429 9.59863 7.93164C9.62577 7.89546 9.64444 7.86647 9.65527 7.84863C9.66068 7.83974 9.66347 7.83292 9.66504 7.83008L9.66602 7.8291V7.83008L9.66504 7.83105V7.83203L10.335 8.16797V8.16992L10.333 8.17188C10.3323 8.17324 10.332 8.17503 10.3311 8.17676C10.3289 8.18082 10.3255 8.18648 10.3223 8.19238C10.3158 8.2041 10.3069 8.21915 10.2959 8.2373C10.2735 8.27413 10.2413 8.32342 10.1982 8.38086C10.1121 8.4957 9.9816 8.64519 9.79688 8.79297C9.42268 9.09233 8.84109 9.375 8 9.375C7.15891 9.375 6.57732 9.09233 6.20312 8.79297C6.0184 8.64519 5.88789 8.4957 5.80176 8.38086C5.75869 8.32342 5.72646 8.27413 5.7041 8.2373C5.69308 8.21915 5.68419 8.2041 5.67773 8.19238C5.67449 8.18648 5.67107 8.18082 5.66895 8.17676C5.66804 8.17503 5.66769 8.17324 5.66699 8.17188L5.66504 8.16992V8.16797L6.33496 7.83203V7.83105L6.33398 7.83008V7.8291L6.33496 7.83008C6.33653 7.83292 6.33932 7.83974 6.34473 7.84863C6.35556 7.86647 6.37423 7.89546 6.40137 7.93164C6.45587 8.00429 6.54419 8.10488 6.67188 8.20703C6.87128 8.36656 7.17702 8.53371 7.625 8.59668V5.5H8.375Z" fill="#DC251C"/>
<path d="M8.5 3C8.5 3.27614 8.27614 3.5 8 3.5C7.72386 3.5 7.5 3.27614 7.5 3C7.5 2.72386 7.72386 2.5 8 2.5C8.27614 2.5 8.5 2.72386 8.5 3Z" fill="#DC251C"/>
</svg>
