<svg width="16" height="12" viewBox="0 0 16 12" fill="none" xmlns="http://www.w3.org/2000/svg">
<path d="M0 12V0H16L0 12Z" fill="#FFD018"/>
<path d="M16 0V12H0L16 0Z" fill="#DC251C"/>
<path d="M11.4954 0.805338C12.3137 0.842531 13.1248 1.0353 13.4456 1.13151L14.0312 2.7985C13.7827 2.72394 12.4029 2.82963 11.7187 2.7985C10.9724 2.76458 10.2149 2.32382 10.0003 2.7985C10.0041 2.81847 10.0102 2.84986 10.0247 2.89323C10.0559 2.9861 10.1082 3.09615 10.1751 3.22721C10.5035 3.36761 10.9693 3.52346 11.4544 3.59245C12.0556 3.67792 12.562 3.61775 12.8939 3.39323L13.2591 3.93131L13.6234 4.4694C12.8966 4.96161 11.9977 4.98369 11.2718 4.88053C11.1745 4.8667 11.0777 4.85019 10.9827 4.83171C10.9895 4.85415 10.9984 4.87578 11.0042 4.89811C11.0667 5.13833 11.1307 5.60586 10.765 5.95866C10.6379 6.08113 10.4893 6.15576 10.3353 6.20085C10.4844 6.30611 10.8182 6.45799 11.5296 6.52799L11.4026 7.82292C10.306 7.71504 9.54537 7.40157 9.16241 6.84538C8.999 6.608 8.9282 6.36431 8.91632 6.13444C7.90939 5.97042 7.47719 6.03951 7.21808 6.20963C7.07733 6.30208 6.93248 6.45982 6.77472 6.76139C6.64595 7.00757 6.52168 7.32349 6.38507 7.7321C6.58388 8.01282 6.79283 8.37821 6.94269 8.79069C7.15413 9.37281 7.27403 10.119 6.99542 10.862L5.77667 10.4049C5.90782 10.0552 5.87067 9.64867 5.72003 9.23405C5.71076 9.20854 5.69967 9.18386 5.68976 9.15885C5.24726 9.7225 4.66437 10.1456 4.09015 10.4528C3.18201 10.9386 2.20464 11.1911 1.56476 11.278L1.93749 10.4528C2.45015 10.3832 2.72581 9.70654 3.47589 9.30534C4.23314 8.90024 4.82259 8.35516 5.04034 7.66374C5.22389 7.08071 5.40566 6.5732 5.62238 6.15885C5.84211 5.7388 6.11672 5.37616 6.50421 5.12174C7.27442 4.61616 8.27037 4.68238 9.49542 4.91471C9.54072 4.9233 9.58336 4.92732 9.62238 4.93327C9.59468 4.87707 9.56488 4.81353 9.52765 4.74479C9.46973 4.63786 9.4062 4.52588 9.3382 4.4069C9.27149 4.29019 9.19983 4.16591 9.13214 4.04264C9.00743 3.81555 8.87547 3.55779 8.79132 3.30729C8.71519 3.08065 8.62929 2.72097 8.77081 2.36686L8.86847 2.15104C9.39313 1.11728 10.459 0.758289 11.4954 0.805338Z" fill="#F5F8FB"/>
<path d="M11.5072 0.555207C12.1402 0.584013 12.7664 0.702554 13.181 0.802278L13.5179 0.892121L13.5716 0.915559C13.6223 0.945134 13.6621 0.991825 13.682 1.04837L14.2669 2.71536C14.2981 2.80409 14.2772 2.90319 14.2122 2.97122C14.1473 3.03925 14.0494 3.06466 13.9593 3.03763C13.9576 3.03725 13.9511 3.03558 13.9378 3.03372C13.9214 3.03144 13.8991 3.02976 13.8714 3.02786C13.8159 3.02407 13.7446 3.02154 13.6595 3.02103C13.4895 3.02 13.2762 3.02516 13.0452 3.03177C12.5901 3.0448 12.0613 3.06448 11.7073 3.04837C11.4997 3.03893 11.2961 3.00103 11.1126 2.96146C10.9202 2.91994 10.7661 2.88067 10.6165 2.85404C10.4675 2.8275 10.3699 2.82375 10.3079 2.83743C10.2952 2.84025 10.2858 2.84596 10.2767 2.85013C10.2958 2.89985 10.3218 2.95883 10.3568 3.02982C10.6636 3.15422 11.0704 3.28564 11.4896 3.34525C12.0667 3.4273 12.4982 3.35928 12.7542 3.18607L12.7982 3.16263C12.9055 3.11796 13.033 3.15265 13.1009 3.25247L13.4661 3.79056V3.79154L13.8304 4.32962C13.9075 4.4438 13.8779 4.59887 13.764 4.6763C12.982 5.20593 12.0368 5.23178 11.2952 5.13431C11.3187 5.42698 11.2712 5.81739 10.9388 6.13822C10.9273 6.14926 10.9134 6.15808 10.9017 6.16849C11.0628 6.21101 11.2754 6.25142 11.554 6.27884C11.6914 6.29235 11.792 6.41495 11.7786 6.55228L11.6517 7.8472C11.6452 7.9132 11.6121 7.97406 11.5609 8.01614C11.5097 8.05806 11.4441 8.07827 11.3782 8.07181C10.2608 7.96189 9.40382 7.63672 8.95637 6.98685C8.81301 6.77852 8.72841 6.564 8.68977 6.35404C7.82865 6.23056 7.51697 6.31286 7.35578 6.41849C7.26208 6.48004 7.14199 6.59917 6.99641 6.87747C6.88839 7.084 6.7808 7.34973 6.66145 7.69681C6.84762 7.97581 7.03797 8.32002 7.17805 8.7056C7.40098 9.31948 7.53674 10.1311 7.22981 10.9497C7.20654 11.0118 7.15925 11.0619 7.09895 11.0894C7.03859 11.1168 6.96963 11.1195 6.90754 11.0962L5.68879 10.6392C5.55954 10.5907 5.49384 10.4462 5.54231 10.3169C5.61346 10.1271 5.62304 9.90585 5.57746 9.66068C5.16261 10.0865 4.68063 10.4207 4.20832 10.6734C3.26973 11.1755 2.26222 11.4357 1.59797 11.5259C1.50805 11.538 1.41883 11.5 1.36457 11.4273C1.31025 11.3544 1.29986 11.2582 1.33723 11.1753L1.7093 10.3501L1.7425 10.2954C1.78207 10.2464 1.83967 10.2133 1.90364 10.2046C2.06213 10.1831 2.20175 10.067 2.44075 9.82669C2.66258 9.60361 2.94438 9.30561 3.35774 9.0845C4.08731 8.69421 4.61222 8.19125 4.80207 7.58841C4.9864 7.00292 5.17326 6.47739 5.40071 6.04251C5.63222 5.60002 5.9318 5.19814 6.36653 4.91263H6.3675C7.13951 4.40608 8.09407 4.42562 9.16047 4.60111C9.14741 4.57816 9.13492 4.55442 9.12141 4.53079C9.0554 4.41529 8.98241 4.28829 8.9134 4.16263C8.78749 3.93334 8.64563 3.65987 8.55403 3.38724C8.47325 3.14676 8.36259 2.71385 8.5384 2.27396L8.64094 2.04837L8.64485 2.03763L8.86848 2.15091L8.77082 2.36673C8.62932 2.72077 8.71521 3.08051 8.79133 3.30716C8.87547 3.55762 9.00746 3.81545 9.13215 4.04251C9.19982 4.16574 9.27152 4.29009 9.33821 4.40677C9.40619 4.52571 9.46976 4.63776 9.52766 4.74466C9.56487 4.81335 9.59471 4.87697 9.62239 4.93314C9.58337 4.92719 9.54072 4.92317 9.49543 4.91458C8.27042 4.68226 7.27442 4.61607 6.50422 5.12161C6.11677 5.37601 5.84211 5.73871 5.62239 6.15872C5.40569 6.57304 5.22389 7.08063 5.04036 7.66361C4.82261 8.35502 4.23312 8.90011 3.4759 9.30521C2.72598 9.70633 2.45027 10.3828 1.93782 10.4527L1.56477 11.2779C2.20465 11.1909 3.18202 10.9385 4.09016 10.4527C4.66436 10.1455 5.24728 9.72235 5.68977 9.15872C5.69966 9.18369 5.71078 9.20845 5.72004 9.23392C5.87066 9.6485 5.90778 10.0551 5.77668 10.4048L6.99543 10.8618C7.27399 10.1189 7.15413 9.37265 6.9427 8.79056C6.79284 8.37813 6.58387 8.01266 6.38508 7.73197C6.52167 7.32341 6.64597 7.00741 6.77473 6.76126C6.93247 6.45975 7.07735 6.30194 7.21809 6.2095C7.4772 6.03941 7.90949 5.97031 8.91633 6.13431C8.92821 6.36415 8.99906 6.6079 9.16243 6.84525C9.54538 7.40144 10.306 7.71491 11.4027 7.82279L11.5296 6.52786C10.8182 6.45786 10.4844 6.30598 10.3353 6.20072C10.4893 6.15563 10.6379 6.08099 10.765 5.95853C11.1307 5.60574 11.0667 5.13818 11.0042 4.89798C10.9984 4.87569 10.9895 4.85398 10.9827 4.83157C11.0777 4.85006 11.1745 4.86657 11.2718 4.8804C11.9977 4.98356 12.8967 4.96148 13.6234 4.46927L13.2591 3.93118L12.8939 3.3931C12.562 3.61762 12.0556 3.67779 11.4544 3.59232C10.9693 3.52333 10.5035 3.36748 10.1751 3.22708C10.1083 3.09606 10.0559 2.98595 10.0247 2.8931C10.0102 2.84979 10.0041 2.81832 10.0003 2.79837C10.2149 2.32387 10.9727 2.76445 11.7191 2.79837C12.4033 2.82946 13.7831 2.72382 14.0316 2.79837L13.4456 1.13138C13.1248 1.03516 12.3136 0.842399 11.4954 0.805207C10.459 0.758161 9.39316 1.11723 8.86848 2.15091L8.64582 2.03763C9.23085 0.885301 10.4132 0.505548 11.5072 0.555207Z" fill="#272727"/>
<path d="M8.90625 8.07812C8.90625 8.48371 8.57746 8.8125 8.17188 8.8125C7.76629 8.8125 7.4375 8.48371 7.4375 8.07812C7.4375 7.67254 7.76629 7.34375 8.17188 7.34375C8.57746 7.34375 8.90625 7.67254 8.90625 8.07812Z" fill="#F5F8FB"/>
<path d="M8.90625 8.07812C8.90625 7.67254 8.57746 7.34375 8.17188 7.34375C7.76629 7.34375 7.4375 7.67254 7.4375 8.07812C7.4375 8.48371 7.76629 8.8125 8.17188 8.8125C8.57746 8.8125 8.90625 8.48371 8.90625 8.07812ZM9.15625 8.07812C9.15625 8.62178 8.71553 9.0625 8.17188 9.0625C7.62822 9.0625 7.1875 8.62178 7.1875 8.07812C7.1875 7.53447 7.62822 7.09375 8.17188 7.09375C8.71553 7.09375 9.15625 7.53447 9.15625 8.07812Z" fill="#272727"/>
<path d="M13.3438 7.34375C13.3438 7.74933 13.015 8.07812 12.6094 8.07812C12.2038 8.07812 11.875 7.74933 11.875 7.34375C11.875 6.93817 12.2038 6.60938 12.6094 6.60938C13.015 6.60938 13.3438 6.93817 13.3438 7.34375Z" fill="#F5F8FB"/>
<path d="M13.3438 7.34375C13.3438 6.93817 13.015 6.60938 12.6094 6.60938C12.2038 6.60938 11.875 6.93817 11.875 7.34375C11.875 7.74933 12.2038 8.07812 12.6094 8.07812C13.015 8.07812 13.3438 7.74933 13.3438 7.34375ZM13.5938 7.34375C13.5938 7.88741 13.153 8.32812 12.6094 8.32812C12.0657 8.32812 11.625 7.88741 11.625 7.34375C11.625 6.80009 12.0657 6.35938 12.6094 6.35938C13.153 6.35938 13.5938 6.80009 13.5938 7.34375Z" fill="#272727"/>
</svg>
