<svg width="16" height="12" viewBox="0 0 16 12" fill="none" xmlns="http://www.w3.org/2000/svg">
<g clip-path="url(#clip0_2251_1643)">
<rect width="16" height="12" fill="#F5F8FB"/>
<path d="M8 6L0 0V12L8 6Z" fill="#2B9F5A"/>
<path d="M8 6L16 0V12L8 6Z" fill="#2B9F5A"/>
<path d="M8 6L0 0L16 3.93403e-07L8 6Z" fill="#DC251C"/>
<path d="M8 6L0 12L16 12L8 6Z" fill="#DC251C"/>
<path d="M16.5996 0.799805L9.66602 6L16.5996 11.2002L15.4004 12.7998L8 7.24902L0.599609 12.7998L-0.599609 11.2002L6.33398 6L-0.599609 0.799805L0.599609 -0.799805L8 4.75L15.4004 -0.799805L16.5996 0.799805Z" fill="#F5F8FB"/>
<path d="M11.5027 6C11.5027 7.93448 9.93448 9.50269 8 9.50269C6.06552 9.50269 4.49731 7.93448 4.49731 6C4.49731 4.06552 6.06552 2.49731 8 2.49731C9.93448 2.49731 11.5027 4.06552 11.5027 6Z" fill="#F5F8FB"/>
<path d="M7.99998 3.6181L8.20623 4.01087L8.6495 3.9931L8.41248 4.3681L8.6495 4.7431L8.20623 4.72534L7.99998 5.1181L7.79373 4.72534L7.35046 4.7431L7.58748 4.3681L7.35046 3.9931L7.79373 4.01087L7.99998 3.6181Z" fill="#DC251C"/>
<path d="M8.06641 3.58295L8.25 3.93353L8.64648 3.91791L8.78906 3.91205L8.71289 4.03314L8.5 4.3681L8.71289 4.70306L8.78906 4.82416L8.25 4.8017L8.06641 5.15326L8 5.27924L7.93359 5.15326L7.74902 4.8017L7.21094 4.82416L7.28711 4.70306L7.49902 4.3681L7.28711 4.03314L7.21094 3.91205L7.35352 3.91791L7.74902 3.93353L8 3.45697L8.06641 3.58295ZM7.79395 4.01068L7.35059 3.9931L7.58789 4.3681L7.35059 4.7431L7.79395 4.72552L8 5.1181L8.20605 4.72552L8.64941 4.7431L8.41211 4.3681L8.64941 3.9931L8.20605 4.01068L8 3.6181L7.79395 4.01068Z" fill="#2B9F5A"/>
<path d="M6.45042 6.40436L6.65667 6.79712L7.09994 6.77936L6.86292 7.15436L7.09994 7.52936L6.65667 7.51159L6.45042 7.90436L6.24417 7.51159L5.8009 7.52936L6.03792 7.15436L5.8009 6.77936L6.24417 6.79712L6.45042 6.40436Z" fill="#DC251C"/>
<path d="M6.51685 6.3692L6.70044 6.71979L7.09692 6.70416L7.2395 6.6983L7.16333 6.8194L6.95044 7.15436L7.16333 7.48932L7.2395 7.61041L6.70044 7.58795L6.51685 7.93951L6.45044 8.06549L6.38403 7.93951L6.19946 7.58795L5.66138 7.61041L5.73755 7.48932L5.94946 7.15436L5.73755 6.8194L5.66138 6.6983L5.80396 6.70416L6.19946 6.71979L6.45044 6.24323L6.51685 6.3692ZM6.24438 6.79694L5.80103 6.77936L6.03833 7.15436L5.80103 7.52936L6.24438 7.51178L6.45044 7.90436L6.65649 7.51178L7.09985 7.52936L6.86255 7.15436L7.09985 6.77936L6.65649 6.79694L6.45044 6.40436L6.24438 6.79694Z" fill="#2B9F5A"/>
<path d="M9.54954 6.40436L9.75579 6.79712L10.1991 6.77936L9.96204 7.15436L10.1991 7.52936L9.75579 7.51159L9.54954 7.90436L9.34329 7.51159L8.90002 7.52936L9.13704 7.15436L8.90002 6.77936L9.34329 6.79712L9.54954 6.40436Z" fill="#DC251C"/>
<path d="M9.61597 6.3692L9.79956 6.71979L10.196 6.70416L10.3386 6.6983L10.2625 6.8194L10.0496 7.15436L10.2625 7.48932L10.3386 7.61041L9.79956 7.58795L9.61597 7.93951L9.54956 8.06549L9.48315 7.93951L9.29858 7.58795L8.7605 7.61041L8.83667 7.48932L9.04858 7.15436L8.83667 6.8194L8.7605 6.6983L8.90308 6.70416L9.29858 6.71979L9.54956 6.24323L9.61597 6.3692ZM9.34351 6.79694L8.90015 6.77936L9.13745 7.15436L8.90015 7.52936L9.34351 7.51178L9.54956 7.90436L9.75562 7.51178L10.199 7.52936L9.96167 7.15436L10.199 6.77936L9.75562 6.79694L9.54956 6.40436L9.34351 6.79694Z" fill="#2B9F5A"/>
</g>
<defs>
<clipPath id="clip0_2251_1643">
<rect width="16" height="12" fill="white"/>
</clipPath>
</defs>
</svg>
