<svg width="16" height="12" viewBox="0 0 16 12" fill="none" xmlns="http://www.w3.org/2000/svg">
<path d="M0 0H16V12H0V0Z" fill="#2E4E9D"/>
<path d="M0 0H16V1H0V0Z" fill="#A71B14"/>
<path d="M0 11H16V12H0V11Z" fill="#A71B14"/>
<path d="M12 6C12 8.20914 10.2091 10 8 10C5.79086 10 4 8.20914 4 6C4 3.79086 5.79086 2 8 2C10.2091 2 12 3.79086 12 6Z" fill="#F5F8FB"/>
<path d="M11 6C11 7.65685 9.65685 9 8 9C6.34315 9 5 7.65685 5 6C5 4.34315 6.34315 3 8 3C9.65685 3 11 4.34315 11 6Z" fill="#F5F8FB"/>
<path d="M8.3916 8.97461L8.45605 9.4707C8.30658 9.49018 8.15432 9.5 8 9.5C7.84568 9.5 7.69342 9.49018 7.54395 9.4707L7.6084 8.97461V8.97363C7.73661 8.99035 7.86723 9 8 9C8.13244 9 8.26272 8.99027 8.39062 8.97363L8.3916 8.97461ZM6.1748 8.37695C6.38136 8.5358 6.60748 8.67023 6.85156 8.77148V8.77246L6.66016 9.23438C6.37534 9.11627 6.10982 8.96132 5.86914 8.77637L6.17383 8.37988L6.1748 8.37695ZM9.82617 8.37988L10.1309 8.77637C9.89018 8.96132 9.62466 9.11627 9.33984 9.23438L9.14844 8.77246L9.14746 8.77148C9.39162 8.67028 9.61759 8.53577 9.82422 8.37695L9.82617 8.37988ZM5.22754 7.14746C5.32868 7.39156 5.46334 7.61762 5.62207 7.82422L5.62012 7.82617L5.22363 8.13086C5.03868 7.89018 4.88373 7.62466 4.76562 7.33984L5.22754 7.14844V7.14746ZM10.7725 7.14844L11.2344 7.33984C11.1163 7.62466 10.9613 7.89018 10.7764 8.13086L10.3799 7.82617L10.377 7.82422C10.5358 7.61759 10.6703 7.39162 10.7715 7.14746L10.7725 7.14844ZM5 6C5 6.13239 5.00876 6.26276 5.02539 6.39062V6.3916L4.5293 6.45605C4.50982 6.30658 4.5 6.15432 4.5 6C4.5 5.84568 4.50982 5.69342 4.5293 5.54395L5.02539 5.6084C5.00868 5.73657 5 5.86727 5 6ZM11 6C11 5.86723 10.9904 5.73661 10.9736 5.6084H10.9746L11.4707 5.54395C11.4902 5.69342 11.5 5.84568 11.5 6C11.5 6.15432 11.4902 6.30658 11.4707 6.45605L10.9746 6.3916L10.9736 6.39062C10.9903 6.26272 11 6.13244 11 6ZM5.62012 4.17383L5.62207 4.1748C5.46331 4.38133 5.32874 4.60753 5.22754 4.85156L4.76562 4.66016C4.88373 4.37534 5.03868 4.10982 5.22363 3.86914L5.62012 4.17383ZM10.7764 3.86914C10.9613 4.10982 11.1163 4.37534 11.2344 4.66016L10.7725 4.85156H10.7715C10.6702 4.60748 10.5358 4.38136 10.377 4.1748L10.3799 4.17383L10.7764 3.86914ZM6.85156 3.22754C6.60753 3.32874 6.38133 3.46331 6.1748 3.62207L6.17383 3.62012L5.86914 3.22363C6.10982 3.03868 6.37534 2.88373 6.66016 2.76562L6.85156 3.22754ZM9.33984 2.76562C9.62466 2.88373 9.89018 3.03868 10.1309 3.22363L9.82617 3.62012L9.82422 3.62207C9.61762 3.46334 9.39156 3.32868 9.14746 3.22754H9.14844L9.33984 2.76562ZM8 2.5C8.15432 2.5 8.30658 2.50982 8.45605 2.5293L8.3916 3.02539H8.39062C8.26276 3.00876 8.13239 3 8 3C7.86727 3 7.73657 3.00868 7.6084 3.02539L7.54395 2.5293C7.69342 2.50982 7.84568 2.5 8 2.5Z" fill="#A71B14"/>
<path d="M10.8978 6.77645C10.4689 8.37685 8.82392 9.3266 7.22353 8.89777C5.62313 8.46895 4.67338 6.82394 5.1022 5.22354C5.53103 3.62314 7.17604 2.67339 8.77644 3.10222C10.3768 3.53104 11.3266 5.17605 10.8978 6.77645Z" fill="#F5F8FB"/>
<path d="M7.60839 8.97461L7.54225 9.47048C7.39283 9.4506 7.24322 9.42068 7.09415 9.38074C6.94509 9.3408 6.80056 9.29191 6.66122 9.23441L6.85188 8.7719L6.85213 8.77096C6.97164 8.82029 7.09532 8.86342 7.22356 8.89778C7.35149 8.93206 7.47985 8.95638 7.6077 8.97341L7.60839 8.97461ZM5.62182 7.82357C5.78022 8.03046 5.96384 8.21883 6.1734 8.37981L6.17315 8.38076L5.86871 8.77739C5.62417 8.58959 5.4078 8.37121 5.22319 8.13026L5.62011 7.82614L5.62182 7.82357ZM9.14801 8.77144L9.3397 9.23327C9.05934 9.34963 8.76277 9.43058 8.45709 9.47094L8.39176 8.97523L8.39107 8.97403C8.6531 8.93948 8.90619 8.86803 9.14688 8.7681L9.14801 8.77144ZM5.02504 6.3908C5.05956 6.65276 5.13113 6.90597 5.23097 7.14661L5.22858 7.14799L4.76675 7.33968C4.65039 7.05932 4.56944 6.76275 4.52908 6.45707L5.02479 6.39174L5.02504 6.3908ZM10.3808 7.82687L10.7774 8.13131C10.5896 8.37585 10.3712 8.59222 10.1303 8.77683L9.82616 8.37991L9.82384 8.37726C10.0307 8.21878 10.2191 8.03532 10.3801 7.82568L10.3808 7.82687ZM5.10224 5.22354C5.06798 5.35143 5.0427 5.47962 5.02567 5.60743L5.02541 5.60837L4.52954 5.54223C4.54942 5.39281 4.57934 5.2432 4.61928 5.09413C4.65922 4.94507 4.70811 4.80054 4.76561 4.6612L5.22812 4.85186C5.17881 4.97134 5.13659 5.09534 5.10224 5.22354ZM10.8978 6.77646C10.9322 6.64821 10.9566 6.51955 10.9737 6.39138L10.9746 6.39163L11.4705 6.45777C11.4506 6.6072 11.4207 6.7568 11.3808 6.90587C11.3408 7.05493 11.2919 7.19946 11.2344 7.3388L10.7719 7.14814L10.7712 7.14695C10.8204 7.02771 10.8635 6.90438 10.8978 6.77646ZM6.17388 3.6201L6.17551 3.62154C5.96871 3.77994 5.78017 3.96361 5.61927 4.17313L5.22263 3.86869C5.41043 3.62415 5.62882 3.40779 5.86976 3.22317L6.17388 3.6201ZM11.2333 4.66033C11.3497 4.94068 11.4306 5.23725 11.471 5.54293L10.9752 5.60826L10.9743 5.60801C10.9397 5.34604 10.8683 5.09283 10.7684 4.8522L10.7715 4.85201L11.2333 4.66033ZM7.60828 3.02477C7.34638 3.05936 7.09305 3.13081 6.85247 3.2307L6.85203 3.22856L6.66034 2.76673C6.9407 2.65037 7.23727 2.56943 7.54295 2.52906L7.60828 3.02477ZM10.1313 3.22261C10.3759 3.41041 10.5922 3.6288 10.7768 3.86974L10.3799 4.17386L10.3775 4.17524C10.2191 3.96845 10.0356 3.77987 9.82595 3.61899L9.82689 3.61925L10.1313 3.22261ZM8.90589 2.61926C9.05495 2.6592 9.19948 2.70809 9.33882 2.7656L9.14816 3.2281L9.14722 3.22785C9.02802 3.1787 8.90436 3.13649 8.77648 3.10222C8.64827 3.06787 8.51978 3.04243 8.39165 3.0254L8.45779 2.52952C8.60721 2.5494 8.75682 2.57932 8.90589 2.61926Z" fill="#1A5C35"/>
<path d="M9.46983 4.3916C9.46983 4.94389 8.81177 5.3916 8.00002 5.3916C7.18827 5.3916 6.53021 4.94389 6.53021 4.3916C6.53021 3.83932 7.18827 3.3916 8.00002 3.3916C8.81177 3.3916 9.46983 3.83932 9.46983 4.3916Z" fill="#2B9F5A"/>
<path d="M9.46983 7.44373C9.46983 7.62244 8.81177 7.76732 8.00002 7.76732C7.18827 7.76732 6.53021 7.62244 6.53021 7.44373C6.53021 7.26502 7.18827 7.12015 8.00002 7.12015C8.81177 7.12015 9.46983 7.26502 9.46983 7.44373Z" fill="#2B9F5A"/>
<path d="M7.04896 5.39161C7.04896 5.79029 6.76206 6.11348 6.40815 6.11348C6.05424 6.11348 5.76733 5.79029 5.76733 5.39161C5.76733 4.99293 6.05424 4.66974 6.40815 4.66974C6.76206 4.66974 7.04896 4.99293 7.04896 5.39161Z" fill="#FFD018"/>
<path d="M8.57978 6.39829C8.57978 6.79697 8.29288 7.12016 7.93897 7.12016C7.58506 7.12016 7.29816 6.79697 7.29816 6.39829C7.29816 5.99961 7.58506 5.67642 7.93897 5.67642C8.29288 5.67642 8.57978 5.99961 8.57978 6.39829Z" fill="#A0C0F1"/>
<path d="M10.1106 5.39161C10.1106 5.79029 9.82371 6.11348 9.46979 6.11348C9.11588 6.11348 8.82898 5.79029 8.82898 5.39161C8.82898 4.99293 9.11588 4.66974 9.46979 4.66974C9.82371 4.66974 10.1106 4.99293 10.1106 5.39161Z" fill="#A71B14"/>
</svg>
