<svg width="16" height="12" viewBox="0 0 16 12" fill="none" xmlns="http://www.w3.org/2000/svg">
<g clip-path="url(#clip0_2251_1675)">
<rect width="16" height="12" fill="#F5F8FB"/>
<path d="M0 8H16V9H0V8Z" fill="#F5F8FB"/>
<path d="M0 9H16V12H0V9Z" fill="#2E4E9D"/>
<path d="M0 7H16V8H0V7Z" fill="#DC251C"/>
<path d="M0 6H16V7H0V6Z" fill="#F5F8FB"/>
<path d="M0 0H16V6H0V0Z" fill="#2E4E9D"/>
<path d="M5.49997 4L5.63222 4.31797L5.9755 4.34549L5.71396 4.56953L5.79386 4.90451L5.49997 4.725L5.20608 4.90451L5.28598 4.56953L5.02444 4.34549L5.36772 4.31797L5.49997 4Z" fill="#FFD018"/>
<path d="M5.49997 10L5.63222 10.318L5.9755 10.3455L5.71396 10.5695L5.79386 10.9045L5.49997 10.725L5.20608 10.9045L5.28598 10.5695L5.02444 10.3455L5.36772 10.318L5.49997 10Z" fill="#FFD018"/>
<path d="M7.24551 9.4399L7.37776 9.75787L7.72104 9.78539L7.4595 10.0094L7.5394 10.3444L7.24551 10.1649L6.95162 10.3444L7.03152 10.0094L6.76998 9.78539L7.11326 9.75787L7.24551 9.4399Z" fill="#FFD018"/>
<path d="M3.75443 4.5601L3.88668 4.87808L4.22996 4.9056L3.96842 5.12963L4.04832 5.46461L3.75443 5.2851L3.46054 5.46461L3.54044 5.12963L3.2789 4.9056L3.62218 4.87808L3.75443 4.5601Z" fill="#FFD018"/>
<path d="M3.75443 9.4399L3.62218 9.75787L3.2789 9.78539L3.54044 10.0094L3.46054 10.3444L3.75443 10.1649L4.04832 10.3444L3.96842 10.0094L4.22996 9.78539L3.88668 9.75787L3.75443 9.4399Z" fill="#FFD018"/>
<path d="M7.24551 4.5601L7.11326 4.87808L6.76998 4.9056L7.03152 5.12963L6.95162 5.46461L7.24551 5.2851L7.5394 5.46461L7.4595 5.12963L7.72104 4.9056L7.37776 4.87808L7.24551 4.5601Z" fill="#FFD018"/>
<path d="M2.67243 8.0025L2.54018 8.32047L2.1969 8.34799L2.45844 8.57203L2.37854 8.90701L2.67243 8.7275L2.96632 8.90701L2.88642 8.57203L3.14796 8.34799L2.80468 8.32047L2.67243 8.0025Z" fill="#FFD018"/>
<path d="M8.32751 5.9975L8.19526 6.31547L7.85199 6.34299L8.11353 6.56703L8.03362 6.90201L8.32751 6.7225L8.62141 6.90201L8.5415 6.56703L8.80304 6.34299L8.45977 6.31547L8.32751 5.9975Z" fill="#FFD018"/>
<path d="M8.32752 8.0025L8.45977 8.32047L8.80304 8.34799L8.5415 8.57203L8.62141 8.90701L8.32752 8.7275L8.03362 8.90701L8.11353 8.57203L7.85199 8.34799L8.19526 8.32047L8.32752 8.0025Z" fill="#FFD018"/>
<path d="M2.67243 5.9975L2.80468 6.31547L3.14796 6.34299L2.88642 6.56703L2.96632 6.90201L2.67243 6.7225L2.37854 6.90201L2.45844 6.56703L2.1969 6.34299L2.54018 6.31547L2.67243 5.9975Z" fill="#FFD018"/>
</g>
<defs>
<clipPath id="clip0_2251_1675">
<rect width="16" height="12" fill="white"/>
</clipPath>
</defs>
</svg>
