<svg width="16" height="12" viewBox="0 0 16 12" fill="none" xmlns="http://www.w3.org/2000/svg">
<rect width="16" height="12" fill="#F5F8FB"/>
<rect width="16" height="12" fill="#F5F8FB"/>
<path d="M4.78322 7.94434C4.95206 7.82458 5.1858 7.86442 5.30568 8.03321C5.59218 8.43657 5.82803 8.6948 6.11525 8.89063C6.40417 9.08756 6.77081 9.23834 7.34377 9.38672C7.54416 9.43861 7.66502 9.64335 7.6133 9.84375C7.56141 10.0441 7.35666 10.165 7.15627 10.1133C6.54304 9.95449 6.08251 9.77575 5.6924 9.50977C5.30068 9.24263 5.00477 8.90386 4.69435 8.4668C4.5746 8.29796 4.61443 8.06422 4.78322 7.94434Z" fill="#2B9F5A"/>
<path d="M11.2168 7.94434C11.0479 7.82458 10.8142 7.86442 10.6943 8.03321C10.4078 8.43657 10.172 8.6948 9.88475 8.89063C9.59583 9.08756 9.22919 9.23834 8.65623 9.38672C8.45584 9.43861 8.33498 9.64335 8.3867 9.84375C8.43859 10.0441 8.64334 10.165 8.84373 10.1133C9.45696 9.95449 9.91749 9.77575 10.3076 9.50977C10.6993 9.24263 10.9952 8.90386 11.3056 8.4668C11.4254 8.29796 11.3856 8.06422 11.2168 7.94434Z" fill="#2B9F5A"/>
<path d="M7.03082 7.25C5.44352 7.09381 5.16112 6.61742 5.27107 5.375L6.15094 4.625C6.67344 4.90573 6.96358 5.00976 7.47075 5L7.47075 4.25C7.99623 4.45658 9.26858 4.08175 10.1104 3.875C11.3677 3.5662 11.4012 3.2131 12.75 2.75C12.0749 3.3678 11.633 3.72692 11.4302 4.25L11.8701 5.375C11.1736 4.98569 10.7863 4.85049 10.1104 5C9.97516 5.33573 9.98721 5.49612 10.1104 5.75C8.4407 7.14516 7.97682 7.10897 7.03082 7.25Z" fill="#FF8718"/>
</svg>
