<svg width="16" height="12" viewBox="0 0 16 12" fill="none" xmlns="http://www.w3.org/2000/svg">
<path d="M0 0H16V12H0V0Z" fill="#2B9F5A"/>
<path d="M0 5.5H16V6.5H0V5.5Z" fill="#272727"/>
<path d="M0 6.5H16V7.5H0V6.5Z" fill="#F5F8FB"/>
<path d="M0 4.5H16V5.5H0V4.5Z" fill="#FFD018"/>
<path d="M7.5 12L7.5 0L8.5 -4.0349e-08L8.5 12L7.5 12Z" fill="#272727"/>
<path d="M8.5 12L8.5 0L9.5 -4.0349e-08L9.5 12L8.5 12Z" fill="#F5F8FB"/>
<path d="M6.5 12L6.5 0L7.5 -4.0349e-08L7.5 12L6.5 12Z" fill="#FFD018"/>
<path d="M11 6C11 7.65685 9.65685 9 8 9C6.34315 9 5 7.65685 5 6C5 4.34315 6.34315 3 8 3C9.65685 3 11 4.34315 11 6Z" fill="#DC251C"/>
<path d="M8.26074 7.9834L8.32617 8.47852C8.21929 8.49246 8.11022 8.5 8 8.5C7.88978 8.5 7.78071 8.49246 7.67383 8.47852L7.73926 7.9834V7.98047C7.82471 7.99161 7.91151 8 8 8C8.08816 8 8.17462 7.99153 8.25977 7.98047L8.26074 7.9834ZM6.7832 7.58398C6.92089 7.68991 7.07166 7.77914 7.23438 7.84668V7.84863L7.04297 8.31055C6.83945 8.22615 6.64941 8.11547 6.47754 7.9834L6.78223 7.58691L6.7832 7.58398ZM9.21777 7.58691L9.52246 7.9834C9.35059 8.11547 9.16055 8.22615 8.95703 8.31055L8.76562 7.84863L8.76465 7.84668C8.92744 7.7792 9.07806 7.68988 9.21582 7.58398L9.21777 7.58691ZM6.15234 6.76465C6.21977 6.92738 6.30923 7.07809 6.41504 7.21582L6.41309 7.21777L6.0166 7.52246C5.88452 7.35059 5.77385 7.16055 5.68945 6.95703L6.15137 6.76562L6.15234 6.76465ZM9.84863 6.76562L10.3105 6.95703C10.2262 7.16055 10.1155 7.35059 9.9834 7.52246L9.58691 7.21777L9.58398 7.21582C9.68988 7.07806 9.7792 6.92744 9.84668 6.76465L9.84863 6.76562ZM6 6C6 6.08811 6.00751 6.17466 6.01855 6.25977L6.0166 6.26074L5.76855 6.29395V6.29297L5.52148 6.32617C5.50754 6.21929 5.5 6.11022 5.5 6C5.5 5.88978 5.50754 5.78071 5.52148 5.67383L6.0166 5.73926H6.01855C6.00742 5.82467 6 5.91155 6 6ZM10 6C10 5.91151 9.99161 5.82471 9.98047 5.73926H9.9834L10.4785 5.67383C10.4925 5.78071 10.5 5.88978 10.5 6C10.5 6.11022 10.4925 6.21929 10.4785 6.32617L10.2314 6.29297V6.29395L9.9834 6.26074L9.98047 6.25977C9.99153 6.17462 10 6.08816 10 6ZM6.41309 4.78223L6.41504 4.7832C6.3092 4.92086 6.21982 5.07171 6.15234 5.23438H6.15137L5.68945 5.04297C5.77385 4.83945 5.88452 4.64941 6.0166 4.47754L6.41309 4.78223ZM9.9834 4.47754C10.1155 4.64941 10.2262 4.83945 10.3105 5.04297L9.84863 5.23438H9.84668C9.77914 5.07166 9.68991 4.92089 9.58398 4.7832L9.58691 4.78223L9.9834 4.47754ZM7.23438 4.15137V4.15234C7.07171 4.21982 6.92086 4.3092 6.7832 4.41504L6.78223 4.41309L6.47754 4.0166C6.64941 3.88452 6.83945 3.77385 7.04297 3.68945L7.23438 4.15137ZM8.95703 3.68945C9.16055 3.77385 9.35059 3.88452 9.52246 4.0166L9.21777 4.41309L9.21582 4.41504C9.07809 4.30923 8.92738 4.21977 8.76465 4.15234L8.76562 4.15137L8.95703 3.68945ZM8 3.5C8.11022 3.5 8.21929 3.50754 8.32617 3.52148L8.26074 4.0166L8.25977 4.01855C8.17466 4.00751 8.08811 4 8 4C7.91155 4 7.82467 4.00742 7.73926 4.01855V4.0166L7.67383 3.52148C7.78071 3.50754 7.88978 3.5 8 3.5Z" fill="#2B9F5A"/>
<path d="M8.92625 5.91894C8.92625 6.6232 8.50044 7.19412 7.97518 7.19412C7.44992 7.19412 7.02411 6.6232 7.02411 5.91894C7.02411 5.21468 7.44992 4.64377 7.97518 4.64377C8.50044 4.64377 8.92625 5.21468 8.92625 5.91894Z" fill="#B341B5"/>
<path d="M8.97592 6.05922C9.0635 6.5788 8.87579 7.04361 8.55667 7.0974C8.23754 7.15119 7.90784 6.7736 7.82026 6.25402C7.73268 5.73444 7.92038 5.26963 8.23951 5.21583C8.55863 5.16204 8.88833 5.53964 8.97592 6.05922Z" fill="#2B9F5A"/>
</svg>
