<svg width="16" height="12" viewBox="0 0 16 12" fill="none" xmlns="http://www.w3.org/2000/svg">
<rect width="16" height="12" fill="#F5F8FB"/>
<path d="M0 0H8V12H0V0Z" fill="#2B9F5A"/>
<path fill-rule="evenodd" clip-rule="evenodd" d="M10.5708 4.01637C10.0825 3.55561 9.42413 3.27317 8.69977 3.27317C7.19379 3.27317 5.97295 4.49401 5.97295 6C5.97295 7.50599 7.19379 8.72684 8.69977 8.72684C9.4241 8.72684 10.0825 8.44442 10.5708 7.98369C9.96591 8.79305 9.00018 9.31698 7.91207 9.31698C6.08015 9.31698 4.59509 7.83192 4.59509 5.99999C4.59509 4.16807 6.08015 2.683 7.91207 2.683C9.00021 2.683 9.96597 3.20697 10.5708 4.01637Z" fill="#DC251C"/>
<path d="M7.9491 4.9377L9.20761 5.34031L9.97942 4.26782L9.98541 5.58914L11.2439 5.99176L9.98911 6.40577L9.9951 7.7271L9.2136 6.66164L7.95879 7.07565L8.7306 6.00315L7.9491 4.9377Z" fill="#DC251C"/>
</svg>
