<svg width="16" height="12" viewBox="0 0 16 12" fill="none" xmlns="http://www.w3.org/2000/svg">
<g clip-path="url(#clip0_2251_1786)">
<rect width="16" height="12" fill="#F5F8FB"/>
<path d="M0 0H16V6H0V0Z" fill="#FFD018"/>
<path d="M0 6H16V9H0V6Z" fill="#2E4E9D"/>
<path d="M0 9H16V12H0V9Z" fill="#DC251C"/>
<path d="M5.75 7V3.75H6.25V7C6.25 7.41421 6.58579 7.75 7 7.75H9C9.41421 7.75 9.75 7.41421 9.75 7V3.75H10.25V7C10.25 7.69036 9.69036 8.25 9 8.25H7C6.30964 8.25 5.75 7.69036 5.75 7Z" fill="#FFD018"/>
<path d="M9 5.83151C9 6.65994 8.55228 7.33151 8 7.33151C7.44772 7.33151 7 6.65994 7 5.83151C7 5.00309 7.44772 4.33151 8 4.33151C8.55228 4.33151 9 5.00309 9 5.83151Z" fill="#2B9F5A"/>
<path d="M8.72288 5.83151C8.72288 6.1497 7.2771 6.43037 7.2771 5.83151C7.2771 5.23265 7.60075 4.74718 7.99999 4.74718C8.39923 4.74718 8.72288 5.23265 8.72288 5.83151Z" fill="#BEEFFF"/>
<path d="M6 3.08151C6.35083 3.08151 6.88217 3.13335 7.33496 3.29636C7.57594 3.38314 7.83026 3.51726 8.00977 3.71628C8.3255 3.36756 8.95034 3.08151 10 3.08151H10.25V3.58151H10C8.44693 3.58151 8.25 4.21243 8.25 4.33151H7.75C7.75 4.10298 7.56396 3.91067 7.16504 3.76706C6.78452 3.6301 6.3158 3.58151 6 3.58151H5.75V3.08151H6Z" fill="#272727"/>
<path d="M7.75 7.75H8.25V9.75H7.75V7.75Z" fill="#DC251C"/>
</g>
<defs>
<clipPath id="clip0_2251_1786">
<rect width="16" height="12" fill="white"/>
</clipPath>
</defs>
</svg>
