<svg width="16" height="12" viewBox="0 0 16 12" fill="none" xmlns="http://www.w3.org/2000/svg">
<path d="M0 0H16V6H0V0Z" fill="#2B9F5A"/>
<path d="M0 6H16V12H0V6Z" fill="#3273D3"/>
<path d="M16 6L0 0V12L16 6Z" fill="#DC251C"/>
<path d="M4.875 4.00368V8.08962C5.86955 7.91234 6.625 7.04528 6.625 5.99978C6.62491 5.1092 6.0765 4.34589 5.29785 4.03005L5.43945 3.6824L5.58008 3.33474C6.63194 3.7614 7.37491 4.79345 7.375 5.99978C7.375 7.5876 6.08782 8.87478 4.5 8.87478C2.91218 8.87478 1.625 7.5876 1.625 5.99978C1.62509 4.79345 2.36806 3.7614 3.41992 3.33474L3.56055 3.6824L3.70215 4.03005C2.9235 4.34589 2.37509 5.1092 2.375 5.99978C2.375 7.04528 3.13045 7.91234 4.125 8.08962V4.00368H4.875Z" fill="#FFD018"/>
</svg>
