<svg width="16" height="12" viewBox="0 0 16 12" fill="none" xmlns="http://www.w3.org/2000/svg">
<path d="M0 0H16V4H0V0Z" fill="#2B9F5A"/>
<path d="M0 4H16V8H0V4Z" fill="#FFD018"/>
<path d="M0 8H16V12H0V8Z" fill="#DC251C"/>
<path d="M11 6C11 7.65685 9.65685 9 8 9C6.34315 9 5 7.65685 5 6C5 4.34315 6.34315 3 8 3C9.65685 3 11 4.34315 11 6Z" fill="#2E4E9D"/>
<path fill-rule="evenodd" clip-rule="evenodd" d="M8.00002 3.875C8.05418 3.875 8.10217 3.90987 8.1189 3.96137L8.53987 5.25697H9.90213C9.95629 5.25697 10.0043 5.29184 10.021 5.34334C10.0378 5.39484 10.0194 5.45126 9.97561 5.48309L8.87351 6.28381L9.29447 7.57941C9.31121 7.63091 9.29288 7.68733 9.24907 7.71916C9.20525 7.75099 9.14593 7.75099 9.10212 7.71916L8.00002 6.91844L6.89792 7.71916C6.85411 7.75099 6.79479 7.75099 6.75098 7.71916C6.70717 7.68733 6.68884 7.63091 6.70557 7.57941L7.12653 6.28381L6.02444 5.48309C5.98062 5.45126 5.96229 5.39484 5.97903 5.34334C5.99576 5.29184 6.04376 5.25697 6.09791 5.25697H7.46018L7.88114 3.96137C7.89787 3.90987 7.94587 3.875 8.00002 3.875ZM8.00002 4.40451L7.66988 5.42059C7.65314 5.4721 7.60515 5.50697 7.55099 5.50697H6.48262L7.34695 6.13494C7.39076 6.16677 7.4091 6.22319 7.39236 6.2747L7.06222 7.29078L7.92655 6.6628C7.97036 6.63097 8.02968 6.63097 8.0735 6.6628L8.93783 7.29078L8.60768 6.2747C8.59095 6.22319 8.60928 6.16677 8.65309 6.13494L9.51742 5.50697H8.44905C8.3949 5.50697 8.3469 5.4721 8.33017 5.42059L8.00002 4.40451Z" fill="#FFD018"/>
</svg>
