<svg width="16" height="12" viewBox="0 0 16 12" fill="none" xmlns="http://www.w3.org/2000/svg">
<path d="M0 0H16V12H0V0Z" fill="#2E4E9D"/>
<path d="M7.95515 1.09085C7.97349 1.05369 8.02648 1.05369 8.04482 1.09085L8.28225 1.57192C8.28953 1.58668 8.30361 1.59691 8.31989 1.59927L8.85078 1.67642C8.8918 1.68238 8.90817 1.73278 8.8785 1.7617L8.49434 2.13616C8.48255 2.14765 8.47718 2.1642 8.47996 2.18042L8.57065 2.70917C8.57765 2.75001 8.53478 2.78116 8.4981 2.76188L8.02325 2.51224C8.00869 2.50458 7.99129 2.50458 7.97672 2.51224L7.50187 2.76188C7.46519 2.78116 7.42232 2.75001 7.42933 2.70917L7.52001 2.18042C7.5228 2.1642 7.51742 2.14765 7.50563 2.13616L7.12148 1.7617C7.0918 1.73278 7.10818 1.68238 7.14919 1.67642L7.68008 1.59927C7.69637 1.59691 7.71044 1.58668 7.71773 1.57192L7.95515 1.09085Z" fill="#FFD018"/>
<path d="M7.95515 9.09085C7.97349 9.05369 8.02648 9.05369 8.04482 9.09085L8.28225 9.57192C8.28953 9.58668 8.30361 9.59691 8.31989 9.59927L8.85078 9.67642C8.8918 9.68238 8.90817 9.73278 8.8785 9.7617L8.49434 10.1362C8.48255 10.1477 8.47718 10.1642 8.47996 10.1804L8.57065 10.7092C8.57765 10.75 8.53478 10.7812 8.4981 10.7619L8.02325 10.5122C8.00869 10.5046 7.99129 10.5046 7.97672 10.5122L7.50187 10.7619C7.46519 10.7812 7.42232 10.75 7.42933 10.7092L7.52001 10.1804C7.5228 10.1642 7.51742 10.1477 7.50563 10.1362L7.12148 9.7617C7.0918 9.73278 7.10818 9.68238 7.14919 9.67642L7.68008 9.59927C7.69637 9.59691 7.71044 9.58668 7.71773 9.57192L7.95515 9.09085Z" fill="#FFD018"/>
<path d="M3.95515 5.09085C3.97349 5.05369 4.02648 5.05369 4.04482 5.09085L4.28225 5.57192C4.28953 5.58668 4.30361 5.59691 4.31989 5.59927L4.85078 5.67642C4.8918 5.68238 4.90817 5.73278 4.8785 5.7617L4.49434 6.13616C4.48255 6.14765 4.47718 6.1642 4.47996 6.18042L4.57065 6.70917C4.57765 6.75001 4.53478 6.78116 4.4981 6.76188L4.02325 6.51224C4.00869 6.50458 3.99129 6.50458 3.97672 6.51224L3.50187 6.76188C3.46519 6.78116 3.42232 6.75001 3.42933 6.70917L3.52001 6.18042C3.5228 6.1642 3.51742 6.14765 3.50563 6.13616L3.12148 5.7617C3.0918 5.73278 3.10818 5.68238 3.14919 5.67642L3.68008 5.59927C3.69637 5.59691 3.71044 5.58668 3.71773 5.57192L3.95515 5.09085Z" fill="#FFD018"/>
<path d="M11.9551 5.09085C11.9735 5.05369 12.0265 5.05369 12.0448 5.09085L12.2822 5.57192C12.2895 5.58668 12.3036 5.59691 12.3199 5.59927L12.8508 5.67642C12.8918 5.68238 12.9082 5.73278 12.8785 5.7617L12.4943 6.13616C12.4826 6.14765 12.4772 6.1642 12.48 6.18042L12.5706 6.70917C12.5777 6.75001 12.5348 6.78116 12.4981 6.76188L12.0233 6.51224C12.0087 6.50458 11.9913 6.50458 11.9767 6.51224L11.5019 6.76188C11.4652 6.78116 11.4223 6.75001 11.4293 6.70917L11.52 6.18042C11.5228 6.1642 11.5174 6.14765 11.5056 6.13616L11.1215 5.7617C11.0918 5.73278 11.1082 5.68238 11.1492 5.67642L11.6801 5.59927C11.6964 5.59691 11.7104 5.58668 11.7177 5.57192L11.9551 5.09085Z" fill="#FFD018"/>
<path d="M9.95515 1.62676C9.97349 1.58959 10.0265 1.58959 10.0448 1.62676L10.2822 2.10783C10.2895 2.12258 10.3036 2.13281 10.3199 2.13518L10.8508 2.21232C10.8918 2.21828 10.9082 2.26868 10.8785 2.29761L10.4943 2.67207C10.4826 2.68355 10.4772 2.7001 10.48 2.71632L10.5706 3.24507C10.5777 3.28592 10.5348 3.31706 10.4981 3.29778L10.0233 3.04814C10.0087 3.04048 9.99129 3.04048 9.97672 3.04814L9.50187 3.29778C9.46519 3.31706 9.42232 3.28592 9.42933 3.24507L9.52001 2.71632C9.5228 2.7001 9.51742 2.68355 9.50563 2.67207L9.12148 2.29761C9.0918 2.26868 9.10818 2.21828 9.14919 2.21232L9.68008 2.13518C9.69637 2.13281 9.71044 2.12258 9.71773 2.10783L9.95515 1.62676Z" fill="#FFD018"/>
<path d="M5.95515 8.55496C5.97349 8.51779 6.02648 8.51779 6.04482 8.55496L6.28225 9.03603C6.28953 9.05078 6.30361 9.06101 6.31989 9.06338L6.85078 9.14052C6.8918 9.14648 6.90817 9.19688 6.8785 9.22581L6.49434 9.60027C6.48255 9.61175 6.47718 9.6283 6.47996 9.64452L6.57065 10.1733C6.57765 10.2141 6.53478 10.2453 6.4981 10.226L6.02325 9.97634C6.00869 9.96868 5.99129 9.96868 5.97672 9.97634L5.50187 10.226C5.46519 10.2453 5.42232 10.2141 5.42933 10.1733L5.52001 9.64452C5.5228 9.6283 5.51742 9.61175 5.50563 9.60027L5.12148 9.22581C5.0918 9.19688 5.10818 9.14648 5.14919 9.14052L5.68008 9.06338C5.69637 9.06101 5.71044 9.05078 5.71773 9.03603L5.95515 8.55496Z" fill="#FFD018"/>
<path d="M4.49104 3.09085C4.50938 3.05369 4.56237 3.05369 4.58071 3.09085L4.81813 3.57192C4.82542 3.58668 4.8395 3.59691 4.85578 3.59927L5.38667 3.67642C5.42768 3.68238 5.44406 3.73278 5.41438 3.7617L5.03023 4.13616C5.01844 4.14765 5.01306 4.1642 5.01585 4.18042L5.10653 4.70917C5.11354 4.75001 5.07067 4.78116 5.03399 4.76188L4.55914 4.51224C4.54458 4.50458 4.52717 4.50458 4.51261 4.51224L4.03776 4.76188C4.00108 4.78116 3.95821 4.75001 3.96522 4.70917L4.0559 4.18042C4.05869 4.1642 4.05331 4.14765 4.04152 4.13616L3.65737 3.7617C3.62769 3.73278 3.64407 3.68238 3.68508 3.67642L4.21597 3.59927C4.23225 3.59691 4.24633 3.58668 4.25362 3.57192L4.49104 3.09085Z" fill="#FFD018"/>
<path d="M11.4193 7.09085C11.4376 7.05369 11.4906 7.05369 11.5089 7.09085L11.7464 7.57192C11.7536 7.58668 11.7677 7.59691 11.784 7.59927L12.3149 7.67642C12.3559 7.68238 12.3723 7.73278 12.3426 7.7617L11.9584 8.13616C11.9467 8.14765 11.9413 8.1642 11.9441 8.18042L12.0348 8.70917C12.0418 8.75001 11.9989 8.78116 11.9622 8.76188L11.4874 8.51224C11.4728 8.50458 11.4554 8.50458 11.4408 8.51224L10.966 8.76188C10.9293 8.78116 10.8864 8.75001 10.8934 8.70917L10.9841 8.18042C10.9869 8.1642 10.9815 8.14765 10.9697 8.13616L10.5856 7.7617C10.5559 7.73278 10.5723 7.68238 10.6133 7.67642L11.1442 7.59927C11.1605 7.59691 11.1746 7.58668 11.1818 7.57192L11.4193 7.09085Z" fill="#FFD018"/>
<path d="M11.4193 3.09086C11.4376 3.0537 11.4906 3.0537 11.5089 3.09086L11.7464 3.57193C11.7536 3.58669 11.7677 3.59692 11.784 3.59928L12.3149 3.67643C12.3559 3.68238 12.3723 3.73278 12.3426 3.76171L11.9584 4.13617C11.9467 4.14766 11.9413 4.16421 11.9441 4.18043L12.0348 4.70917C12.0418 4.75002 11.9989 4.78117 11.9622 4.76188L11.4874 4.51224C11.4728 4.50459 11.4554 4.50459 11.4408 4.51224L10.966 4.76188C10.9293 4.78117 10.8864 4.75002 10.8934 4.70917L10.9841 4.18043C10.9869 4.16421 10.9815 4.14766 10.9697 4.13617L10.5856 3.76171C10.5559 3.73278 10.5723 3.68238 10.6133 3.67643L11.1442 3.59928C11.1605 3.59692 11.1746 3.58669 11.1818 3.57193L11.4193 3.09086Z" fill="#FFD018"/>
<path d="M4.49104 7.09086C4.50938 7.0537 4.56237 7.0537 4.58071 7.09086L4.81813 7.57193C4.82542 7.58669 4.8395 7.59692 4.85578 7.59928L5.38667 7.67643C5.42768 7.68238 5.44406 7.73278 5.41438 7.76171L5.03023 8.13617C5.01844 8.14766 5.01306 8.16421 5.01585 8.18043L5.10653 8.70917C5.11354 8.75002 5.07067 8.78117 5.03399 8.76188L4.55914 8.51224C4.54458 8.50459 4.52717 8.50459 4.51261 8.51224L4.03776 8.76188C4.00108 8.78117 3.95821 8.75002 3.96522 8.70917L4.0559 8.18043C4.05869 8.16421 4.05331 8.14766 4.04152 8.13617L3.65737 7.76171C3.62769 7.73278 3.64407 7.68238 3.68508 7.67643L4.21597 7.59928C4.23225 7.59692 4.24633 7.58669 4.25362 7.57193L4.49104 7.09086Z" fill="#FFD018"/>
<path d="M5.95515 1.62676C5.97349 1.58959 6.02648 1.58959 6.04482 1.62676L6.28225 2.10783C6.28953 2.12258 6.30361 2.13281 6.31989 2.13518L6.85078 2.21232C6.8918 2.21828 6.90817 2.26868 6.8785 2.29761L6.49434 2.67207C6.48255 2.68355 6.47718 2.7001 6.47996 2.71632L6.57065 3.24507C6.57765 3.28592 6.53478 3.31706 6.4981 3.29778L6.02325 3.04814C6.00869 3.04048 5.99129 3.04048 5.97672 3.04814L5.50187 3.29778C5.46519 3.31706 5.42232 3.28592 5.42933 3.24507L5.52001 2.71632C5.5228 2.7001 5.51742 2.68355 5.50563 2.67207L5.12148 2.29761C5.0918 2.26868 5.10818 2.21828 5.14919 2.21232L5.68008 2.13518C5.69637 2.13281 5.71044 2.12258 5.71773 2.10783L5.95515 1.62676Z" fill="#FFD018"/>
<path d="M9.95515 8.55496C9.97349 8.51779 10.0265 8.51779 10.0448 8.55496L10.2822 9.03603C10.2895 9.05078 10.3036 9.06101 10.3199 9.06338L10.8508 9.14052C10.8918 9.14648 10.9082 9.19688 10.8785 9.22581L10.4943 9.60027C10.4826 9.61175 10.4772 9.6283 10.48 9.64452L10.5706 10.1733C10.5777 10.2141 10.5348 10.2453 10.4981 10.226L10.0233 9.97634C10.0087 9.96868 9.99129 9.96868 9.97672 9.97634L9.50187 10.226C9.46519 10.2453 9.42232 10.2141 9.42933 10.1733L9.52001 9.64452C9.5228 9.6283 9.51742 9.61175 9.50563 9.60027L9.12148 9.22581C9.0918 9.19688 9.10818 9.14648 9.14919 9.14052L9.68008 9.06338C9.69637 9.06101 9.71044 9.05078 9.71773 9.03603L9.95515 8.55496Z" fill="#FFD018"/>
</svg>
