<svg width="16" height="12" viewBox="0 0 16 12" fill="none" xmlns="http://www.w3.org/2000/svg">
<path d="M0 0H16V12H0V0Z" fill="#A0C0F1"/>
<path d="M8.00001 1L8.28332 1.61005L8.95106 1.69098L8.45842 2.14895L8.58779 2.80902L8.00001 2.482L7.41222 2.80902L7.5416 2.14895L7.04895 1.69098L7.71669 1.61005L8.00001 1Z" fill="#F5F8FB"/>
<path d="M8.00001 9L8.28332 9.61005L8.95106 9.69098L8.45842 10.1489L8.58779 10.809L8.00001 10.482L7.41222 10.809L7.5416 10.1489L7.04895 9.69098L7.71669 9.61005L8.00001 9Z" fill="#F5F8FB"/>
<path d="M4.00001 5L4.28332 5.61005L4.95106 5.69098L4.45842 6.14895L4.58779 6.80902L4.00001 6.482L3.41222 6.80902L3.5416 6.14895L3.04895 5.69098L3.71669 5.61005L4.00001 5Z" fill="#F5F8FB"/>
<path d="M12 5L12.2833 5.61005L12.9511 5.69098L12.4584 6.14895L12.5878 6.80902L12 6.482L11.4122 6.80902L11.5416 6.14895L11.049 5.69098L11.7167 5.61005L12 5Z" fill="#F5F8FB"/>
</svg>
