<svg width="16" height="12" viewBox="0 0 16 12" fill="none" xmlns="http://www.w3.org/2000/svg">
<path d="M0 0H16V12H0V0Z" fill="#DC251C"/>
<path d="M1 1H15V11H1V1Z" fill="#FFD018"/>
<path d="M8 6L1 1V11L8 6Z" fill="#2B9F5A"/>
<path d="M8 6L15 1V11L8 6Z" fill="#2B9F5A"/>
<path d="M10 6C10 7.10457 9.10457 8 8 8C6.89543 8 6 7.10457 6 6C6 4.89543 6.89543 4 8 4C9.10457 4 10 4.89543 10 6Z" fill="#DC251C"/>
<path d="M8.00001 4L8.52902 5.27188L9.90213 5.38197L8.85596 6.27812L9.17558 7.61803L8.00001 6.9L6.82444 7.61803L7.14406 6.27812L6.0979 5.38197L7.47101 5.27188L8.00001 4Z" fill="#FFD018"/>
<path d="M8 0L8.17634 0.257295L8.47553 0.345491L8.28532 0.592705L8.2939 0.904508L8 0.8L7.70611 0.904508L7.71469 0.592705L7.52448 0.345491L7.82367 0.257295L8 0Z" fill="#FFD018"/>
<path d="M8 11L8.17634 11.2573L8.47553 11.3455L8.28532 11.5927L8.2939 11.9045L8 11.8L7.70611 11.9045L7.71469 11.5927L7.52448 11.3455L7.82367 11.2573L8 11Z" fill="#FFD018"/>
<path d="M4.5 0L4.67634 0.257295L4.97553 0.345491L4.78532 0.592705L4.7939 0.904508L4.5 0.8L4.20611 0.904508L4.21469 0.592705L4.02448 0.345491L4.32367 0.257295L4.5 0Z" fill="#FFD018"/>
<path d="M4.5 11L4.67634 11.2573L4.97553 11.3455L4.78532 11.5927L4.7939 11.9045L4.5 11.8L4.20611 11.9045L4.21469 11.5927L4.02448 11.3455L4.32367 11.2573L4.5 11Z" fill="#FFD018"/>
<path d="M11.5 0L11.6763 0.257295L11.9755 0.345491L11.7853 0.592705L11.7939 0.904508L11.5 0.8L11.2061 0.904508L11.2147 0.592705L11.0245 0.345491L11.3237 0.257295L11.5 0Z" fill="#FFD018"/>
<path d="M11.5 11L11.6763 11.2573L11.9755 11.3455L11.7853 11.5927L11.7939 11.9045L11.5 11.8L11.2061 11.9045L11.2147 11.5927L11.0245 11.3455L11.3237 11.2573L11.5 11Z" fill="#FFD018"/>
<path d="M3.92167 5.95446C4.20325 6.44217 3.99799 6.69535 3.67285 6.88307C3.34771 7.07079 3.02582 7.12196 2.74424 6.63425C2.46266 6.14654 2.65317 5.11693 2.65317 5.11693C2.65317 5.11693 3.64009 5.46675 3.92167 5.95446Z" fill="#FFD018"/>
<path d="M3.76047 6.47209C3.88975 6.696 3.80742 6.80537 3.67284 6.88307C3.53826 6.96077 3.40238 6.97738 3.2731 6.75347C3.14383 6.52955 3.20468 6.0722 3.20468 6.0722C3.20468 6.0722 3.63119 6.24817 3.76047 6.47209Z" fill="#DC251C"/>
</svg>
