<svg width="16" height="12" viewBox="0 0 16 12" fill="none" xmlns="http://www.w3.org/2000/svg">
<g clip-path="url(#clip0_2251_1940)">
<rect width="16" height="12" fill="#F5F8FB"/>
<path d="M11 0H16V12H11V0Z" fill="#3273D3"/>
<path d="M0 0H5V12H0V0Z" fill="#3273D3"/>
<path d="M8.86152 4.50803C9.18984 4.69761 9.44592 4.99077 9.59101 5.34103C9.73607 5.69128 9.76136 6.07934 9.66328 6.44553C9.56518 6.81164 9.34965 7.13562 9.04902 7.36642C8.74826 7.59721 8.37928 7.72282 8.00019 7.72287C7.62102 7.72287 7.25218 7.59725 6.95136 7.36642C6.65059 7.1356 6.43426 6.81174 6.33613 6.44553C6.2381 6.07945 6.26342 5.69119 6.40839 5.34103C6.55349 4.99073 6.81049 4.69761 7.13886 4.50803L7.51386 5.15744C7.32847 5.26447 7.18367 5.43037 7.10175 5.62814C7.01989 5.82587 7.00535 6.04545 7.06074 6.25217C7.1162 6.45875 7.23869 6.64148 7.40839 6.7717C7.57816 6.90184 7.78627 6.97287 8.00019 6.97287C8.21415 6.97282 8.42223 6.90193 8.59199 6.7717C8.76172 6.64146 8.88419 6.45879 8.93964 6.25217C8.99502 6.0455 8.98043 5.82583 8.89863 5.62814C8.81672 5.43039 8.67188 5.26448 8.48652 5.15744L8.86152 4.50803Z" fill="#2B9F5A"/>
</g>
<defs>
<clipPath id="clip0_2251_1940">
<rect width="16" height="12" fill="white"/>
</clipPath>
</defs>
</svg>
