<svg width="16" height="12" viewBox="0 0 16 12" fill="none" xmlns="http://www.w3.org/2000/svg">
<rect width="16" height="6" fill="#2E4E9D"/>
<rect y="6" width="16" height="6" fill="#DC251C"/>
<path d="M6 4H10V8H6V4Z" fill="#F5F8FB"/>
<path d="M6.56555 6.08434C6.56555 7.03144 7.52185 7.5313 8 7.66284V6.08434C8 5.29508 6.56555 4.90046 6.56555 6.08434Z" fill="#2E4E9D"/>
<path d="M9.43445 6.08434C9.43445 7.03144 8.47815 7.5313 8 7.66284V6.08434C8 5.29508 9.43445 4.90046 9.43445 6.08434Z" fill="#2E4E9D"/>
<path d="M8.25 4V8H7.75V4H8.25Z" fill="#272727"/>
<path d="M9 6.5C9 6.77614 8.55228 7 8 7C7.44772 7 7 6.77614 7 6.5C7 6.22386 7.44772 6 8 6C8.55228 6 9 6.22386 9 6.5Z" fill="#DC251C"/>
<path d="M8.83173 4.54293C8.83173 4.72424 8.44769 4.87121 7.97397 4.87121C7.50024 4.87121 7.11621 4.72424 7.11621 4.54293C7.11621 4.36163 7.50024 4.21466 7.97397 4.21466C8.44769 4.21466 8.83173 4.36163 8.83173 4.54293Z" fill="#2B9F5A"/>
<path d="M8 7C6.8 7 6.16667 7.66667 6 8H10C9.83333 7.66667 9.2 7 8 7Z" fill="#2B9F5A"/>
</svg>
