<svg width="16" height="12" viewBox="0 0 16 12" fill="none" xmlns="http://www.w3.org/2000/svg">
<rect width="16" height="12" fill="#F5F8FB"/>
<path d="M0 1H16V3H0V1Z" fill="#2E4E9D"/>
<path d="M0 9H16V11H0V9Z" fill="#2E4E9D"/>
<path d="M8.75 4.71372H10.25L9.49902 5.99986L10.25 7.28599H8.75L8 8.57115L7.25 7.28599H5.75L6.5 5.99986L5.75 4.71372H7.25L8 3.42857L8.75 4.71372ZM7.82812 7.28599L8 7.57994L8.17188 7.28599H7.82812ZM9.04102 6.78599H9.37988L9.20996 6.49497L9.04102 6.78599ZM7.53711 5.21372L7.07812 5.99986L7.53711 6.78599H8.46289L8.9209 5.99986L8.46289 5.21372H7.53711ZM6.62012 6.78599H6.95898L6.78906 6.49497L6.62012 6.78599ZM6.62012 5.21372L6.78906 5.50376L6.95898 5.21372H6.62012ZM9.04102 5.21372L9.20996 5.50376L9.37988 5.21372H9.04102ZM7.82812 4.71372H8.17188L8 4.41978L7.82812 4.71372Z" fill="#2E4E9D"/>
</svg>
