<svg width="16" height="12" viewBox="0 0 16 12" fill="none" xmlns="http://www.w3.org/2000/svg">
<g clip-path="url(#clip0_2251_1984)">
<path d="M0 0H16V4H0V0Z" fill="#FF8718"/>
<path d="M0 4H16V8H0V4Z" fill="#F5F8FB"/>
<path d="M0 8H16V12H0V8Z" fill="#2B9F5A"/>
<path d="M9 6C9 6.55228 8.55228 7 8 7C7.44772 7 7 6.55228 7 6C7 5.44772 7.44772 5 8 5C8.55228 5 9 5.44772 9 6Z" fill="#F5F8FB"/>
<path fill-rule="evenodd" clip-rule="evenodd" d="M8 5.5C7.72386 5.5 7.5 5.72386 7.5 6C7.5 6.27614 7.72386 6.5 8 6.5C8.27614 6.5 8.5 6.27614 8.5 6C8.5 5.72386 8.27614 5.5 8 5.5ZM6.5 6C6.5 5.17157 7.17157 4.5 8 4.5C8.82843 4.5 9.5 5.17157 9.5 6C9.5 6.82843 8.82843 7.5 8 7.5C7.17157 7.5 6.5 6.82843 6.5 6Z" fill="#2E4E9D"/>
</g>
<defs>
<clipPath id="clip0_2251_1984">
<rect width="16" height="12" fill="white"/>
</clipPath>
</defs>
</svg>
