<svg width="16" height="12" viewBox="0 0 16 12" fill="none" xmlns="http://www.w3.org/2000/svg">
<path d="M0 0H16V4H0V0Z" fill="#2B9F5A"/>
<path d="M0 4H16V8H0V4Z" fill="#F5F8FB"/>
<path d="M8.25 4.5V7.5H7.75V4.5H8.25Z" fill="#DC251C"/>
<path d="M0 8H16V12H0V8Z" fill="#DC251C"/>
<path fill-rule="evenodd" clip-rule="evenodd" d="M8.87585 5.01453L9 5C9.12415 4.9854 9.12415 4.98545 9.12416 4.98551L9.12437 4.98737L9.12485 4.99179L9.12642 5.00775C9.12769 5.02148 9.12935 5.04127 9.13099 5.0665C9.13427 5.11693 9.1375 5.18918 9.1375 5.27813C9.1375 5.45575 9.12461 5.70136 9.07279 5.97339C8.96953 6.51552 8.70829 7.17804 8.06934 7.60401L7.93066 7.39599C8.49171 7.02196 8.73047 6.43448 8.82721 5.92661C8.87539 5.67364 8.8875 5.44426 8.8875 5.27813C8.8875 5.19519 8.88449 5.12838 8.88152 5.08272C8.88003 5.0599 8.87856 5.04239 8.87749 5.03082L8.87623 5.01801L8.87585 5.01453Z" fill="#DC251C"/>
<path fill-rule="evenodd" clip-rule="evenodd" d="M7.13666 5.01453L7.01251 5C6.88837 4.9854 6.88836 4.98545 6.88835 4.98551L6.88814 4.98737L6.88766 4.99179L6.88609 5.00775C6.88482 5.02148 6.88316 5.04127 6.88152 5.0665C6.87824 5.11693 6.87501 5.18918 6.87501 5.27813C6.87501 5.45575 6.8879 5.70136 6.93972 5.97339C7.04298 6.51552 7.30422 7.17804 7.94317 7.60401L8.08185 7.39599C7.5208 7.02196 7.28204 6.43448 7.1853 5.92661C7.13712 5.67364 7.12501 5.44426 7.12501 5.27813C7.12501 5.19519 7.12803 5.12838 7.131 5.08272C7.13248 5.0599 7.13395 5.04239 7.13502 5.03082L7.13628 5.01801L7.13666 5.01453Z" fill="#DC251C"/>
<path fill-rule="evenodd" clip-rule="evenodd" d="M6.61185 6.94422C6.61182 6.94416 6.61179 6.9441 6.49999 7C6.38819 7.0559 6.38815 7.05583 6.38812 7.05576L6.3873 7.05411L6.38573 7.05084L6.3807 7.03997C6.37657 7.03083 6.37097 7.01793 6.3644 7.0015C6.35127 6.96867 6.33421 6.92166 6.3173 6.86247C6.28351 6.74421 6.24999 6.57628 6.24999 6.375C6.24999 5.96908 6.38663 5.43659 6.9116 4.91161L7.08838 5.08839C6.61335 5.56341 6.49999 6.03092 6.49999 6.375C6.49999 6.54872 6.52897 6.69329 6.55768 6.79378C6.57202 6.84396 6.58621 6.88289 6.59652 6.90865C6.60167 6.92153 6.60583 6.93108 6.60854 6.93708L6.61185 6.94422Z" fill="#DC251C"/>
<path fill-rule="evenodd" clip-rule="evenodd" d="M9.38815 6.94422C9.38818 6.94416 9.38821 6.9441 9.50001 7C9.61181 7.0559 9.61185 7.05583 9.61188 7.05576L9.6127 7.05411L9.61427 7.05084L9.6193 7.03997C9.62343 7.03083 9.62903 7.01793 9.6356 7.0015C9.64873 6.96867 9.66579 6.92166 9.6827 6.86247C9.71649 6.74421 9.75001 6.57628 9.75001 6.375C9.75001 5.96908 9.61337 5.43659 9.0884 4.91161L8.91162 5.08839C9.38665 5.56341 9.50001 6.03092 9.50001 6.375C9.50001 6.54872 9.47103 6.69329 9.44232 6.79378C9.42798 6.84396 9.41379 6.88289 9.40348 6.90865C9.39833 6.92153 9.39417 6.93108 9.39146 6.93708L9.38815 6.94422Z" fill="#DC251C"/>
</svg>
