<svg width="16" height="12" viewBox="0 0 16 12" fill="none" xmlns="http://www.w3.org/2000/svg">
<g clip-path="url(#clip0_2251_2043)">
<rect width="16" height="12" fill="#F5F8FB"/>
<path d="M0 0H16V4H0V0Z" fill="#272727"/>
<path d="M0 8H16V12H0V8Z" fill="#2B9F5A"/>
<path d="M-0.682068 4H16.682V8H-0.682068V4Z" fill="#DC251C"/>
<path d="M16.9322 3.75V8.25H-0.932068V3.75H16.9322ZM-0.432068 7.75H16.4322V4.25H-0.432068V7.75Z" fill="#F5F8FB"/>
<path d="M10 6C10 8.20914 9.10457 10 8 10C6.89543 10 6 8.20914 6 6C6 3.79086 6.89543 2 8 2C9.10457 2 10 3.79086 10 6Z" fill="#DC251C"/>
<path d="M8.38557 3.89536C8.38557 4.75854 8.21294 5.45828 7.99998 5.45828C7.78702 5.45828 7.61438 4.75854 7.61438 3.89536C7.61438 3.03217 7.78702 2.33243 7.99998 2.33243C8.21294 2.33243 8.38557 3.03217 8.38557 3.89536Z" fill="#F5F8FB"/>
<path d="M8.38557 6C8.38557 6.21585 8.21294 6.39082 7.99998 6.39082C7.78702 6.39082 7.61438 6.21585 7.61438 6C7.61438 5.78415 7.78702 5.60918 7.99998 5.60918C8.21294 5.60918 8.38557 5.78415 8.38557 6Z" fill="#F5F8FB"/>
<path d="M10.3834 2.90285C10.2308 3.2626 10.0365 3.52263 9.94931 3.48366C9.86216 3.44468 9.9152 3.12146 10.0678 2.76171C10.2204 2.40197 10.4147 2.14193 10.5019 2.18091C10.589 2.21988 10.536 2.54311 10.3834 2.90285Z" fill="#F5F8FB"/>
<path d="M5.61661 2.90285C5.76919 3.2626 5.96354 3.52263 6.05069 3.48366C6.13784 3.44468 6.0848 3.12146 5.93222 2.76171C5.77964 2.40197 5.58529 2.14193 5.49814 2.18091C5.41099 2.21988 5.46403 2.54311 5.61661 2.90285Z" fill="#F5F8FB"/>
<path d="M8.38557 8.10464C8.38557 8.96783 8.21294 9.66757 7.99998 9.66757C7.78702 9.66757 7.61438 8.96783 7.61438 8.10464C7.61438 7.24146 7.78702 6.54172 7.99998 6.54172C8.21294 6.54172 8.38557 7.24146 8.38557 8.10464Z" fill="#F5F8FB"/>
<path d="M9.99999 6.00056C9.99999 6.98767 9.76919 7.78787 9.48449 7.78787C9.19979 7.78787 8.96899 6.98767 8.96899 6.00056C8.96899 5.01346 9.19979 4.21326 9.48449 4.21326C9.76919 4.21326 9.99999 5.01346 9.99999 6.00056Z" fill="#272727"/>
<path d="M7.03099 6.00056C7.03099 6.98767 6.8002 7.78787 6.5155 7.78787C6.2308 7.78787 6 6.98767 6 6.00056C6 5.01346 6.2308 4.21326 6.5155 4.21326C6.8002 4.21326 7.03099 5.01346 7.03099 6.00056Z" fill="#272727"/>
</g>
<defs>
<clipPath id="clip0_2251_2043">
<rect width="16" height="12" fill="white"/>
</clipPath>
</defs>
</svg>
