<svg width="16" height="12" viewBox="0 0 16 12" fill="none" xmlns="http://www.w3.org/2000/svg">
<path d="M0 0H16V12H0V0Z" fill="#DC251C"/>
<path d="M8 2L8.1969 3.24703L8.56926 2.04071L8.58668 3.30307L9.12693 2.16203L8.96452 3.41402L9.66166 2.36147L9.32273 3.57761L10.1626 2.63499L9.65401 3.79051L10.6194 2.977L9.95161 4.04839L11.023 3.38056L10.2095 4.34599L11.365 3.83744L10.4224 4.67727L11.6385 4.33834L10.586 5.03548L11.838 4.87307L10.6969 5.41332L11.9593 5.43074L10.753 5.8031L12 6L10.753 6.1969L11.9593 6.56926L10.6969 6.58668L11.838 7.12693L10.586 6.96452L11.6385 7.66166L10.4224 7.32273L11.365 8.16256L10.2095 7.65401L11.023 8.61944L9.95161 7.95161L10.6194 9.023L9.65401 8.20949L10.1626 9.36501L9.32273 8.42239L9.66166 9.63853L8.96452 8.58598L9.12693 9.83797L8.58668 8.69693L8.56926 9.95929L8.1969 8.75297L8 10L7.8031 8.75297L7.43074 9.95929L7.41332 8.69693L6.87307 9.83797L7.03548 8.58598L6.33834 9.63853L6.67727 8.42239L5.83744 9.36501L6.34599 8.20949L5.38056 9.023L6.04839 7.95161L4.977 8.61944L5.79051 7.65401L4.63499 8.16256L5.57761 7.32273L4.36147 7.66166L5.41402 6.96452L4.16203 7.12693L5.30307 6.58668L4.04071 6.56926L5.24703 6.1969L4 6L5.24703 5.8031L4.04071 5.43074L5.30307 5.41332L4.16203 4.87307L5.41402 5.03548L4.36147 4.33834L5.57761 4.67727L4.63499 3.83744L5.79051 4.34599L4.977 3.38056L6.04839 4.04839L5.38056 2.977L6.34599 3.79051L5.83744 2.63499L6.67727 3.57761L6.33834 2.36147L7.03548 3.41402L6.87307 2.16203L7.41332 3.30307L7.43074 2.04071L7.8031 3.24703L8 2Z" fill="#FFD018"/>
<path d="M10 6C10 7.10457 9.10457 8 8 8C6.89543 8 6 7.10457 6 6C6 4.89543 6.89543 4 8 4C9.10457 4 10 4.89543 10 6Z" fill="#FFD018"/>
<path d="M9.75 6C9.75 5.0335 8.9665 4.25 8 4.25C7.0335 4.25 6.25 5.0335 6.25 6C6.25 6.9665 7.0335 7.75 8 7.75V8C6.89543 8 6 7.10457 6 6C6 4.89543 6.89543 4 8 4C9.10457 4 10 4.89543 10 6C10 7.10457 9.10457 8 8 8V7.75C8.9665 7.75 9.75 6.9665 9.75 6Z" fill="#DC251C"/>
<path d="M10 6C10 4.89543 9.10457 4 8 4C6.89543 4 6 4.89543 6 6C6 7.10457 6.89543 8 8 8C9.10457 8 10 7.10457 10 6ZM10.25 6C10.25 7.24264 9.24264 8.25 8 8.25C6.75736 8.25 5.75 7.24264 5.75 6C5.75 4.75736 6.75736 3.75 8 3.75C9.24264 3.75 10.25 4.75736 10.25 6Z" fill="#DC251C"/>
<path d="M7.0625 4.15427C7.34647 4.31872 7.70617 4.55383 8.00586 4.83298C8.29985 4.58729 8.68701 4.33528 8.98242 4.15622L9.11133 4.36911C8.82209 4.54443 8.45672 4.78339 8.18066 5.01169C8.46424 5.3174 8.80048 5.76446 9.07129 6.14743C9.22295 6.36191 9.35686 6.55779 9.45215 6.70016C9.49977 6.77132 9.53813 6.82903 9.56445 6.86911C9.57761 6.88915 9.58781 6.90536 9.59473 6.91599L9.60449 6.93063V6.93259C9.6019 6.93428 9.58678 6.94387 9.5 6.99997C9.40629 7.06055 9.39659 7.06763 9.39551 7.06833L9.39453 7.06735C9.39415 7.06676 9.39332 7.06556 9.39258 7.06442C9.39087 7.06179 9.38814 7.05692 9.38477 7.05173C9.37804 7.0414 9.36822 7.02623 9.35547 7.00681C9.32954 6.96732 9.29125 6.91021 9.24414 6.83981C9.14971 6.69872 9.01731 6.50426 8.86719 6.29196C8.5941 5.90576 8.26384 5.46857 7.99316 5.1777C7.66964 5.49113 7.33993 5.93291 7.08105 6.31442C6.94035 6.52179 6.82131 6.70928 6.73828 6.8447C6.69708 6.9119 6.66476 6.96633 6.64258 7.00388C6.63146 7.02269 6.62288 7.03803 6.61719 7.04782C6.61438 7.05266 6.61176 7.05613 6.61035 7.05856C6.60968 7.05973 6.60971 7.06091 6.60938 7.06149H6.6084V7.06247L6.3916 6.93747L6.39258 6.93649C6.39296 6.93583 6.39293 6.93465 6.39355 6.93356C6.39509 6.9309 6.39744 6.92692 6.40039 6.92184C6.40637 6.91156 6.41533 6.89627 6.42676 6.87692C6.4496 6.83827 6.48318 6.78268 6.52539 6.71384C6.60993 6.57597 6.73068 6.38505 6.87402 6.1738C7.1334 5.79156 7.47322 5.33449 7.81543 5.00192C7.53939 4.74865 7.20895 4.52827 6.9375 4.37106L7.0625 4.15427Z" fill="#DC251C"/>
<path d="M6.55176 4.88672C6.55228 4.88696 6.55373 4.88726 6.55469 4.8877C6.55661 4.88858 6.55987 4.88993 6.56348 4.8916C6.57067 4.89495 6.5815 4.89994 6.59473 4.90625C6.62155 4.91905 6.66014 4.9377 6.70801 4.96191C6.80469 5.01082 6.94024 5.08293 7.09375 5.17285C7.3722 5.33599 7.71509 5.56508 8.00391 5.83398C8.26599 5.61471 8.60197 5.39023 8.88086 5.21777C9.03702 5.12122 9.17679 5.03904 9.27734 4.98145C9.32755 4.95269 9.36843 4.92969 9.39648 4.91406C9.41035 4.90634 9.42132 4.90055 9.42871 4.89648C9.43241 4.89445 9.43556 4.89266 9.4375 4.8916L9.43945 4.89062H9.44043L9.55957 5.10938V5.11035L9.55762 5.11133C9.55584 5.1123 9.55237 5.11328 9.54883 5.11523C9.54174 5.11913 9.53116 5.12525 9.51758 5.13281C9.4903 5.14801 9.45056 5.17006 9.40137 5.19824C9.30265 5.25479 9.16595 5.3359 9.0127 5.43066C8.74192 5.59809 8.42647 5.80842 8.18164 6.01074C8.57546 6.43534 9.07091 7.13771 9.3584 7.56152L9.15137 7.70215C8.86013 7.27281 8.37155 6.58337 7.99414 6.17773C7.54927 6.60851 7.09352 7.27895 6.8291 7.69824L6.72363 7.63184L6.61816 7.56445C6.88112 7.1475 7.34817 6.45802 7.81641 6.00293C7.55022 5.75849 7.23312 5.54468 6.9668 5.38867C6.81864 5.30188 6.68872 5.2326 6.5957 5.18555C6.54921 5.16203 6.51167 5.14393 6.48633 5.13184C6.47389 5.12591 6.46444 5.12115 6.45801 5.11816C6.45477 5.11666 6.45176 5.11595 6.4502 5.11523L6.44922 5.11426H6.44824L6.55176 4.88574V4.88672Z" fill="#DC251C"/>
</svg>
