<svg width="16" height="12" viewBox="0 0 16 12" fill="none" xmlns="http://www.w3.org/2000/svg">
<path d="M0 0H16V6H0V0Z" fill="#DC251C"/>
<path d="M7.99998 3L8.27118 3.76641L8.71792 3.08717L8.79784 3.89621L9.39415 3.34363L9.27812 4.14829L9.98935 3.75447L9.68413 4.50797L10.4689 4.29581L9.99225 4.95437L10.805 4.93619L10.1846 5.46154L10.9781 5.63839L10.25 6L10.9781 6.36161L10.1846 6.53846L10.805 7.06381L9.99225 7.04563L10.4689 7.70419L9.68413 7.49203L9.98935 8.24553L9.27812 7.85171L9.39415 8.65637L8.79784 8.10379L8.71792 8.91283L8.27118 8.23359L7.99998 9L7.72877 8.23359L7.28203 8.91283L7.20212 8.10379L6.60581 8.65637L6.72183 7.85171L6.01061 8.24553L6.31583 7.49203L5.53103 7.70419L6.0077 7.04563L5.19493 7.06381L5.81536 6.53846L5.02185 6.36161L5.74998 6L5.02185 5.63839L5.81536 5.46154L5.19493 4.93619L6.0077 4.95437L5.53103 4.29581L6.31583 4.50797L6.01061 3.75447L6.72183 4.14829L6.60581 3.34363L7.20212 3.89621L7.28203 3.08717L7.72877 3.76641L7.99998 3Z" fill="#FFD018"/>
<path d="M10 6C10 7.10457 9.10457 8 8 8C6.89543 8 6 7.10457 6 6C6 4.89543 6.89543 4 8 4C9.10457 4 10 4.89543 10 6Z" fill="#FFD018"/>
<path d="M9.75 6C9.75 5.0335 8.9665 4.25 8 4.25C7.0335 4.25 6.25 5.0335 6.25 6C6.25 6.9665 7.0335 7.75 8 7.75V8C6.89543 8 6 7.10457 6 6C6 4.89543 6.89543 4 8 4C9.10457 4 10 4.89543 10 6C10 7.10457 9.10457 8 8 8V7.75C8.9665 7.75 9.75 6.9665 9.75 6Z" fill="#DC251C"/>
<path d="M8 2L5 1H11L8 2Z" fill="#FFD018"/>
<path d="M16 11.9996H0V9.9996H16V11.9996Z" fill="#2E4E9D"/>
<path d="M13.3936 8.63534C13.7916 8.53585 14.2084 8.53585 14.6064 8.63534L15.8828 8.95468C15.9214 8.96432 15.9608 8.9696 16 8.97616V9.98593C15.8787 9.97405 15.7581 9.95499 15.6396 9.92538L14.3643 9.60605C14.1255 9.54636 13.8745 9.54636 13.6357 9.60605L12.6064 9.86386C12.2084 9.96338 11.7916 9.96338 11.3936 9.86386L10.3643 9.60605C10.1255 9.54636 9.87454 9.54636 9.63574 9.60605L8.60645 9.86386C8.20835 9.96338 7.79165 9.96338 7.39355 9.86386L6.36426 9.60605C6.12546 9.54636 5.87454 9.54636 5.63574 9.60605L4.60645 9.86386C4.20835 9.96338 3.79165 9.96338 3.39355 9.86386L2.36426 9.60605C2.12546 9.54636 1.87454 9.54636 1.63574 9.60605L0.360352 9.92538C0.241915 9.95499 0.121333 9.97405 0 9.98593V8.97616C0.0391744 8.9696 0.0785846 8.96432 0.117188 8.95468L1.39355 8.63534C1.79159 8.53585 2.20841 8.53585 2.60645 8.63534L3.63574 8.89316C3.8746 8.95287 4.1254 8.95287 4.36426 8.89316L5.39355 8.63534C5.79159 8.53585 6.20841 8.53585 6.60645 8.63534L7.63574 8.89316C7.8746 8.95287 8.1254 8.95287 8.36426 8.89316L9.39355 8.63534C9.79159 8.53585 10.2084 8.53585 10.6064 8.63534L11.6357 8.89316C11.8746 8.95287 12.1254 8.95287 12.3643 8.89316L13.3936 8.63534Z" fill="#2E4E9D"/>
<path d="M13.3936 6.63534C13.7916 6.53585 14.2084 6.53585 14.6064 6.63534L15.8828 6.95468C15.9214 6.96432 15.9608 6.9696 16 6.97616V7.98593C15.8787 7.97405 15.7581 7.95499 15.6396 7.92538L14.3643 7.60605C14.1255 7.54636 13.8745 7.54636 13.6357 7.60605L12.6064 7.86386C12.2084 7.96338 11.7916 7.96338 11.3936 7.86386L10.3643 7.60605C10.1255 7.54636 9.87454 7.54636 9.63574 7.60605L8.60645 7.86386C8.20835 7.96338 7.79165 7.96338 7.39355 7.86386L6.36426 7.60605C6.12546 7.54636 5.87454 7.54636 5.63574 7.60605L4.60645 7.86386C4.20835 7.96338 3.79165 7.96338 3.39355 7.86386L2.36426 7.60605C2.12546 7.54636 1.87454 7.54636 1.63574 7.60605L0.360352 7.92538C0.241916 7.95499 0.121332 7.97405 0 7.98593V6.97616C0.0391741 6.9696 0.0785848 6.96432 0.117188 6.95468L1.39355 6.63534C1.79159 6.53585 2.20841 6.53585 2.60645 6.63534L3.63574 6.89316C3.8746 6.95287 4.1254 6.95287 4.36426 6.89316L5.39355 6.63534C5.79159 6.53585 6.20841 6.53585 6.60645 6.63534L7.63574 6.89316C7.8746 6.95287 8.1254 6.95287 8.36426 6.89316L9.39355 6.63534C9.79159 6.53585 10.2084 6.53585 10.6064 6.63534L11.6357 6.89316C11.8746 6.95287 12.1254 6.95287 12.3643 6.89316L13.3936 6.63534Z" fill="#2E4E9D"/>
<path d="M13.3936 9.63534C13.7916 9.53585 14.2084 9.53585 14.6064 9.63534L15.8828 9.95468C15.9214 9.96432 15.9608 9.9696 16 9.97616V10.9859C15.8787 10.974 15.7581 10.955 15.6396 10.9254L14.3643 10.606C14.1255 10.5464 13.8745 10.5464 13.6357 10.606L12.6064 10.8639C12.2084 10.9634 11.7916 10.9634 11.3936 10.8639L10.3643 10.606C10.1255 10.5464 9.87454 10.5464 9.63574 10.606L8.60645 10.8639C8.20835 10.9634 7.79165 10.9634 7.39355 10.8639L6.36426 10.606C6.12546 10.5464 5.87454 10.5464 5.63574 10.606L4.60645 10.8639C4.20835 10.9634 3.79165 10.9634 3.39355 10.8639L2.36426 10.606C2.12546 10.5464 1.87454 10.5464 1.63574 10.606L0.360352 10.9254C0.241916 10.955 0.121332 10.974 0 10.9859V9.97616C0.0391741 9.9696 0.0785849 9.96432 0.117188 9.95468L1.39355 9.63534C1.79159 9.53585 2.20841 9.53585 2.60645 9.63534L3.63574 9.89316C3.8746 9.95287 4.1254 9.95287 4.36426 9.89316L5.39355 9.63534C5.79159 9.53585 6.20841 9.53585 6.60645 9.63534L7.63574 9.89316C7.8746 9.95287 8.1254 9.95287 8.36426 9.89316L9.39355 9.63534C9.79159 9.53585 10.2084 9.53585 10.6064 9.63534L11.6357 9.89316C11.8746 9.95287 12.1254 9.95287 12.3643 9.89316L13.3936 9.63534Z" fill="#F5F8FB"/>
<path d="M13.3936 7.63534C13.7916 7.53585 14.2084 7.53585 14.6064 7.63534L15.8828 7.95468C15.9214 7.96432 15.9608 7.9696 16 7.97616V8.98593C15.8787 8.97405 15.7581 8.95499 15.6396 8.92538L14.3643 8.60605C14.1255 8.54636 13.8745 8.54636 13.6357 8.60605L12.6064 8.86386C12.2084 8.96338 11.7916 8.96338 11.3936 8.86386L10.3643 8.60605C10.1255 8.54636 9.87454 8.54636 9.63574 8.60605L8.60645 8.86386C8.20835 8.96338 7.79165 8.96338 7.39355 8.86386L6.36426 8.60605C6.12546 8.54636 5.87454 8.54636 5.63574 8.60605L4.60645 8.86386C4.20835 8.96338 3.79165 8.96338 3.39355 8.86386L2.36426 8.60605C2.12546 8.54636 1.87454 8.54636 1.63574 8.60605L0.360352 8.92538C0.241916 8.95499 0.121332 8.97405 0 8.98593V7.97616C0.0391741 7.9696 0.0785849 7.96432 0.117188 7.95468L1.39355 7.63534C1.79159 7.53585 2.20841 7.53585 2.60645 7.63534L3.63574 7.89316C3.8746 7.95287 4.1254 7.95287 4.36426 7.89316L5.39355 7.63534C5.79159 7.53585 6.20841 7.53585 6.60645 7.63534L7.63574 7.89316C7.8746 7.95287 8.1254 7.95287 8.36426 7.89316L9.39355 7.63534C9.79159 7.53585 10.2084 7.53585 10.6064 7.63534L11.6357 7.89316C11.8746 7.95287 12.1254 7.95287 12.3643 7.89316L13.3936 7.63534Z" fill="#F5F8FB"/>
<path d="M13.3936 5.63534C13.7916 5.53585 14.2084 5.53585 14.6064 5.63534L15.8828 5.95468C15.9214 5.96432 15.9608 5.9696 16 5.97616V6.98593C15.8787 6.97405 15.7581 6.95499 15.6396 6.92538L14.3643 6.60605C14.1255 6.54636 13.8745 6.54636 13.6357 6.60605L12.6064 6.86386C12.2084 6.96338 11.7916 6.96338 11.3936 6.86386L10.3643 6.60605C10.1255 6.54636 9.87454 6.54636 9.63574 6.60605L8.60645 6.86386C8.20835 6.96338 7.79165 6.96338 7.39355 6.86386L6.36426 6.60605C6.12546 6.54636 5.87454 6.54636 5.63574 6.60605L4.60645 6.86386C4.20835 6.96338 3.79165 6.96338 3.39355 6.86386L2.36426 6.60605C2.12546 6.54636 1.87454 6.54636 1.63574 6.60605L0.360352 6.92538C0.241916 6.95499 0.121332 6.97405 0 6.98593V5.97616C0.0391741 5.9696 0.0785849 5.96432 0.117188 5.95468L1.39355 5.63534C1.79159 5.53585 2.20841 5.53585 2.60645 5.63534L3.63574 5.89316C3.8746 5.95287 4.1254 5.95287 4.36426 5.89316L5.39355 5.63534C5.79159 5.53585 6.20841 5.53585 6.60645 5.63534L7.63574 5.89316C7.8746 5.95287 8.1254 5.95287 8.36426 5.89316L9.39355 5.63534C9.79159 5.53585 10.2084 5.53585 10.6064 5.63534L11.6357 5.89316C11.8746 5.95287 12.1254 5.95287 12.3643 5.89316L13.3936 5.63534Z" fill="#F5F8FB"/>
</svg>
