<svg width="16" height="12" viewBox="0 0 16 12" fill="none" xmlns="http://www.w3.org/2000/svg">
<path d="M0 0H16L0 12V0Z" fill="#2B9F5A"/>
<path d="M16 12H0L16 0V12Z" fill="#A71B14"/>
<path d="M0 11L12 0H16V1L4 12H0V11Z" fill="#272727"/>
<path d="M0 11V10L11 0H12L0 11Z" fill="#FFD018"/>
<path d="M16 2V1L4 12H5L16 2Z" fill="#FFD018"/>
<path d="M4.2969 10.7344L4.01625 9.87065L3.10808 9.87065L3.84281 9.33683L3.56217 8.4731L4.2969 9.00692L5.03163 8.4731L4.75099 9.33683L5.48572 9.87065L4.57754 9.87065L4.2969 10.7344Z" fill="#F5F8FB"/>
<path d="M11.7969 3.89062L11.5163 3.0269L10.6081 3.0269L11.3428 2.49308L11.0622 1.62935L11.7969 2.16317L12.5316 1.62935L12.251 2.49308L12.9857 3.0269L12.0775 3.0269L11.7969 3.89062Z" fill="#F5F8FB"/>
</svg>
