<svg width="16" height="12" viewBox="0 0 16 12" fill="none" xmlns="http://www.w3.org/2000/svg">
<path d="M0 0H16V2H0V0Z" fill="#3273D3"/>
<path d="M0 10H16V12H0V10Z" fill="#3273D3"/>
<path d="M0 2H16V10H0V2Z" fill="#DC251C"/>
<path d="M16 9.75V10H0V9.75H16ZM16 2V2.25H0V2H16Z" fill="#F5F8FB"/>
<path d="M7 6C7 7.10457 6.10457 8 5 8C3.89543 8 3 7.10457 3 6C3 4.89543 3.89543 4 5 4C6.10457 4 7 4.89543 7 6Z" fill="#F5F8FB"/>
<path d="M5.00001 4L5.44904 5.38197H6.90213L5.72656 6.23607L6.17558 7.61803L5.00001 6.76393L3.82444 7.61803L4.27347 6.23607L3.0979 5.38197H4.55099L5.00001 4Z" fill="#DC251C"/>
</svg>
