<svg width="16" height="12" viewBox="0 0 16 12" fill="none" xmlns="http://www.w3.org/2000/svg">
<path d="M0 0H16V12H0V0Z" fill="#47C5D4"/>
<path d="M1 0H2V12H1V0Z" fill="#FFD018"/>
<path d="M11 4.5C11 5.32843 10.3284 6 9.5 6C8.67157 6 8 5.32843 8 4.5C8 3.67157 8.67157 3 9.5 3C10.3284 3 11 3.67157 11 4.5Z" fill="#FFD018"/>
<path opacity="0.7" d="M11.5 4.5C11.5 3.39543 10.6046 2.5 9.5 2.5C8.39543 2.5 7.5 3.39543 7.5 4.5C7.5 5.60457 8.39543 6.5 9.5 6.5V7C8.11929 7 7 5.88071 7 4.5C7 3.11929 8.11929 2 9.5 2C10.8807 2 12 3.11929 12 4.5C12 5.88071 10.8807 7 9.5 7V6.5C10.6046 6.5 11.5 5.60457 11.5 4.5Z" fill="#FFD018"/>
<path d="M11.6113 9.72363C10.7693 10.1445 9.86288 10.25 9.5 10.25V9.75C9.80373 9.75 10.6308 9.65532 11.3887 9.27637L11.6113 9.72363ZM12.5059 5.75C12.6228 5.75278 12.7222 5.8365 12.7451 5.95117C12.8362 6.40702 12.837 7.11204 12.54 7.76563C12.2364 8.43367 11.6287 9.02914 10.5488 9.24512C7.9374 9.76731 5.75 8.19891 5.75 6C5.75 5.88413 5.82965 5.78355 5.94238 5.75684C6.05523 5.7302 6.17178 5.78497 6.22363 5.88867C6.5272 6.4954 7.6198 7.75 9.5 7.75C11.3637 7.75 12.1134 6.51723 12.2578 5.93945L12.292 5.86133C12.3385 5.79164 12.4183 5.74795 12.5059 5.75ZM6.44922 7.00391C6.98191 8.28843 8.53037 9.13904 10.4512 8.75488C11.3712 8.57083 11.847 8.08218 12.085 7.55859C12.1662 7.37966 12.2184 7.19409 12.252 7.0127C11.7584 7.64362 10.8873 8.25 9.5 8.25C8.09883 8.25 7.08271 7.63203 6.44922 7.00391Z" fill="#FFD018"/>
</svg>
