<svg width="16" height="12" viewBox="0 0 16 12" fill="none" xmlns="http://www.w3.org/2000/svg">
<path d="M0 0H16V3H0V0Z" fill="#2E4E9D"/>
<path d="M0 9H16V12H0V9Z" fill="#2B9F5A"/>
<path d="M0 3H16V9H0V3Z" fill="#F5F8FB"/>
<path d="M6 8L8 5L10 8C10 8 9.5 8.5 8 8.5C6.5 8.5 6 8 6 8Z" fill="#272727"/>
<path d="M8.5 5C8.5 4.67076 8.41004 4.39536 8.29102 4.2168C8.16965 4.03474 8.05695 4 8 4C7.94305 4 7.83035 4.03474 7.70898 4.2168C7.58996 4.39536 7.5 4.67076 7.5 5C7.5 5.32924 7.58996 5.60464 7.70898 5.7832C7.83035 5.96526 7.94305 6 8 6V6.5C7.44772 6.5 7 5.82843 7 5C7 4.17157 7.44772 3.5 8 3.5C8.55228 3.5 9 4.17157 9 5C9 5.82843 8.55228 6.5 8 6.5V6C8.05695 6 8.16965 5.96526 8.29102 5.7832C8.41004 5.60464 8.5 5.32924 8.5 5Z" fill="#272727"/>
</svg>
