<svg width="16" height="12" viewBox="0 0 16 12" fill="none" xmlns="http://www.w3.org/2000/svg">
<path d="M0 0H16V6H0V0Z" fill="#2E4E9D"/>
<path d="M0 6H16V12H0V6Z" fill="#A71B14"/>
<path d="M6 3.5C6 4.32843 5.10457 5 4 5C2.89543 5 2 4.32843 2 3.5C2 2.67157 2.89543 2 4 2C5.10457 2 6 2.67157 6 3.5Z" fill="#FFD018"/>
<path d="M4.5 3C4.5 4.10457 4.27614 5 4 5C3.72386 5 3.5 4.10457 3.5 3C3.5 1.89543 3.72386 1 4 1C4.27614 1 4.5 1.89543 4.5 3Z" fill="#FFD018"/>
<path d="M5.70168 4.5C5.70168 4.77614 4.93981 5 4.00001 5C3.0602 5 2.29834 4.77614 2.29834 4.5C2.29834 4.22386 3.0602 4 4.00001 4C4.93981 4 5.70168 4.22386 5.70168 4.5Z" fill="#272727"/>
</svg>
