<svg width="16" height="12" viewBox="0 0 16 12" fill="none" xmlns="http://www.w3.org/2000/svg">
<path d="M0 0H16V12H0V0Z" fill="#FFD018"/>
<path d="M1 1H3V11H1V1Z" fill="#1A5C35"/>
<path d="M3 1H5V11H3V1Z" fill="#FF8718"/>
<path d="M6 1H15V11H6V1Z" fill="#A71B14"/>
<path d="M7 2H8V3H7V2Z" fill="#FFD018"/>
<path d="M7 9H8V10H7V9Z" fill="#FFD018"/>
<path d="M13 2H14V3H13V2Z" fill="#FFD018"/>
<path d="M13 9H14V10H13V9Z" fill="#FFD018"/>
<path d="M13 6C13 6.55228 11.8807 7 10.5 7C9.11929 7 8 6.55228 8 6C8 5.44772 9.11929 5 10.5 5C11.8807 5 13 5.44772 13 6Z" fill="#FFD018"/>
<path d="M11 4.5C11 5.32843 10.5523 6 10 6C9.44772 6 9 5.32843 9 4.5C9 3.67157 9.44772 3 10 3C10.5523 3 11 3.67157 11 4.5Z" fill="#FFD018"/>
<path d="M9 6H10V8H9V6Z" fill="#FFD018"/>
<path d="M12 6H13V8H12V6Z" fill="#FFD018"/>
<path d="M8 4H8.5V7H8V4Z" fill="#FFD018"/>
</svg>
