<svg width="16" height="12" viewBox="0 0 16 12" fill="none" xmlns="http://www.w3.org/2000/svg">
<path d="M0 0H16V1H0V0Z" fill="#A71B14"/>
<path d="M0 1H16V2H0V1Z" fill="#F5F8FB"/>
<path d="M0 2H16V3H0V2Z" fill="#A71B14"/>
<path d="M0 3H16V4H0V3Z" fill="#F5F8FB"/>
<path d="M0 4H16V5H0V4Z" fill="#A71B14"/>
<path d="M0 5H16V6H0V5Z" fill="#F5F8FB"/>
<path d="M0 6H16V7H0V6Z" fill="#A71B14"/>
<path d="M0 7H16V8H0V7Z" fill="#F5F8FB"/>
<path d="M0 8H16V9H0V8Z" fill="#A71B14"/>
<path d="M0 9H16V10H0V9Z" fill="#F5F8FB"/>
<path d="M0 10H16V11H0V10Z" fill="#A71B14"/>
<path d="M0 0H6V6H0V0Z" fill="#2E4E9D"/>
<path d="M3.00001 1L3.52902 2.27188L4.90213 2.38197L3.85596 3.27812L4.17558 4.61803L3.00001 3.9L1.82444 4.61803L2.14406 3.27812L1.0979 2.38197L2.47101 2.27188L3.00001 1Z" fill="#F5F8FB"/>
</svg>
