<svg width="16" height="12" viewBox="0 0 16 12" fill="none" xmlns="http://www.w3.org/2000/svg">
<path d="M0 3H16V9H0V3Z" fill="#272727"/>
<path d="M0 9H16V12H0V9Z" fill="#2B9F5A"/>
<path d="M0 0H16V3H0V0Z" fill="#DC251C"/>
<path d="M7.47797 3.69267C8.10695 3.69274 8.67606 3.94559 9.09222 4.3538C8.83863 4.2233 8.55136 4.14872 8.24652 4.14872C7.22402 4.14887 6.39496 4.97775 6.39496 6.00028C6.39511 7.02269 7.22411 7.8517 8.24652 7.85184C8.55143 7.85184 8.83858 7.77635 9.09222 7.64579C8.67604 8.05412 8.10705 8.30685 7.47797 8.30692C6.20375 8.30692 5.1705 7.27446 5.17035 6.00028C5.17035 4.72598 6.20366 3.69267 7.47797 3.69267Z" fill="#F5F8FB"/>
<path d="M9.78014 5.10946L10.1987 5.65362L10.8456 5.4237L10.4574 5.98993L10.8759 6.53409L10.2175 6.33987L9.82928 6.9061L9.81051 6.21984L9.15204 6.02563L9.79891 5.79571L9.78014 5.10946Z" fill="#F5F8FB"/>
</svg>
