<svg width="16" height="12" viewBox="0 0 16 12" fill="none" xmlns="http://www.w3.org/2000/svg">
<rect width="16" height="12" fill="#DC251C"/>
<path d="M8.85486 4.82324H11.6224L9.38318 6.44922L10.0013 8.34961L10.2386 9.08203L9.61658 8.62891L7.99939 7.45508L6.38318 8.62891L5.76111 9.08203L6.6156 6.44922L4.37732 4.82324H7.1449L8.00037 2.19141L8.85486 4.82324ZM6.7113 7.77148L7.57361 7.14551L7.04138 6.75879L6.7113 7.77148ZM8.42517 7.14551L9.28748 7.77148L8.9574 6.75879L8.42517 7.14551ZM7.20349 6.25781L7.99939 6.83594L8.79529 6.25781L8.49158 5.32324H7.50818L7.20349 6.25781ZM6.77771 5.94922L6.98181 5.32324H5.91638L6.77771 5.94922ZM9.22107 5.94922L10.0834 5.32324H9.01794L9.22107 5.94922ZM7.67029 4.82324H8.32947L7.99939 3.80859L7.67029 4.82324Z" fill="#2B9F5A"/>
<path d="M8.1908 2.12988L9.00037 4.62305H11.6224L11.7396 4.98535L9.61755 6.52539L10.1918 8.28809L10.4291 9.02051L10.1205 9.24414L9.49841 8.79102V8.79004L7.99939 7.70215L6.50037 8.79004L6.50134 8.79102L5.87927 9.24414L5.57068 9.02051L6.38025 6.52539L4.26013 4.98535L4.37732 4.62305H6.99939L7.80994 2.12988H8.1908ZM7.1449 4.82324H4.37732L6.6156 6.44922L5.76111 9.08203L6.38318 8.62891L7.99939 7.45508L9.61658 8.62891L10.2386 9.08203L10.0013 8.34961L9.38318 6.44922L11.6224 4.82324H8.85486L8.00037 2.19141L7.1449 4.82324ZM7.57361 7.14551L6.7113 7.77148L7.04138 6.75879L7.57361 7.14551ZM9.28748 7.77148L8.42517 7.14551L8.9574 6.75879L9.28748 7.77148ZM7.09216 7.24707L7.23279 7.14453L7.14587 7.08203L7.09216 7.24707ZM8.76501 7.14453L8.90564 7.24707L8.85193 7.08203L8.76501 7.14453ZM8.49158 5.32324L8.79529 6.25781L7.99939 6.83594L7.20349 6.25781L7.50818 5.32324H8.49158ZM7.43884 6.18066L7.99939 6.58789L8.55994 6.18066L8.34607 5.52344H7.65369L7.43884 6.18066ZM6.98181 5.32324L6.77771 5.94922L5.91638 5.32324H6.98181ZM10.0834 5.32324L9.22107 5.94922L9.01794 5.32324H10.0834ZM6.67224 5.625L6.70642 5.52344H6.53162L6.67224 5.625ZM9.32556 5.625L9.46716 5.52344H9.29333L9.32556 5.625ZM8.32947 4.82324H7.67029L7.99939 3.80859L8.32947 4.82324ZM7.94568 4.62305H8.05408L7.99939 4.45605L7.94568 4.62305Z" fill="#272727"/>
</svg>
