<svg width="16" height="12" viewBox="0 0 16 12" fill="none" xmlns="http://www.w3.org/2000/svg">
<path d="M0 0H16V4H0V0Z" fill="#272727"/>
<path d="M0 8H16V12H0V8Z" fill="#2B9F5A"/>
<path d="M10 4C10 3.46957 9.78929 2.96086 9.41421 2.58579C9.03914 2.21071 8.53043 2 8 2C7.46957 2 6.96086 2.21071 6.58579 2.58579C6.21071 2.96086 6 3.46957 6 4L8 4H10Z" fill="#DC251C"/>
<path opacity="0.5" d="M8 1C8.79565 1 9.55849 1.3163 10.1211 1.87891C10.6837 2.44152 11 3.20435 11 4H10.25C10.25 3.40326 10.0128 2.83114 9.59082 2.40918C9.16886 1.98722 8.59674 1.75 8 1.75C7.40326 1.75 6.83114 1.98722 6.40918 2.40918C5.98722 2.83114 5.75 3.40326 5.75 4H5C5 3.20435 5.3163 2.44152 5.87891 1.87891C6.44152 1.3163 7.20435 1 8 1Z" fill="#DC251C"/>
<path d="M0 4H16V8H0V4Z" fill="#DC251C"/>
<path d="M16 3.75V4H0V3.75H16Z" fill="#272727"/>
</svg>
