<svg width="16" height="12" viewBox="0 0 16 12" fill="none" xmlns="http://www.w3.org/2000/svg">
<path d="M0 0H16V2H0V0Z" fill="#A71B14"/>
<path d="M0 10H16V12H0V10Z" fill="#A71B14"/>
<path d="M0 2H16V10H0V2Z" fill="#2B9F5A"/>
<path d="M11.9502 4.37305C11.9824 4.57735 12 4.78665 12 5C12 7.20914 10.2091 9 8 9C5.79086 9 4 7.20914 4 5C4 4.78671 4.01667 4.57731 4.04883 4.37305C4.34904 6.28512 6.00361 7.74805 8 7.74805C9.99633 7.74805 11.6499 6.28505 11.9502 4.37305Z" fill="#FFD018"/>
<path d="M8.00002 2.58256L8.34568 3.6464H9.46427L8.55931 4.30389L8.90498 5.36773L8.00002 4.71024L7.09506 5.36773L7.44072 4.30389L6.53577 3.6464H7.65436L8.00002 2.58256Z" fill="#FFD018"/>
</svg>
