<svg width="16" height="12" viewBox="0 0 16 12" fill="none" xmlns="http://www.w3.org/2000/svg">
<path d="M0 0H16V12H0V0Z" fill="#2E4E9D"/>
<path d="M16 0L0 11V12L16 3V0Z" fill="#FF8718"/>
<path d="M0 12H1L16 6V3L0 12Z" fill="#F5F8FB"/>
<path d="M3.5 1L3.68629 2.56343L4.45671 1.1903L4.03052 2.70602L5.26777 1.73223L4.29398 2.96948L5.8097 2.54329L4.43657 3.31371L6 3.5L4.43657 3.68629L5.8097 4.45671L4.29398 4.03052L5.26777 5.26777L4.03052 4.29398L4.45671 5.8097L3.68629 4.43657L3.5 6L3.31371 4.43657L2.54329 5.8097L2.96948 4.29398L1.73223 5.26777L2.70602 4.03052L1.1903 4.45671L2.56343 3.68629L1 3.5L2.56343 3.31371L1.1903 2.54329L2.70602 2.96948L1.73223 1.73223L2.96948 2.70602L2.54329 1.1903L3.31371 2.56343L3.5 1Z" fill="#F5F8FB"/>
</svg>
