<svg width="16" height="12" viewBox="0 0 16 12" fill="none" xmlns="http://www.w3.org/2000/svg">
<path d="M0 0H5V12H0V0Z" fill="#A71B14"/>
<path d="M11 0H16V12H11V0Z" fill="#A71B14"/>
<path d="M5 0H11V12H5V0Z" fill="#3273D3"/>
<path d="M1 6H2V11H1V6Z" fill="#FFD018"/>
<path d="M3 6H4V11H3V6Z" fill="#FFD018"/>
<path d="M3 4.5C3 4.77614 2.77614 5 2.5 5C2.22386 5 2 4.77614 2 4.5C2 4.22386 2.22386 4 2.5 4C2.77614 4 3 4.22386 3 4.5Z" fill="#FFD018"/>
<path d="M3 3C3 3.27614 2.77614 3.5 2.5 3.5C2.22386 3.5 2 3.27614 2 3C2 2.72386 2.5 2 2.5 2C2.5 2 3 2.72386 3 3Z" fill="#FFD018"/>
<path d="M3 5.5C3 5.77614 2.77614 6 2.5 6C2.22386 6 2 5.77614 2 5.5C2 5.22386 2.22386 5 2.5 5C2.77614 5 3 5.22386 3 5.5Z" fill="#FFD018"/>
<path d="M3 10.5C3 10.7761 2.77614 11 2.5 11C2.22386 11 2 10.7761 2 10.5C2 10.2239 2.22386 10 2.5 10C2.77614 10 3 10.2239 3 10.5Z" fill="#FFD018"/>
<path d="M3 9C3 9.55228 2.77614 10 2.5 10C2.22386 10 2 9.55228 2 9C2 8.44772 2.22386 8 2.5 8C2.77614 8 3 8.44772 3 9Z" fill="#FFD018"/>
<path d="M2 7H3V8H2V7Z" fill="#FFD018"/>
</svg>
