<svg width="16" height="12" viewBox="0 0 16 12" fill="none" xmlns="http://www.w3.org/2000/svg">
<path d="M0 0H16V12H0V0Z" fill="#A71B14"/>
<path d="M16 0V12H0V0H16ZM1 11H15V1H1V11Z" fill="#B2A46A"/>
<path d="M8 6L5 4C5 6.8 7 7.5 8 7.5V6Z" fill="#B2A46A"/>
<path d="M8 6L11 4C11 6.8 9 7.5 8 7.5V6Z" fill="#B2A46A"/>
<path d="M9 4H7L8 5L9 4Z" fill="#B2A46A"/>
<path d="M9 9H7L8 7L9 9Z" fill="#B2A46A"/>
<path d="M7.25 5.75C7.25 5.47386 7.47386 5.25 7.75 5.25H8.25C8.52614 5.25 8.75 5.47386 8.75 5.75V6.25C8.75 6.52614 8.52614 6.75 8.25 6.75H7.75C7.47386 6.75 7.25 6.52614 7.25 6.25V5.75Z" fill="#3273D3"/>
</svg>
