<svg width="16" height="12" viewBox="0 0 16 12" fill="none" xmlns="http://www.w3.org/2000/svg">
<path d="M0 0H16V12H0V0Z" fill="#F5F8FB"/>
<path d="M0 0H5V12H0V0Z" fill="#2B9F5A"/>
<path d="M11 0H16V12H11V0Z" fill="#DC251C"/>
<path d="M5.7998 6.3C5.7998 6.18955 5.88954 6.09981 6 6.09981C6.11046 6.09981 6.2002 6.18955 6.2002 6.3C6.2002 6.58533 6.33302 7.04273 6.63281 7.42696C6.92718 7.80412 7.37303 8.09981 8 8.09981C8.68121 8.09981 9.12397 7.80106 9.40234 7.42989C9.6871 7.05022 9.7998 6.59313 9.7998 6.3C9.7998 6.18955 9.88954 6.09981 10 6.09981C10.1105 6.09981 10.2002 6.18955 10.2002 6.3C10.2002 6.67354 10.0629 7.21646 9.72266 7.67012C9.37603 8.13228 8.81879 8.5002 8 8.5002C7.22865 8.5002 6.67439 8.12912 6.31836 7.67305C5.96788 7.22398 5.7998 6.68129 5.7998 6.3Z" fill="#717732"/>
<path d="M6.94159 6.5584C7.07035 6.68715 7.30744 6.91395 7.66229 7.04179C8.01008 7.16707 8.48949 7.2037 9.11737 6.91777L9.28241 7.28203C8.56212 7.60993 7.97489 7.58024 7.52655 7.41875C7.08518 7.25974 6.7963 6.97951 6.65839 6.8416L6.94159 6.5584Z" fill="#0C8489"/>
<path d="M8.39998 7.50001C8.39998 7.72092 8.22089 7.90001 7.99998 7.90001C7.77906 7.90001 7.59998 7.72092 7.59998 7.50001C7.59998 7.27909 7.77906 7.10001 7.99998 7.10001C8.22089 7.10001 8.39998 7.27909 8.39998 7.50001Z" fill="#FF8718"/>
<path d="M7.04051 4.2L6.5 4.7C6.68017 4.7 7.04051 4.8 7.04051 5.2C6.6081 6 7.58102 6.53333 8.12153 6.7C8.66204 6.86666 9.20255 6.7 9.20255 6.7C10.0674 5.1 8.84221 4.03333 8.12153 3.7L7.58102 4.2H7.04051Z" fill="#8F4620"/>
</svg>
