<svg width="16" height="12" viewBox="0 0 16 12" fill="none" xmlns="http://www.w3.org/2000/svg">
<path d="M0 0H16V12H0V0Z" fill="#F5F8FB"/>
<path d="M0 0H16V1H0V0Z" fill="#DC251C"/>
<path d="M0 2H16V3H0V2Z" fill="#DC251C"/>
<path d="M0 4H16V5H0V4Z" fill="#DC251C"/>
<path d="M0 6H16V7H0V6Z" fill="#DC251C"/>
<path d="M0 8H16V9H0V8Z" fill="#DC251C"/>
<path d="M0 10H16V11H0V10Z" fill="#DC251C"/>
<path d="M0 0H8V6H0V0Z" fill="#2E4E9D"/>
<path d="M3.89954 0.495075C4.45806 0.495075 4.97222 0.680186 5.38879 0.989216C5.13758 0.887543 4.86299 0.830036 4.57532 0.830036C3.37732 0.830282 2.4064 1.80191 2.40637 2.99996C2.40637 4.19802 3.37731 5.16963 4.57532 5.16988C4.86313 5.16988 5.13748 5.11149 5.38879 5.00972C4.97213 5.31898 4.45829 5.50484 3.89954 5.50484C2.51612 5.50482 1.39465 4.38338 1.39465 2.99996C1.39468 1.61656 2.51614 0.495098 3.89954 0.495075Z" fill="#FFD018"/>
<path d="M5.73113 1.61472L5.91039 2.33094L6.42375 1.8003L6.22089 2.5102L6.93079 2.30734L6.40015 2.8207L7.11637 2.99996L6.40015 3.17922L6.93079 3.69258L6.22089 3.48972L6.42375 4.19961L5.91039 3.66898L5.73113 4.3852L5.55187 3.66898L5.03851 4.19961L5.24137 3.48972L4.53147 3.69258L5.06211 3.17922L4.34589 2.99996L5.06211 2.8207L4.53147 2.30734L5.24137 2.5102L5.03851 1.8003L5.55187 2.33094L5.73113 1.61472Z" fill="#FFD018"/>
</svg>
