<svg width="16" height="12" viewBox="0 0 16 12" fill="none" xmlns="http://www.w3.org/2000/svg">
<path d="M0 0H16V4H0V0Z" fill="#18756E"/>
<path d="M0 8H16V12H0V8Z" fill="#FFD018"/>
<path d="M0 4H16V8H0V4Z" fill="#272727"/>
<path d="M16 8.00001V8.56015H1.48099e-05V8.00001H16ZM16 3.47193L16 4.00001H1.48099e-05L0 3.47193H16Z" fill="#F5F8FB"/>
<path d="M7 6L0 0V12L7 6Z" fill="#DC251C"/>
<path d="M2.67897 4.22232L3.26558 5.53833L4.69846 5.68956L3.62813 6.65413L3.92708 8.06361L2.67897 7.34374L1.43086 8.06361L1.72981 6.65413L0.659485 5.68956L2.09236 5.53833L2.67897 4.22232Z" fill="#FFD018"/>
<path d="M4.50244 5.04907L1.31689 7.53052L0.855957 6.93872L4.0415 4.45728L4.50244 5.04907Z" fill="black"/>
<path d="M0.85553 5.04907L4.04108 7.53052L4.50201 6.93872L1.31647 4.45728L0.85553 5.04907Z" fill="black"/>
</svg>
