<svg width="16" height="12" viewBox="0 0 16 12" fill="none" xmlns="http://www.w3.org/2000/svg">
<path d="M12 0L0 10V12H4L16 2V0H12Z" fill="#DC251C"/>
<path d="M0 0V10L12 0H0Z" fill="#2E4E9D"/>
<path d="M16 12V2L4 12H16Z" fill="#2B9F5A"/>
<path d="M16 2L4 12H5L16 3V2Z" fill="#F5F8FB"/>
<path d="M0 10L12 0H11L0 9V10Z" fill="#F5F8FB"/>
<path d="M2.98689 1L3.25217 1.82465L3.84898 1.19677L3.73018 2.05485L4.54032 1.74809L4.06098 2.46965L4.92398 2.54478L4.17904 2.98691L4.92398 3.42903L4.06098 3.50416L4.54032 4.22572L3.73018 3.91896L3.84898 4.77705L3.25217 4.14916L2.98689 4.97381L2.72162 4.14916L2.12481 4.77705L2.2436 3.91896L1.43347 4.22572L1.91281 3.50416L1.0498 3.42903L1.79475 2.98691L1.0498 2.54478L1.91281 2.46965L1.43347 1.74809L2.2436 2.05485L2.12481 1.19677L2.72162 1.82465L2.98689 1Z" fill="#FFD018"/>
<path d="M4.20102 2.98691C4.20102 3.65744 3.65745 4.20101 2.98692 4.20101C2.3164 4.20101 1.77283 3.65744 1.77283 2.98691C1.77283 2.31638 2.3164 1.77281 2.98692 1.77281C3.65745 1.77281 4.20102 2.31638 4.20102 2.98691Z" fill="#2E4E9D"/>
<path d="M3.8616 2.9869C3.8616 3.46998 3.46999 3.86158 2.98692 3.86158C2.50385 3.86158 2.11224 3.46998 2.11224 2.9869C2.11224 2.50383 2.50385 2.11223 2.98692 2.11223C3.46999 2.11223 3.8616 2.50383 3.8616 2.9869Z" fill="#FFD018"/>
</svg>
