<svg width="16" height="12" viewBox="0 0 16 12" fill="none" xmlns="http://www.w3.org/2000/svg">
<path d="M13 6L5 0V12H13L8 6H13Z" fill="#A71B14"/>
<path d="M13 6H8L13 12H5V0L13 6ZM5.40039 11.5996H12.1455L7.14551 5.59961H11.7988L5.40039 0.800781V11.5996Z" fill="#2E4E9D"/>
<path d="M7.49999 8L7.75366 8.38858L8.15082 8.14855L8.21077 8.60871L8.67274 8.56477L8.52709 9.00537L8.96238 9.16622L8.63999 9.5L8.96238 9.83378L8.52709 9.99463L8.67274 10.4352L8.21077 10.3913L8.15082 10.8515L7.75366 10.6114L7.49999 11L7.24632 10.6114L6.84916 10.8515L6.78921 10.3913L6.32724 10.4352L6.47289 9.99463L6.0376 9.83378L6.35999 9.5L6.0376 9.16622L6.47289 9.00537L6.32724 8.56477L6.78921 8.60871L6.84916 8.14855L7.24632 8.38858L7.49999 8Z" fill="#F5F8FB"/>
<path d="M6.99998 3.41991L7.13359 3.62457L7.34277 3.49815L7.37434 3.74051L7.61766 3.71737L7.54095 3.94944L7.77022 4.03415L7.60041 4.20996L7.77022 4.38576L7.54095 4.47048L7.61766 4.70254L7.37434 4.6794L7.34277 4.92176L7.13359 4.79534L6.99998 5L6.86637 4.79534L6.65719 4.92176L6.62561 4.6794L6.38229 4.70254L6.459 4.47048L6.22974 4.38576L6.39954 4.20996L6.22974 4.03415L6.459 3.94944L6.38229 3.71737L6.62561 3.74051L6.65719 3.49815L6.86637 3.62457L6.99998 3.41991Z" fill="#F5F8FB"/>
<path d="M5.65316 3.8606C5.65835 3.91989 5.67093 3.97825 5.69027 4.03345C5.75646 4.22244 5.89659 4.37458 6.06136 4.4856C6.33388 4.66786 6.66978 4.74964 6.99984 4.75024C7.32994 4.74966 7.66575 4.66788 7.93831 4.4856C8.10314 4.37459 8.24317 4.22247 8.30941 4.03345C8.32874 3.97825 8.34132 3.91989 8.34652 3.8606H8.44027C8.4455 3.92809 8.44141 3.99728 8.42855 4.0647C8.38485 4.29633 8.23937 4.50033 8.05941 4.64673C7.76085 4.88886 7.37619 4.99966 6.99984 5.00024C6.62363 4.99963 6.23972 4.88869 5.94124 4.64673C5.76119 4.50031 5.61482 4.29642 5.57112 4.0647C5.55826 3.99728 5.55417 3.92809 5.55941 3.8606H5.65316Z" fill="#F5F8FB"/>
</svg>
