<svg width="16" height="12" viewBox="0 0 16 12" fill="none" xmlns="http://www.w3.org/2000/svg">
<path d="M0 0H16V12H0V0Z" fill="#2E4E9D"/>
<path d="M16 5.5V6.5H0V5.5H16Z" fill="#FFD018"/>
<path d="M5 7L5.31058 7.84089L6 7.26795L5.84853 8.15147L6.73205 8L6.15911 8.68942L7 9L6.15911 9.31058L6.73205 10L5.84853 9.84853L6 10.7321L5.31058 10.1591L5 11L4.68942 10.1591L4 10.7321L4.15147 9.84853L3.26795 10L3.84089 9.31058L3 9L3.84089 8.68942L3.26795 8L4.15147 8.15147L4 7.26795L4.68942 7.84089L5 7Z" fill="#F5F8FB"/>
</svg>
