<svg width="16" height="12" viewBox="0 0 16 12" fill="none" xmlns="http://www.w3.org/2000/svg">
<path d="M0 0H16V12H0V0Z" fill="#2E4E9D"/>
<mask id="mask0_2251_2272" style="mask-type:alpha" maskUnits="userSpaceOnUse" x="0" y="0" width="9" height="6">
<path d="M0 0H9V6H0V0Z" fill="#C4C4C4"/>
</mask>
<g mask="url(#mask0_2251_2272)">
<path d="M10.647 -0.299057L-0.152954 7.70045L-1.64709 6.29933L9.15291 -1.70091L10.647 -0.299057Z" fill="#F5F8FB"/>
<path d="M10.1241 -0.78978L-0.675903 7.21046L-1.12415 6.79005L9.67585 -1.21019L10.1241 -0.78978Z" fill="#DC251C"/>
<path d="M-1.64711 -0.299057L9.15289 7.70045L10.647 6.29933L-0.152966 -1.70091L-1.64711 -0.299057Z" fill="#F5F8FB"/>
<path d="M-1.12416 -0.78978L9.67584 7.21046L10.1241 6.79005L-0.675916 -1.21019L-1.12416 -0.78978Z" fill="#DC251C"/>
<path d="M5.85 0V1.875H9V4.125H5.85V6H3.15V4.125H0V1.875H3.15V0H5.85Z" fill="#F5F8FB"/>
<path d="M5.4 0V2.25H9V3.75H5.4V6H3.6V3.75H0V2.25H3.6V0H5.4Z" fill="#DC251C"/>
</g>
<path d="M13 3.5C13 3.77614 12.7761 4 12.5 4C12.2239 4 12 3.77614 12 3.5C12 3.22386 12.2239 3 12.5 3C12.7761 3 13 3.22386 13 3.5Z" fill="#DC251C"/>
<path d="M12.875 3.5C12.875 3.29289 12.7071 3.125 12.5 3.125C12.2929 3.125 12.125 3.29289 12.125 3.5C12.125 3.70711 12.2929 3.875 12.5 3.875C12.7071 3.875 12.875 3.70711 12.875 3.5ZM13.125 3.5C13.125 3.84518 12.8452 4.125 12.5 4.125C12.1548 4.125 11.875 3.84518 11.875 3.5C11.875 3.15482 12.1548 2.875 12.5 2.875C12.8452 2.875 13.125 3.15482 13.125 3.5Z" fill="#F5F8FB"/>
<path d="M11 5.5C11 5.77614 10.7761 6 10.5 6C10.2239 6 10 5.77614 10 5.5C10 5.22386 10.2239 5 10.5 5C10.7761 5 11 5.22386 11 5.5Z" fill="#DC251C"/>
<path d="M10.875 5.5C10.875 5.29289 10.7071 5.125 10.5 5.125C10.2929 5.125 10.125 5.29289 10.125 5.5C10.125 5.70711 10.2929 5.875 10.5 5.875C10.7071 5.875 10.875 5.70711 10.875 5.5ZM11.125 5.5C11.125 5.84518 10.8452 6.125 10.5 6.125C10.1548 6.125 9.875 5.84518 9.875 5.5C9.875 5.15482 10.1548 4.875 10.5 4.875C10.8452 4.875 11.125 5.15482 11.125 5.5Z" fill="#F5F8FB"/>
<path d="M15 5.5C15 5.77614 14.7761 6 14.5 6C14.2239 6 14 5.77614 14 5.5C14 5.22386 14.2239 5 14.5 5C14.7761 5 15 5.22386 15 5.5Z" fill="#DC251C"/>
<path d="M14.875 5.5C14.875 5.29289 14.7071 5.125 14.5 5.125C14.2929 5.125 14.125 5.29289 14.125 5.5C14.125 5.70711 14.2929 5.875 14.5 5.875C14.7071 5.875 14.875 5.70711 14.875 5.5ZM15.125 5.5C15.125 5.84518 14.8452 6.125 14.5 6.125C14.1548 6.125 13.875 5.84518 13.875 5.5C13.875 5.15482 14.1548 4.875 14.5 4.875C14.8452 4.875 15.125 5.15482 15.125 5.5Z" fill="#F5F8FB"/>
<path d="M13 9.5C13 9.77614 12.7761 10 12.5 10C12.2239 10 12 9.77614 12 9.5C12 9.22386 12.2239 9 12.5 9C12.7761 9 13 9.22386 13 9.5Z" fill="#DC251C"/>
<path d="M12.875 9.5C12.875 9.29289 12.7071 9.125 12.5 9.125C12.2929 9.125 12.125 9.29289 12.125 9.5C12.125 9.70711 12.2929 9.875 12.5 9.875C12.7071 9.875 12.875 9.70711 12.875 9.5ZM13.125 9.5C13.125 9.84518 12.8452 10.125 12.5 10.125C12.1548 10.125 11.875 9.84518 11.875 9.5C11.875 9.15482 12.1548 8.875 12.5 8.875C12.8452 8.875 13.125 9.15482 13.125 9.5Z" fill="#F5F8FB"/>
</svg>
