<svg width="16" height="12" viewBox="0 0 16 12" fill="none" xmlns="http://www.w3.org/2000/svg">
<path d="M0 0H4V12H0V0Z" fill="#DC251C"/>
<path d="M4 4H16V8H4V4Z" fill="#DC251C"/>
<path d="M4 0H16V4H4V0Z" fill="#F5F8FB"/>
<path d="M4 8H16V12H4V8Z" fill="#2B9F5A"/>
<path fill-rule="evenodd" clip-rule="evenodd" d="M3.58887 0.588867L2.60059 1.57715L2.45117 1.875H3.5V2.125H2.32617L2.31836 2.14062L3.58887 3.41113L3.41113 3.58887L2.2002 2.37793L2.11133 2.55566L2 2.7793L1.88867 2.55566L1.7998 2.37793L0.588867 3.58887L0.411133 3.41113L1.28711 2.53223L0.444336 2.11133L0.5 1.875H1.54785L1.39941 1.57715L0.411133 0.588867L0.588867 0.411133L1.55273 1.375H2.44727L3.41113 0.411133L3.58887 0.588867ZM1.02832 2.125L1.47266 2.34668L1.68066 2.13965L1.67285 2.125H1.02832Z" fill="#F5F8FB"/>
</svg>
