<svg width="16" height="12" viewBox="0 0 16 12" fill="none" xmlns="http://www.w3.org/2000/svg">
<g clip-path="url(#clip0_2251_2333)">
<path d="M4 0H16V12H4V0Z" fill="#1A5C35"/>
<path d="M0 0H4V12H0V0Z" fill="#F5F8FB"/>
<path fill-rule="evenodd" clip-rule="evenodd" d="M13.5 7.33028C12.9047 7.82847 12.1377 8.12837 11.3007 8.12837C9.40687 8.12837 7.87162 6.59312 7.87162 4.6993C7.87162 3.8623 8.1715 3.09534 8.66969 2.5C7.39119 3.07004 6.5 4.35211 6.5 5.84232C6.5 7.8624 8.1376 9.5 10.1577 9.5C11.6479 9.5 12.93 8.60879 13.5 7.33028Z" fill="#F5F8FB"/>
<path d="M11.9999 2.5L12.3967 3.45391L13.4265 3.53647L12.6419 4.20859L12.8816 5.21353L11.9999 4.675L11.1183 5.21353L11.358 4.20859L10.5734 3.53647L11.6032 3.45391L11.9999 2.5Z" fill="#F5F8FB"/>
</g>
<defs>
<clipPath id="clip0_2251_2333">
<rect width="16" height="12" fill="white"/>
</clipPath>
</defs>
</svg>
