<svg width="16" height="12" viewBox="0 0 16 12" fill="none" xmlns="http://www.w3.org/2000/svg">
<path d="M0 12V0H2L14 12H0Z" fill="#272727"/>
<path d="M16 0V12H14L2 0H16Z" fill="#DC251C"/>
<path d="M4.00001 4L4.22452 4.69098H4.95106L4.36328 5.11803L4.58779 5.80902L4.00001 5.38197L3.41222 5.80902L3.63674 5.11803L3.04895 4.69098H3.77549L4.00001 4Z" fill="#F5F8FB"/>
<path d="M2.00001 7L2.22452 7.69098H2.95106L2.36328 8.11803L2.58779 8.80902L2.00001 8.38197L1.41222 8.80902L1.63674 8.11803L1.04895 7.69098H1.77549L2.00001 7Z" fill="#F5F8FB"/>
<path d="M6.00001 7L6.22452 7.69098H6.95106L6.36328 8.11803L6.58779 8.80902L6.00001 8.38197L5.41222 8.80902L5.63674 8.11803L5.04895 7.69098H5.77549L6.00001 7Z" fill="#F5F8FB"/>
<path d="M4.00001 10L4.22452 10.691H4.95106L4.36328 11.118L4.58779 11.809L4.00001 11.382L3.41222 11.809L3.63674 11.118L3.04895 10.691H3.77549L4.00001 10Z" fill="#F5F8FB"/>
<path d="M5.13891 9.5C5.13891 9.67468 4.99731 9.81628 4.82263 9.81628C4.64795 9.81628 4.50635 9.67468 4.50635 9.5C4.50635 9.32532 4.64795 9.18372 4.82263 9.18372C4.99731 9.18372 5.13891 9.32532 5.13891 9.5Z" fill="#F5F8FB"/>
<path d="M9.34961 4.58247C9.58398 4.07172 10.2918 3.11151 11.248 3.35667L10.2988 2.57353L11.5644 3.08427C11.3652 2.58488 11.2339 1.51117 12.3026 1.21153V2.57353C12.3026 2.60758 13.744 2.16493 13.9549 4.34412H13.5946H13.2342H12.5135L12.7948 5.74016C12.08 5.53586 10.6785 4.97063 10.791 4.34412L9.34961 4.58247Z" fill="#FFD018"/>
<path d="M12.4277 2.44005C12.4575 2.43768 12.4912 2.43394 12.5283 2.43321C12.6779 2.43034 12.884 2.44756 13.0986 2.53966C13.5398 2.72901 13.9707 3.2124 14.0791 4.33165L14.0928 4.46935H13.8662C14.1062 4.77161 14.3477 5.17917 14.4307 5.60411C14.4832 5.87357 14.4733 6.15538 14.3535 6.42052C14.2333 6.68653 14.0086 6.92353 13.6533 7.11095L13.5947 6.99962L13.5361 6.88927C13.8521 6.72262 14.0328 6.52403 14.126 6.31798C14.2194 6.11115 14.2308 5.88398 14.1855 5.65196C14.098 5.2032 13.8019 4.75766 13.5391 4.46935C13.6868 4.64521 13.8205 4.87683 13.8721 5.14806C13.9518 5.5677 13.8317 6.05742 13.3203 6.54552L13.1475 6.36485C13.6063 5.92683 13.6887 5.51983 13.627 5.19493C13.5668 4.87853 13.3649 4.62003 13.1865 4.46935H12.666L12.917 5.71544L12.958 5.91661L12.7607 5.85997C12.3974 5.75613 11.8573 5.56111 11.4199 5.30919C11.2019 5.1836 11.002 5.03941 10.8623 4.88048C10.7614 4.76561 10.6852 4.63405 10.665 4.49083L9.37012 4.70567L9.1377 4.74376L9.23633 4.52989C9.35939 4.26189 9.60535 3.87805 9.94824 3.59044C10.1977 3.38129 10.5054 3.21867 10.8574 3.19591L10.2197 2.66954L10.3457 2.45763L11.3662 2.86876C11.3067 2.62715 11.2772 2.33234 11.3359 2.04747C11.3775 1.84599 11.4632 1.64697 11.6152 1.47716C11.7677 1.30686 11.9814 1.17198 12.2686 1.09142L12.4277 1.04649V2.44005ZM12.1777 1.38634C12.0137 1.45376 11.892 1.54342 11.8018 1.64415C11.6843 1.77539 11.6144 1.93165 11.5801 2.09825C11.5107 2.43534 11.587 2.80282 11.6807 3.0377L11.7139 3.12071L11.6455 3.17931L11.2803 3.49376L11.2168 3.47813C10.7908 3.36892 10.4153 3.52444 10.1084 3.78185C9.88347 3.97052 9.70272 4.20846 9.57812 4.41759L10.7705 4.22032L10.9453 4.192L10.9141 4.36583C10.8954 4.46966 10.9357 4.58558 11.0498 4.71544C11.1636 4.845 11.3374 4.97287 11.5449 5.09239C11.8859 5.28879 12.2987 5.44979 12.6299 5.55724L12.3906 4.36876L12.3613 4.21935H13.8135C13.6913 3.2631 13.3175 2.90543 13 2.76915C12.8282 2.69546 12.6603 2.68077 12.5332 2.68321C12.47 2.68444 12.4172 2.68955 12.3789 2.69395C12.3618 2.69593 12.3426 2.69873 12.3291 2.69981C12.3234 2.70026 12.3104 2.70089 12.2969 2.69981C12.2916 2.69937 12.2732 2.69806 12.2529 2.68907C12.2312 2.67933 12.1779 2.6451 12.1777 2.57384V1.38634ZM11.2451 3.19298L11.3271 3.12267L11.001 2.99083L11.2451 3.19298Z" fill="#FFD018"/>
</svg>
