<svg width="16" height="12" viewBox="0 0 16 12" fill="none" xmlns="http://www.w3.org/2000/svg">
<g clip-path="url(#clip0_2251_2372)">
<path d="M0 0H16V6H0V0Z" fill="#2E4E9D"/>
<path d="M0 6H16V12H0V6Z" fill="#DC251C"/>
<path d="M8 6L0 0V12L8 6Z" fill="#F5F8FB"/>
<path d="M2 2.5C2 2.77614 1.77614 3 1.5 3C1.22386 3 1 2.77614 1 2.5C1 2.22386 1.22386 2 1.5 2C1.77614 2 2 2.22386 2 2.5Z" fill="#FFD018"/>
<path d="M2 9.5C2 9.77614 1.77614 10 1.5 10C1.22386 10 1 9.77614 1 9.5C1 9.22386 1.22386 9 1.5 9C1.77614 9 2 9.22386 2 9.5Z" fill="#FFD018"/>
<path d="M7 6C7 6.27614 6.77614 6.5 6.5 6.5C6.22386 6.5 6 6.27614 6 6C6 5.72386 6.22386 5.5 6.5 5.5C6.77614 5.5 7 5.72386 7 6Z" fill="#FFD018"/>
<path d="M3 4L3.29234 5.29422L4.41421 4.58579L3.70578 5.70766L5 6L3.70578 6.29234L4.41421 7.41421L3.29234 6.70578L3 8L2.70766 6.70578L1.58579 7.41421L2.29422 6.29234L1 6L2.29422 5.70766L1.58579 4.58579L2.70766 5.29422L3 4Z" fill="#FFD018"/>
<path d="M4 6C4 6.55228 3.55228 7 3 7C2.44772 7 2 6.55228 2 6C2 5.44772 2.44772 5 3 5C3.55228 5 4 5.44772 4 6Z" fill="#FFD018"/>
</g>
<defs>
<clipPath id="clip0_2251_2372">
<rect width="16" height="12" fill="white"/>
</clipPath>
</defs>
</svg>
