<svg width="16" height="12" viewBox="0 0 16 12" fill="none" xmlns="http://www.w3.org/2000/svg">
<g clip-path="url(#clip0_2251_2384)">
<path d="M0 0H7V12H0V0Z" fill="#2B9F5A"/>
<path d="M7 0H16V12H7V0Z" fill="#DC251C"/>
<path d="M9.5 6C9.5 4.61929 8.38071 3.5 7 3.5C5.61929 3.5 4.5 4.61929 4.5 6C4.5 7.38071 5.61929 8.5 7 8.5V9C5.34315 9 4 7.65685 4 6C4 4.34315 5.34315 3 7 3C8.65685 3 10 4.34315 10 6C10 7.65685 8.65685 9 7 9V8.5C8.38071 8.5 9.5 7.38071 9.5 6Z" fill="#FFD018"/>
<path d="M5 5C5 4.44772 5.44772 4 6 4H8C8.55228 4 9 4.44772 9 5V6C9 7.10457 8.10457 8 7 8C5.89543 8 5 7.10457 5 6V5Z" fill="#DC251C"/>
<path d="M6 5H8V6C8 6.55228 7.55228 7 7 7C6.44772 7 6 6.55228 6 6V5Z" fill="#F5F8FB"/>
</g>
<defs>
<clipPath id="clip0_2251_2384">
<rect width="16" height="12" fill="white"/>
</clipPath>
</defs>
</svg>
