<svg width="16" height="12" viewBox="0 0 16 12" fill="none" xmlns="http://www.w3.org/2000/svg">
<g clip-path="url(#clip0_2251_2363)">
<rect width="16" height="12" fill="#F5F8FB"/>
<path d="M0 0H16V4H0V0Z" fill="#DC251C"/>
<path d="M0 4H16V8H0V4Z" fill="#F5F8FB"/>
<path d="M0 8H16V12H0V8Z" fill="#2E4E9D"/>
<path d="M8.75 6C8.75 5.58579 8.41421 5.25 8 5.25C7.58579 5.25 7.25 5.58579 7.25 6C7.25 6.41421 7.58579 6.75 8 6.75V7C7.44772 7 7 6.55228 7 6C7 5.44772 7.44772 5 8 5C8.55228 5 9 5.44772 9 6C9 6.55228 8.55228 7 8 7V6.75C8.41421 6.75 8.75 6.41421 8.75 6Z" fill="#2B9F5A"/>
</g>
<defs>
<clipPath id="clip0_2251_2363">
<rect width="16" height="12" fill="white"/>
</clipPath>
</defs>
</svg>
