<svg width="16" height="12" viewBox="0 0 16 12" fill="none" xmlns="http://www.w3.org/2000/svg">
<rect width="16" height="12" fill="#F5F8FB"/>
<path d="M0 0H16V4H0V0Z" fill="#DC251C"/>
<path d="M0 4H16V8H0V4Z" fill="#2E4E9D"/>
<path d="M0 8H16V12H0V8Z" fill="#F5F8FB"/>
<path d="M4 4H8V8H4V4Z" fill="#DC251C"/>
<path d="M4 8H8C8 9.10457 7.10457 10 6 10C4.89543 10 4 9.10457 4 8Z" fill="#DC251C"/>
<path d="M4.64959 7.85199C4.25508 6.76239 4.48521 5.28455 4.64959 4.68183C4.88442 5.43327 5.22883 5.91075 5.63586 5.83248C5.78459 6.0673 5.9928 6.55105 5.63586 6.60741C5.27893 6.66376 4.82963 7.46061 4.64959 7.85199Z" fill="#F5F8FB"/>
<path d="M5.86765 4.31807C5.70528 3.9638 5.27105 4.24427 5.07423 4.42878V4.94543C5.24029 4.82242 5.59088 4.5764 5.66468 4.5764C5.93039 5.00448 5.77539 5.62814 5.66468 5.88646V6.60608L6.03372 7.69473V5.66504C6.04602 5.36367 6.03003 4.67235 5.86765 4.31807Z" fill="#F5F8FB"/>
<path d="M7.42432 7.85199C7.81883 6.76239 7.5887 5.28455 7.42432 4.68183C7.1895 5.43327 6.84508 5.91075 6.43805 5.83248C6.28933 6.0673 6.08111 6.55105 6.43805 6.60741C6.79499 6.66376 7.24429 7.46061 7.42432 7.85199Z" fill="#F5F8FB"/>
<path d="M6.20626 4.31807C6.36864 3.9638 6.80287 4.24427 6.99968 4.42878V4.94543C6.83362 4.82242 6.48304 4.5764 6.40923 4.5764C6.14353 5.00448 6.29852 5.62814 6.40923 5.88646V6.60608L6.0402 7.69473V5.66504C6.0279 5.36367 6.04389 4.67235 6.20626 4.31807Z" fill="#F5F8FB"/>
<path d="M6.61057 9.02565C6.61057 9.36285 6.00002 9.52578 6.00002 9.52578C6.00002 9.52578 5.38947 9.36285 5.38947 9.02565C5.38947 8.68845 5.66282 8 6.00002 8C6.33721 8 6.61057 8.68845 6.61057 9.02565Z" fill="#F5F8FB"/>
<path d="M5.17188 8.52384C5.17188 8.65586 5.06486 8.76289 4.93284 8.76289C4.80081 8.76289 4.69379 8.65586 4.69379 8.52384C4.69379 8.39182 4.80081 8.28479 4.93284 8.28479C5.06486 8.28479 5.17188 8.39182 5.17188 8.52384Z" fill="#FFD018"/>
<path d="M5.71241 7.4352C5.71241 7.56722 5.60539 7.67425 5.47336 7.67425C5.34134 7.67425 5.23431 7.56722 5.23431 7.4352C5.23431 7.30318 5.34134 7.19615 5.47336 7.19615C5.60539 7.19615 5.71241 7.30318 5.71241 7.4352Z" fill="#F5F8FB"/>
<path d="M6.84962 7.4352C6.84962 7.56722 6.74259 7.67425 6.61057 7.67425C6.47855 7.67425 6.37152 7.56722 6.37152 7.4352C6.37152 7.30318 6.47855 7.19615 6.61057 7.19615C6.74259 7.19615 6.84962 7.30318 6.84962 7.4352Z" fill="#F5F8FB"/>
<path d="M7.38007 8.52384C7.38007 8.65586 7.27305 8.76289 7.14103 8.76289C7.009 8.76289 6.90198 8.65586 6.90198 8.52384C6.90198 8.39182 7.009 8.28479 7.14103 8.28479C7.27305 8.28479 7.38007 8.39182 7.38007 8.52384Z" fill="#FFD018"/>
<path d="M5.52659 2.0694C5.63624 2.02154 5.74352 2.02947 5.83519 2.07135C5.92155 2.11083 5.9896 2.1778 6.03929 2.24225C6.08972 2.30775 6.12883 2.38043 6.1555 2.4444L5.87816 2.55964C5.85977 2.51553 5.83299 2.46635 5.80101 2.42487C5.76824 2.38244 5.7362 2.35668 5.71019 2.34479C5.68956 2.33538 5.6716 2.33302 5.64671 2.34382C5.61555 2.35742 5.56341 2.39628 5.4973 2.49518C5.38589 2.66184 5.39418 2.86825 5.47484 3.08405C5.5552 3.29892 5.69817 3.4951 5.80394 3.60749L5.58519 3.81257C5.45908 3.67849 5.291 3.44918 5.19359 3.18854C5.0965 2.92861 5.05986 2.60866 5.2473 2.32819C5.33066 2.20349 5.42302 2.11463 5.52659 2.0694Z" fill="#FFD018"/>
<path d="M4.82612 2.34279C4.92537 2.30295 5.02219 2.3098 5.10541 2.34475C5.25737 2.40866 5.35479 2.56075 5.40033 2.66115L5.26362 2.72365L5.1269 2.78518C5.0923 2.70891 5.03664 2.64107 4.9892 2.62111C4.97294 2.61431 4.95828 2.61326 4.93842 2.62111C4.9137 2.63105 4.86991 2.66054 4.81342 2.7383C4.72412 2.86141 4.72783 3.01448 4.79682 3.18459C4.86599 3.35486 4.99047 3.51212 5.08295 3.60256L4.97748 3.70998L4.87299 3.8174C4.7596 3.70653 4.60812 3.51607 4.51948 3.29787C4.43086 3.07973 4.39457 2.80352 4.57026 2.56154C4.64645 2.45666 4.73123 2.38091 4.82612 2.34279Z" fill="#FFD018"/>
<path d="M6.47341 2.0694C6.36376 2.02154 6.25648 2.02947 6.16481 2.07135C6.07845 2.11083 6.0104 2.1778 5.96071 2.24225C5.91028 2.30775 5.87117 2.38043 5.8445 2.4444L6.12184 2.55964C6.14023 2.51553 6.16701 2.46635 6.19899 2.42487C6.23176 2.38244 6.2638 2.35668 6.28981 2.34479C6.31044 2.33538 6.3284 2.33302 6.35329 2.34382C6.38445 2.35742 6.43659 2.39628 6.5027 2.49518C6.61411 2.66184 6.60582 2.86825 6.52516 3.08405C6.4448 3.29892 6.30183 3.4951 6.19606 3.60749L6.41481 3.81257C6.54092 3.67849 6.709 3.44918 6.80641 3.18854C6.9035 2.92861 6.94014 2.60866 6.7527 2.32819C6.66934 2.20349 6.57698 2.11463 6.47341 2.0694Z" fill="#FFD018"/>
<path d="M6.16705 1.82034V3.40237H5.86627V1.82034H6.16705Z" fill="#FFD018"/>
<path d="M7.17382 2.34279C7.07457 2.30295 6.97775 2.3098 6.89453 2.34475C6.74257 2.40866 6.64515 2.56075 6.5996 2.66115L6.73632 2.72365L6.87304 2.78518C6.90764 2.70891 6.9633 2.64107 7.01074 2.62111C7.027 2.61431 7.04166 2.61326 7.06152 2.62111C7.08624 2.63105 7.13003 2.66054 7.18652 2.7383C7.27582 2.86141 7.27211 3.01448 7.20312 3.18459C7.13395 3.35486 7.00947 3.51212 6.91699 3.60256L7.02246 3.70998L7.12695 3.8174C7.24033 3.70653 7.39182 3.51607 7.48046 3.29787C7.56908 3.07973 7.60537 2.80352 7.42968 2.56154C7.35349 2.45666 7.2687 2.38091 7.17382 2.34279Z" fill="#FFD018"/>
<path d="M4.77411 3.25604H7.2473V4.00001H4.77411V3.25604Z" fill="#FFD018"/>
</svg>
