<svg width="16" height="12" viewBox="0 0 16 12" fill="none" xmlns="http://www.w3.org/2000/svg">
<path d="M0 0H16V7H0V0Z" fill="#2695CE"/>
<path d="M0 7H16V10H0V7Z" fill="#FFD018"/>
<path d="M0 10H16V12H0V10Z" fill="#2B9F5A"/>
<path d="M12.5 1L12.8129 1.52462L13.2725 1.12236L13.408 1.71799L13.9695 1.47746L13.9142 2.08579L14.5225 2.03054L14.282 2.59202L14.8776 2.72746L14.4754 3.18713L15 3.5L14.4754 3.81287L14.8776 4.27254L14.282 4.40798L14.5225 4.96946L13.9142 4.91421L13.9695 5.52254L13.408 5.28201L13.2725 5.87764L12.8129 5.47538L12.5 6L12.1871 5.47538L11.7275 5.87764L11.592 5.28201L11.0305 5.52254L11.0858 4.91421L10.4775 4.96946L10.718 4.40798L10.1224 4.27254L10.5246 3.81287L10 3.5L10.5246 3.18713L10.1224 2.72746L10.718 2.59202L10.4775 2.03054L11.0858 2.08579L11.0305 1.47746L11.592 1.71799L11.7275 1.12236L12.1871 1.52462L12.5 1Z" fill="#FFD018"/>
<path d="M14 3.5C14 4.32843 13.3284 5 12.5 5C11.6716 5 11 4.32843 11 3.5C11 2.67157 11.6716 2 12.5 2C13.3284 2 14 2.67157 14 3.5Z" fill="#FFD018"/>
<path d="M13.5 3.5C13.5 2.94772 13.0523 2.5 12.5 2.5C11.9477 2.5 11.5 2.94772 11.5 3.5C11.5 4.05228 11.9477 4.5 12.5 4.5V5C11.6716 5 11 4.32843 11 3.5C11 2.67157 11.6716 2 12.5 2C13.3284 2 14 2.67157 14 3.5C14 4.32843 13.3284 5 12.5 5V4.5C13.0523 4.5 13.5 4.05228 13.5 3.5Z" fill="#2695CE"/>
</svg>
