<svg width="16" height="12" viewBox="0 0 16 12" fill="none" xmlns="http://www.w3.org/2000/svg">
<rect width="16" height="12" fill="#1A5C35"/>
<g opacity="0.4">
<path d="M3.84235 5.89459V4.17194H4.84235V4.461L5.31989 3.86041L5.39508 3.78424C5.4774 3.71707 5.58007 3.67797 5.68805 3.67291C5.83199 3.6662 5.97196 3.72142 6.07184 3.82526C6.16486 3.92217 6.27641 4.04962 6.39117 4.1944C6.39343 4.19192 6.39574 4.18905 6.39801 4.18658C6.68663 3.87388 7.10043 3.672 7.63531 3.67194C8.19753 3.67194 8.66257 3.75652 9.00543 3.94342C9.0874 3.90867 9.17066 3.8765 9.2525 3.85651C9.32201 3.83955 9.411 3.82461 9.50739 3.82916C9.57863 3.83255 9.67722 3.84812 9.77692 3.90045L9.87555 3.96588L9.9566 4.04401C10.0272 4.12459 10.0702 4.21133 10.0972 4.28033C10.1346 4.37594 10.1558 4.47479 10.1685 4.56354C10.1938 4.74095 10.1945 4.94058 10.1851 5.12701C10.181 5.20855 10.1733 5.29142 10.1656 5.37408C10.4037 5.29013 10.6438 5.19238 10.8394 5.08405C10.9632 5.01549 11.0516 4.95303 11.107 4.90143C11.1294 4.88057 11.141 4.86551 11.147 4.85748C11.1546 4.82064 11.158 4.79442 11.1578 4.77643L11.1539 4.74518C11.1542 4.74561 11.1524 4.74319 11.1461 4.73834C11.1316 4.72725 11.0994 4.70918 11.0425 4.6944C10.9868 4.67993 10.9215 4.67195 10.855 4.67194V3.67194C11.1114 3.67197 11.4706 3.72543 11.7564 3.94537C11.9083 4.06233 12.0375 4.22617 12.106 4.43951C12.1736 4.64984 12.1715 4.87514 12.1187 5.10162C12.074 5.29312 11.9666 5.44473 11.857 5.56158L11.3511 6.30865L11.0416 6.09869C10.5646 6.31805 10.02 6.48114 9.67438 6.56256L9.61188 6.57233C9.46591 6.58767 9.31953 6.53812 9.21246 6.43463C9.09657 6.32257 9.04299 6.16245 9.06598 6.00397C8.93361 6.11736 8.78567 6.21502 8.6275 6.28815C8.29496 6.44186 7.88029 6.50976 7.47028 6.36627C7.35832 6.32707 7.22517 6.24685 7.13727 6.09674C7.10257 6.03745 7.08302 5.97736 7.07086 5.91998C7.06135 5.96856 7.04969 6.01773 7.0318 6.06647C7.00965 6.12677 6.97071 6.21888 6.89899 6.30182C6.8272 6.38481 6.64091 6.54184 6.37164 6.48248C6.15014 6.43356 6.04389 6.26776 6.01129 6.21198C5.96776 6.13735 5.94288 6.06095 5.92828 6.00397C5.87724 5.80458 5.87222 5.53371 5.91364 5.25983C5.91096 5.25521 5.90953 5.24983 5.9068 5.24518C5.85064 5.14967 5.78515 5.05552 5.7193 4.9649L4.73395 6.20514L4.34332 5.89459H4.34235L4.73395 6.20514C4.60164 6.37159 4.37806 6.43634 4.17731 6.36627C3.97681 6.29617 3.8425 6.10699 3.84235 5.89459ZM7.63531 4.67194C7.37516 4.67199 7.22971 4.76091 7.13336 4.8653C7.06476 4.93965 7.01024 5.0362 6.9693 5.14557C6.99434 5.209 7.01746 5.27303 7.03571 5.33795C7.05888 5.42052 7.075 5.51319 7.08356 5.61041C7.12703 5.45334 7.21535 5.32199 7.28082 5.23737C7.42301 5.05362 7.63172 4.85714 7.85114 4.6778C7.78491 4.67438 7.71296 4.67194 7.63531 4.67194Z" fill="#F5F8FB"/>
<path d="M10.8176 7.32806V8.32806H5.11938V7.32806H10.8176Z" fill="#F5F8FB"/>
</g>
</svg>
