<svg width="16" height="12" viewBox="0 0 16 12" fill="none" xmlns="http://www.w3.org/2000/svg">
<path d="M0 0H16V4H0V0Z" fill="#F5F8FB"/>
<path d="M0 4H16V8H0V4Z" fill="#2E4E9D"/>
<path d="M0 8H16V12H0V8Z" fill="#DC251C"/>
<path d="M3 3H6C6 3 6 4.33333 6 5C6 6.33333 4.5 7 4.5 7C4.5 7 3 6.33333 3 5C3 4.33333 3 3 3 3Z" fill="#2E4E9D"/>
<path d="M3 3C3 3 3 4.33333 3 5C3 6.33305 4.49937 6.99972 4.5 7C4.5 7 6 6.33333 6 5V3H3ZM6.5 5C6.5 5.86876 6.00956 6.494 5.58203 6.87402C5.36488 7.06701 5.14954 7.20969 4.98926 7.30469C4.90872 7.35242 4.84049 7.38893 4.79102 7.41406C4.76634 7.42659 4.74629 7.4373 4.73145 7.44434C4.72412 7.44781 4.71755 7.45001 4.71289 7.45215L4.70508 7.45605L4.7041 7.45703L4.5 7.54688L4.29688 7.45703L4.28711 7.45215C4.28245 7.45001 4.27588 7.44781 4.26855 7.44434C4.25371 7.4373 4.23366 7.42659 4.20898 7.41406C4.15951 7.38893 4.09128 7.35241 4.01074 7.30469C3.85046 7.20969 3.63512 7.06701 3.41797 6.87402C2.99044 6.494 2.5 5.86876 2.5 5V2.5H6.5V5Z" fill="#F5F8FB"/>
<path d="M5.4873 5.84082C5.30978 6.11764 5.06896 6.33886 4.85059 6.49805C4.72333 6.59079 4.60741 6.65999 4.52441 6.70605C4.51575 6.71086 4.50694 6.71447 4.49902 6.71875C4.41583 6.67372 4.28928 6.6006 4.14844 6.49805C3.92997 6.33894 3.68819 6.11845 3.51074 5.8418L4.49902 4.85254L5.4873 5.84082Z" fill="#F5F8FB"/>
</svg>
