<svg width="16" height="12" viewBox="0 0 16 12" fill="none" xmlns="http://www.w3.org/2000/svg">
<g clip-path="url(#clip0_2251_2494)">
<rect width="16" height="12" fill="#F5F8FB"/>
<path d="M0 0H16V6H0V0Z" fill="#DC251C"/>
<path d="M0 6H16V12H0V6Z" fill="#F5F8FB"/>
<path d="M1 3C1 2.73736 1.05183 2.47703 1.15234 2.23438C1.25285 1.99182 1.40029 1.77159 1.58594 1.58594C1.77159 1.40029 1.99183 1.25285 2.23438 1.15234C2.47703 1.05183 2.73736 1 3 1V1.5C2.80302 1.5 2.60777 1.53888 2.42578 1.61426C2.24387 1.68964 2.07869 1.80021 1.93945 1.93945C1.80021 2.07869 1.68964 2.24387 1.61426 2.42578C1.53888 2.60777 1.5 2.80302 1.5 3C1.5 3.19698 1.53888 3.39223 1.61426 3.57422C1.68964 3.75613 1.80021 3.92131 1.93945 4.06055C2.07869 4.19979 2.24387 4.31036 2.42578 4.38574C2.60777 4.46112 2.80302 4.5 3 4.5V5C2.73736 5 2.47703 4.94817 2.23438 4.84766C1.99183 4.74715 1.77159 4.59971 1.58594 4.41406C1.40029 4.22841 1.25285 4.00817 1.15234 3.76562C1.05183 3.52297 1 3.26264 1 3Z" fill="#F5F8FB"/>
<path opacity="0.5" d="M4.5 3C4.5 2.60218 4.34185 2.22076 4.06055 1.93945C3.77924 1.65815 3.39782 1.5 3 1.5V1C3.53043 1 4.03899 1.21086 4.41406 1.58594C4.78913 1.96101 5 2.46957 5 3C5 3.53043 4.78914 4.03899 4.41406 4.41406C4.03899 4.78914 3.53043 5 3 5V4.5C3.39782 4.5 3.77924 4.34185 4.06055 4.06055C4.34185 3.77924 4.5 3.39782 4.5 3Z" fill="#F5F8FB"/>
</g>
<defs>
<clipPath id="clip0_2251_2494">
<rect width="16" height="12" fill="white"/>
</clipPath>
</defs>
</svg>
