<svg width="16" height="12" viewBox="0 0 16 12" fill="none" xmlns="http://www.w3.org/2000/svg">
<path d="M0 0H16V4H0V0Z" fill="#F5F8FB"/>
<path d="M0 4H16V8H0V4Z" fill="#2E4E9D"/>
<path d="M0 8H16V12H0V8Z" fill="#A71B14"/>
<path d="M4 3H8C8 3 8 5 8 6C8 8 6 9 6 9C6 9 4 8 4 6C4 5 4 3 4 3Z" fill="#A71B14"/>
<path d="M4 3C4 3 4 5 4 6C4 7.99964 5.99929 8.99964 6 9C6 9 7.87683 8.06152 7.99414 6.18457L8 6V3H4ZM8.5 6C8.5 7.17938 7.90801 8.04902 7.35352 8.60352C7.07491 8.88212 6.79767 9.08996 6.58984 9.22852C6.48551 9.29807 6.39749 9.3514 6.33398 9.3877C6.30229 9.4058 6.27648 9.41973 6.25781 9.42969C6.2486 9.4346 6.24105 9.43847 6.23535 9.44141L6.22559 9.44629L6.22461 9.44727L6 9.55859L5.77637 9.44727L5.76465 9.44141C5.75895 9.43847 5.7514 9.4346 5.74219 9.42969C5.72352 9.41973 5.69771 9.4058 5.66602 9.3877C5.60251 9.3514 5.51449 9.29807 5.41016 9.22852C5.20233 9.08996 4.92509 8.88212 4.64648 8.60352C4.09199 8.04902 3.5 7.17938 3.5 6V2.5H8.5V6Z" fill="#F5F8FB"/>
<path d="M5 4H7V6H5V4Z" fill="#F5F8FB"/>
<path d="M6 7C6.58836 7 7.11548 7.25577 7.48145 7.66016C6.88886 8.55204 6 9 6 9C6 9 5.11001 8.55211 4.51758 7.66016C4.88356 7.25548 5.41141 7 6 7Z" fill="#2E4E9D"/>
</svg>
