<svg width="16" height="12" viewBox="0 0 16 12" fill="none" xmlns="http://www.w3.org/2000/svg">
<path d="M0 0H16V6H0V0Z" fill="#F5F8FB"/>
<path d="M0 6H16V12H0V6Z" fill="#37A5F5"/>
<path d="M9 6.5C9 7.60457 8 8.5 8 8.5C8 8.5 7 7.60457 7 6.5C7 5.39543 7.44772 5 8 5C8.55228 5 9 5.39543 9 6.5Z" fill="#37A5F5"/>
<path d="M8.5 9.05859C8.21524 9.31349 7.78476 9.31349 7.5 9.05859L8 8.5L8.5 9.05859ZM9 6.5C9 5.39543 8.55228 5 8 5C7.44772 5 7 5.39543 7 6.5L7.01172 6.7041C7.12143 7.71277 8 8.5 8 8.5C7.49969 9.05874 7.4992 9.05875 7.49902 9.05859V9.05762H7.49805L7.49121 9.05078C7.48752 9.04741 7.48297 9.04315 7.47754 9.03809C7.46638 9.02768 7.4514 9.01344 7.43359 8.99609C7.3981 8.9615 7.35016 8.91322 7.29395 8.85254C7.18178 8.73146 7.03239 8.55734 6.88281 8.34082C6.59344 7.92189 6.25 7.27056 6.25 6.5C6.25 5.86334 6.37679 5.30045 6.69727 4.88086C7.04171 4.4299 7.52812 4.25 8 4.25C8.47188 4.25 8.95829 4.4299 9.30273 4.88086C9.62321 5.30045 9.75 5.86334 9.75 6.5C9.75 7.27056 9.40656 7.92189 9.11719 8.34082C8.96761 8.55734 8.81822 8.73146 8.70605 8.85254C8.64984 8.91322 8.6019 8.9615 8.56641 8.99609C8.5486 9.01344 8.53362 9.02768 8.52246 9.03809C8.51703 9.04315 8.51248 9.04741 8.50879 9.05078L8.50195 9.05762H8.50098V9.05859C8.5008 9.05875 8.50031 9.05874 8 8.5C8 8.5 8.8796 7.71282 8.98926 6.7041L9 6.5Z" fill="#FFD018"/>
<path d="M8.625 4.14258C8.625 4.35897 8.55451 4.45388 8.48242 4.50781C8.39179 4.57561 8.23415 4.625 8 4.625C7.76585 4.625 7.60821 4.57561 7.51758 4.50781C7.44549 4.45388 7.375 4.35897 7.375 4.14258C7.37507 4.0853 7.39842 4.00846 7.46582 3.91016C7.53297 3.81225 7.62986 3.71453 7.73926 3.62402C7.83013 3.54885 7.92306 3.48579 8 3.43652C8.07694 3.48579 8.16987 3.54885 8.26074 3.62402C8.37014 3.71453 8.46703 3.81225 8.53418 3.91016C8.60158 4.00846 8.62493 4.0853 8.625 4.14258ZM9.375 4.14258C9.37493 3.8846 9.27315 3.6612 9.15332 3.48633C9.03303 3.31089 8.87977 3.16216 8.73926 3.0459C8.59726 2.92843 8.45715 2.83444 8.35352 2.77051C8.30132 2.73831 8.25717 2.7129 8.22559 2.69531C8.20977 2.68651 8.19675 2.67973 8.1875 2.6748C8.18306 2.67244 8.17951 2.67038 8.17676 2.66895C8.17535 2.66821 8.17378 2.66747 8.17285 2.66699H8.17188L8.1709 2.66602C8.09052 2.62489 7.99905 2.61523 7.91309 2.63574L7.8291 2.66602L7.82715 2.66699C7.82622 2.66747 7.82465 2.66821 7.82324 2.66895C7.82048 2.67038 7.81694 2.67244 7.8125 2.6748C7.80325 2.67973 7.79023 2.68651 7.77441 2.69531C7.74283 2.7129 7.69868 2.73831 7.64648 2.77051C7.54285 2.83444 7.40274 2.92843 7.26074 3.0459C7.12023 3.16216 6.96697 3.31089 6.84668 3.48633C6.72685 3.6612 6.62507 3.8846 6.625 4.14258C6.625 4.55737 6.77852 4.89156 7.06836 5.1084C7.33965 5.31133 7.6819 5.375 8 5.375C8.3181 5.375 8.66035 5.31133 8.93164 5.1084C9.22148 4.89156 9.375 4.55737 9.375 4.14258Z" fill="#FFD018"/>
<path d="M4.5 6C4.5 5.72386 4.72386 5.5 5 5.5C5.27614 5.5 5.5 5.72386 5.5 6C5.5 6.45117 5.59284 7.12099 5.85059 7.6582C6.1029 8.18386 6.46265 8.5 7 8.5C7.27614 8.5 7.5 8.72386 7.5 9C7.5 9.27614 7.27614 9.5 7 9.5C5.93752 9.5 5.29694 8.81601 4.94922 8.0918C4.60712 7.37908 4.5 6.54871 4.5 6Z" fill="#1A5C35"/>
<path d="M11.5 6C11.5 5.72386 11.2761 5.5 11 5.5C10.7239 5.5 10.5 5.72386 10.5 6C10.5 6.45117 10.4072 7.12099 10.1494 7.6582C9.8971 8.18386 9.53735 8.5 9 8.5C8.72386 8.5 8.5 8.72386 8.5 9C8.5 9.27614 8.72386 9.5 9 9.5C10.0625 9.5 10.7031 8.81601 11.0508 8.0918C11.3929 7.37908 11.5 6.54871 11.5 6Z" fill="#1A5C35"/>
</svg>
