<svg width="16" height="12" viewBox="0 0 16 12" fill="none" xmlns="http://www.w3.org/2000/svg">
<path d="M0 0H16L0 12V0Z" fill="#3273D3"/>
<path d="M16 12H0L16 0V12Z" fill="#1A5C35"/>
<path d="M14 0L0 11V12H2L16 1V0H14Z" fill="#FFD018"/>
<path d="M1.56862 0.470657L1.79752 1.17513H2.53824L1.93898 1.61052L2.16788 2.31499L1.56862 1.8796L0.969362 2.31499L1.19826 1.61052L0.598999 1.17513H1.33972L1.56862 0.470657Z" fill="#F5F8FB"/>
<path d="M5.06612 0.470657L5.29501 1.17513H6.03574L5.43648 1.61052L5.66538 2.31499L5.06612 1.8796L4.46686 2.31499L4.69576 1.61052L4.0965 1.17513H4.83722L5.06612 0.470657Z" fill="#F5F8FB"/>
<path d="M5.06612 3.96095L5.29501 4.66542H6.03574L5.43648 5.10081L5.66538 5.80528L5.06612 5.3699L4.46686 5.80528L4.69576 5.10081L4.0965 4.66542H4.83722L5.06612 3.96095Z" fill="#F5F8FB"/>
<path d="M1.56862 3.96095L1.79752 4.66542H2.53824L1.93898 5.10081L2.16788 5.80528L1.56862 5.3699L0.969362 5.80528L1.19826 5.10081L0.598999 4.66542H1.33972L1.56862 3.96095Z" fill="#F5F8FB"/>
<path d="M3.23207 2.16957L3.46097 2.87404H4.20169L3.60244 3.30943L3.83133 4.0139L3.23207 3.57851L2.63281 4.0139L2.86171 3.30943L2.26245 2.87404H3.00318L3.23207 2.16957Z" fill="#F5F8FB"/>
</svg>
