<svg width="16" height="12" viewBox="0 0 16 12" fill="none" xmlns="http://www.w3.org/2000/svg">
<rect width="16" height="12" fill="#F5F8FB"/>
<path d="M11 6C11 7.65685 9.65685 9 8 9C6.34315 9 5 7.65685 5 6C5 4.34315 6.34315 3 8 3C9.65685 3 11 4.34315 11 6Z" fill="#DC251C"/>
<mask id="mask0_2251_2534" style="mask-type:alpha" maskUnits="userSpaceOnUse" x="5" y="5" width="6" height="5">
<path d="M11 9.5V6.5C9.99889 4.74806 7.99668 6.18978 7.99668 6.18978C7.99668 6.18978 5.99889 7.49779 5 5.5V9.5H11Z" fill="#C4C4C4"/>
</mask>
<g mask="url(#mask0_2251_2534)">
<path d="M11 6C11 7.65685 9.65685 9 8 9C6.34315 9 5 7.65685 5 6C5 4.34315 6.34315 3 8 3C9.65685 3 11 4.34315 11 6Z" fill="#2E4E9D"/>
</g>
<path d="M3.44727 0.96659L3.88028 1.21659L2.38028 3.81467L1.94727 3.56467L3.44727 0.96659Z" fill="#272727"/>
<path d="M4.11536 1.35233L4.54837 1.60233L3.04837 4.20041L2.61536 3.95041L4.11536 1.35233Z" fill="#272727"/>
<path d="M4.78351 1.73807L5.21652 1.98807L3.71652 4.58615L3.28351 4.33615L4.78351 1.73807Z" fill="#272727"/>
<path d="M13.3862 2.41025L12.9532 2.66025L13.6197 3.81467L14.0527 3.56467L13.3862 2.41025ZM12.5527 0.96659L12.1197 1.21659L12.7862 2.37101L13.2192 2.12101L12.5527 0.96659Z" fill="#272727"/>
<path d="M11.8846 1.35233L11.4516 1.60233L12.9516 4.20041L13.3846 3.95041L11.8846 1.35233Z" fill="#272727"/>
<path d="M12.05 3.18173L11.617 3.43173L12.2835 4.58615L12.7165 4.33615L12.05 3.18173ZM11.2165 1.73807L10.7835 1.98807L11.45 3.14249L11.883 2.89249L11.2165 1.73807Z" fill="#272727"/>
<path d="M3.44727 11.0334L3.88028 10.7834L2.38028 8.18533L1.94727 8.43533L3.44727 11.0334Z" fill="#272727"/>
<path d="M3.28186 9.20401L3.71487 8.95401L3.04837 7.79959L2.61536 8.04959L3.28186 9.20401ZM4.11536 10.6477L4.54837 10.3977L3.88187 9.24325L3.44885 9.49325L4.11536 10.6477Z" fill="#272727"/>
<path d="M4.78351 10.2619L5.21652 10.0119L3.71652 7.41385L3.28351 7.66385L4.78351 10.2619Z" fill="#272727"/>
<path d="M13.3862 9.58975L12.9532 9.33975L13.6197 8.18533L14.0527 8.43533L13.3862 9.58975ZM12.5527 11.0334L12.1197 10.7834L12.7862 9.62899L13.2192 9.87899L12.5527 11.0334Z" fill="#272727"/>
<path d="M12.7181 9.20401L12.2851 8.95401L12.9516 7.79959L13.3846 8.04959L12.7181 9.20401ZM11.8846 10.6477L11.4516 10.3977L12.1181 9.24325L12.5511 9.49325L11.8846 10.6477Z" fill="#272727"/>
<path d="M12.05 8.81827L11.617 8.56827L12.2835 7.41385L12.7165 7.66385L12.05 8.81827ZM11.2165 10.2619L10.7835 10.0119L11.45 8.85751L11.883 9.10751L11.2165 10.2619Z" fill="#272727"/>
</svg>
