<svg width="16" height="12" viewBox="0 0 16 12" fill="none" xmlns="http://www.w3.org/2000/svg">
<rect width="16" height="12" fill="#FFD018"/>
<path d="M0 0H16V3H0V0Z" fill="#DC251C"/>
<path d="M0 9H16V12H0V9Z" fill="#DC251C"/>
<path d="M3 4H5V6H3V4Z" fill="#DC251C"/>
<path d="M3 6H5V8H4C3.44772 8 3 7.55228 3 7V6Z" fill="#FF8718"/>
<path d="M5 6H7V7C7 7.55228 6.55228 8 6 8H5V6Z" fill="#DC251C"/>
<path d="M5 4H7V6H5V4Z" fill="#A6A6A6"/>
<path d="M5.5 6C5.5 6.27614 5.27614 6.5 5 6.5C4.72386 6.5 4.5 6.27614 4.5 6C4.5 5.72386 4.72386 5.5 5 5.5C5.27614 5.5 5.5 5.72386 5.5 6Z" fill="#2E4E9D"/>
</svg>
