<svg width="16" height="12" viewBox="0 0 16 12" fill="none" xmlns="http://www.w3.org/2000/svg">
<path d="M0 0H16V2H0V0Z" fill="#2E4E9D"/>
<path d="M0 10H16V12H0V10Z" fill="#2E4E9D"/>
<path d="M0 2H16V3H0V2Z" fill="#FFD018"/>
<path d="M0 9H16V10H0V9Z" fill="#FFD018"/>
<path d="M0 3H16V9H0V3Z" fill="#A71B14"/>
<path d="M14.5 5.75V6.25H1.5V5.75H14.5Z" fill="#FFD018"/>
<path d="M8 8.5C5 8.5 3.5 6 3.5 6C3.5 6 5 3.5 8 3.5V8.5Z" fill="#272727"/>
<path d="M8 8.5C11 8.5 12.5 6 12.5 6C12.5 6 11 3.5 8 3.5V8.5Z" fill="#F5F8FB"/>
<path d="M3 7C3 7.55228 2.55228 8 2 8C1.44772 8 1 7.55228 1 7C1 6.44772 1.44772 6 2 6C2.55228 6 3 6.44772 3 7Z" fill="#2E4E9D"/>
<path d="M15 7C15 7.55228 14.5523 8 14 8C13.4477 8 13 7.55228 13 7C13 6.44772 13.4477 6 14 6C14.5523 6 15 6.44772 15 7Z" fill="#2E4E9D"/>
<path d="M7 5.5C7 5.77614 6.77614 6 6.5 6C6.22386 6 6 5.77614 6 5.5C6 5.22386 6.22386 5 6.5 5C6.77614 5 7 5.22386 7 5.5Z" fill="#2E4E9D"/>
</svg>
