<svg width="16" height="12" viewBox="0 0 16 12" fill="none" xmlns="http://www.w3.org/2000/svg">
<path d="M0 0H16V4H0V0Z" fill="#2B9F5A"/>
<path d="M0 4H16V8H0V4Z" fill="#FFD018"/>
<path d="M0 8H16V12H0V8Z" fill="#2B9F5A"/>
<path d="M6 6L0 0V12L6 6Z" fill="#DC251C"/>
<path d="M9.33676 4.66324L9.63688 5.58692H10.6081L9.82237 6.15778L10.1225 7.08146L9.33676 6.51059L8.55104 7.08146L8.85116 6.15778L8.06543 5.58692H9.03664L9.33676 4.66324Z" fill="#272727"/>
<path d="M13.1017 4.66324L13.4018 5.58692H14.373L13.5873 6.15778L13.8874 7.08146L13.1017 6.51059L12.3159 7.08146L12.616 6.15778L11.8303 5.58692H12.8015L13.1017 4.66324Z" fill="#272727"/>
</svg>
