<svg width="16" height="12" viewBox="0 0 16 12" fill="none" xmlns="http://www.w3.org/2000/svg">
<path d="M0 0H16V3H0V0Z" fill="#DC251C"/>
<path d="M0 9H16V12H0V9Z" fill="#2B9F5A"/>
<path d="M0 3H16V9H0V3Z" fill="#F5F8FB"/>
<path d="M7.6582 7.7168C7.76854 7.73862 7.88282 7.75 8 7.75V8C7.86626 8 7.73576 7.98597 7.60938 7.96094L7.6582 7.7168ZM8.36621 7.83887L8.38965 7.96094C8.26355 7.98585 8.13341 8 8 8V7.75C8.11718 7.75 8.23146 7.73862 8.3418 7.7168L8.36621 7.83887ZM6.54492 6.97168C6.67276 7.16263 6.83737 7.32724 7.02832 7.45508L6.88867 7.66211C6.6706 7.51601 6.48287 7.32852 6.33691 7.11035L6.54492 6.97168ZM9.66211 7.11035C9.51605 7.32856 9.32856 7.51605 9.11035 7.66211L8.97168 7.45508C9.16263 7.32724 9.32724 7.16263 9.45508 6.97168L9.66211 7.11035ZM6 6C6 5.86633 6.01307 5.73571 6.03809 5.60938L6.2832 5.6582C6.26138 5.76854 6.25 5.88282 6.25 6C6.25 6.11718 6.26138 6.23146 6.2832 6.3418L6.16016 6.36523L6.03809 6.38965C6.01319 6.26361 6 6.13334 6 6ZM10 6C10 6.13341 9.98585 6.26355 9.96094 6.38965L9.83887 6.36621V6.36523L9.7168 6.3418C9.73862 6.23146 9.75 6.11718 9.75 6C9.75 5.88282 9.73862 5.76854 9.7168 5.6582L9.96094 5.60938C9.98597 5.73576 10 5.86626 10 6ZM7.02832 4.54492C6.83737 4.67276 6.67276 4.83737 6.54492 5.02832L6.33691 4.88867C6.4829 4.67064 6.67064 4.4829 6.88867 4.33691L7.02832 4.54492ZM9.11035 4.33691C9.32852 4.48287 9.51601 4.6706 9.66211 4.88867L9.45508 5.02832C9.32724 4.83737 9.16263 4.67276 8.97168 4.54492L9.11035 4.33691ZM8 4C8.13334 4 8.26361 4.01319 8.38965 4.03809L8.37207 4.13379L8.3418 4.2832C8.23146 4.26138 8.11718 4.25 8 4.25C7.88282 4.25 7.76854 4.26138 7.6582 4.2832L7.62793 4.13379L7.60938 4.03809C7.73571 4.01307 7.86633 4 8 4Z" fill="#B2A46A"/>
<path d="M8 4.8736C8.28417 4.8736 8.45058 4.97837 8.54004 5.10699C8.5824 5.16791 8.60377 5.22874 8.61426 5.27399C8.61949 5.29661 8.62162 5.31625 8.62305 5.33063C8.62375 5.33771 8.62478 5.34359 8.625 5.34821V5.35797L8.61523 5.40582C8.60903 5.42083 8.60056 5.43512 8.58887 5.44684L8.125 5.91071V7.49957H7.875V5.91071L7.41113 5.44684C7.38775 5.4234 7.375 5.39108 7.375 5.35797V5.34821C7.37522 5.34359 7.37625 5.33771 7.37695 5.33063C7.37838 5.31625 7.38051 5.29661 7.38574 5.27399C7.39623 5.22874 7.4176 5.16791 7.45996 5.10699C7.54942 4.97837 7.71583 4.8736 8 4.8736ZM8 5.1236C7.7843 5.1236 7.70061 5.19845 7.66504 5.24957C7.64923 5.27231 7.63973 5.29546 7.63379 5.315L8 5.68121L8.36523 5.315C8.35929 5.29552 8.3507 5.2722 8.33496 5.24957C8.29939 5.19845 8.2157 5.1236 8 5.1236Z" fill="#B2A46A"/>
</svg>
