<svg width="16" height="12" viewBox="0 0 16 12" fill="none" xmlns="http://www.w3.org/2000/svg">
<path d="M0 0H16V2.4H0V0Z" fill="#1A5C35"/>
<path d="M0 4.79999H16V7.19999H0V4.79999Z" fill="#1A5C35"/>
<path d="M0 9.60001H16V12H0V9.60001Z" fill="#1A5C35"/>
<path d="M0 2.39999H16V4.79999H0V2.39999Z" fill="#FFD018"/>
<path d="M0 7.20001H16V9.60001H0V7.20001Z" fill="#FFD018"/>
<path d="M0 0H7.21875V7.21875H0V0Z" fill="#DC251C"/>
<path d="M3.6094 1.42188L4.24909 2.95986L5.90947 3.09298L4.64443 4.17662L5.03092 5.79688L3.6094 4.92861L2.18788 5.79688L2.57437 4.17662L1.30933 3.09298L2.96971 2.95986L3.6094 1.42188Z" fill="#F5F8FB"/>
</svg>
