<svg width="16" height="12" viewBox="0 0 16 12" fill="none" xmlns="http://www.w3.org/2000/svg">
<path d="M0 0H16V12H0V0Z" fill="#DC251C"/>
<path d="M12 6C12 8.20914 10.2091 10 8 10C5.79086 10 4 8.20914 4 6C4 3.79086 5.79086 2 8 2C10.2091 2 12 3.79086 12 6Z" fill="#F5F8FB"/>
<path d="M8 3C8.67183 3 9.29 3.22363 9.79004 3.59668C9.54126 3.51495 9.27612 3.46875 9 3.46875C7.60203 3.46875 6.46875 4.60203 6.46875 6C6.46875 7.39797 7.60203 8.53125 9 8.53125C9.27623 8.53125 9.54118 8.48414 9.79004 8.40234C9.28992 8.7756 8.67204 9 8 9C6.34315 9 5 7.65685 5 6C5 4.34315 6.34315 3 8 3Z" fill="#DC251C"/>
<path d="M8.50474 7.42464L8.4477 6.33632L7.39502 6.05425L8.41245 5.6637L8.35541 4.57538L9.04125 5.42232L10.0587 5.03177L9.46513 5.94576L10.151 6.79271L9.09829 6.51064L8.50474 7.42464Z" fill="#DC251C"/>
</svg>
