<svg width="16" height="12" viewBox="0 0 16 12" fill="none" xmlns="http://www.w3.org/2000/svg">
<rect width="16" height="12" fill="#DC251C"/>
<path fill-rule="evenodd" clip-rule="evenodd" d="M8.31585 8.63958C7.4685 8.80358 6.55746 8.55747 5.90124 7.90124C4.85121 6.85121 4.85121 5.14877 5.90124 4.09874C6.55746 3.44252 7.46849 3.1964 8.31584 3.3604C7.07246 2.51089 5.36203 2.63797 4.25838 3.74162C3.01111 4.98889 3.01111 7.0111 4.25838 8.25837C5.36204 9.36203 7.07247 9.4891 8.31585 8.63958Z" fill="#F5F8FB"/>
<path d="M9.50001 4.5L9.89677 5.45391L10.9266 5.53647L10.142 6.20859L10.3817 7.21353L9.50001 6.675L8.61833 7.21353L8.85805 6.20859L8.07343 5.53647L9.10325 5.45391L9.50001 4.5Z" fill="#F5F8FB"/>
</svg>
