<svg width="16" height="12" viewBox="0 0 16 12" fill="none" xmlns="http://www.w3.org/2000/svg">
<path d="M0 0H16V12H0V0Z" fill="#1A5C35"/>
<path d="M2 0H5V12H2V0Z" fill="#A71B14"/>
<path d="M5 1.2C5 1.86274 4.32843 2.4 3.5 2.4C2.67157 2.4 2 1.86274 2 1.2C2 0.537258 2.67157 0 3.5 0C4.32843 0 5 0.537258 5 1.2Z" fill="#D5D5D5" fill-opacity="0.5"/>
<path d="M4.5 1.2002C4.5 0.911945 4.16217 0.5 3.5 0.5C2.83783 0.5 2.5 0.911945 2.5 1.2002C2.50015 1.48844 2.83798 1.90039 3.5 1.90039V2.40039L3.34668 2.39355C2.64054 2.33619 2.07929 1.88723 2.00781 1.32227L2 1.2002C2 0.537454 2.67157 0 3.5 0C4.32843 0 5 0.537454 5 1.2002L4.99219 1.32227C4.91561 1.92757 4.27683 2.40039 3.5 2.40039V1.90039C4.16202 1.90039 4.49985 1.48844 4.5 1.2002Z" fill="#A71B14"/>
<path d="M5 3.59999C5 4.26274 4.32843 4.79999 3.5 4.79999C2.67157 4.79999 2 4.26274 2 3.59999C2 2.93725 2.67157 2.39999 3.5 2.39999C4.32843 2.39999 5 2.93725 5 3.59999Z" fill="#2B9F5A" fill-opacity="0.65"/>
<path d="M4.5 3.60019C4.5 3.31194 4.16217 2.89999 3.5 2.89999C2.83783 2.89999 2.5 3.31194 2.5 3.60019C2.50015 3.88843 2.83798 4.30038 3.5 4.30038V4.80038L3.34668 4.79355C2.64054 4.73619 2.07929 4.28723 2.00781 3.72226L2 3.60019C2 2.93745 2.67157 2.39999 3.5 2.39999C4.32843 2.39999 5 2.93745 5 3.60019L4.99219 3.72226C4.91561 4.32756 4.27683 4.80038 3.5 4.80038V4.30038C4.16202 4.30038 4.49985 3.88843 4.5 3.60019Z" fill="#A71B14"/>
<path d="M5 5.99999C5 6.66273 4.32843 7.19999 3.5 7.19999C2.67157 7.19999 2 6.66273 2 5.99999C2 5.33725 2.67157 4.79999 3.5 4.79999C4.32843 4.79999 5 5.33725 5 5.99999Z" fill="#272727" fill-opacity="0.5"/>
<path d="M4.5 6.00018C4.5 5.71193 4.16217 5.29999 3.5 5.29999C2.83783 5.29999 2.5 5.71193 2.5 6.00018C2.50015 6.28842 2.83798 6.70038 3.5 6.70038V7.20038L3.34668 7.19354C2.64054 7.13618 2.07929 6.68722 2.00781 6.12225L2 6.00018C2 5.33744 2.67157 4.79999 3.5 4.79999C4.32843 4.79999 5 5.33744 5 6.00018L4.99219 6.12225C4.91561 6.72756 4.27683 7.20038 3.5 7.20038V6.70038C4.16202 6.70038 4.49985 6.28842 4.5 6.00018Z" fill="#A71B14"/>
<path d="M5 8.40001C5 9.06275 4.32843 9.60001 3.5 9.60001C2.67157 9.60001 2 9.06275 2 8.40001C2 7.73727 2.67157 7.20001 3.5 7.20001C4.32843 7.20001 5 7.73727 5 8.40001Z" fill="#2B9F5A" fill-opacity="0.69"/>
<path d="M4.5 8.40021C4.5 8.11196 4.16217 7.70001 3.5 7.70001C2.83783 7.70001 2.5 8.11196 2.5 8.40021C2.50015 8.68845 2.83798 9.1004 3.5 9.1004V9.6004L3.34668 9.59357C2.64054 9.53621 2.07929 9.08725 2.00781 8.52228L2 8.40021C2 7.73747 2.67157 7.20001 3.5 7.20001C4.32843 7.20001 5 7.73747 5 8.40021L4.99219 8.52228C4.91561 9.12758 4.27683 9.6004 3.5 9.6004V9.1004C4.16202 9.1004 4.49985 8.68845 4.5 8.40021Z" fill="#A71B14"/>
<path d="M5 10.8C5 11.4627 4.32843 12 3.5 12C2.67157 12 2 11.4627 2 10.8C2 10.1373 2.67157 9.60001 3.5 9.60001C4.32843 9.60001 5 10.1373 5 10.8Z" fill="#F2F2F2" fill-opacity="0.5"/>
<path d="M4.5 10.8002C4.5 10.512 4.16217 10.1 3.5 10.1C2.83783 10.1 2.5 10.512 2.5 10.8002C2.50015 11.0884 2.83798 11.5004 3.5 11.5004V12.0004L3.34668 11.9936C2.64054 11.9362 2.07929 11.4872 2.00781 10.9223L2 10.8002C2 10.1375 2.67157 9.60001 3.5 9.60001C4.32843 9.60001 5 10.1375 5 10.8002L4.99219 10.9223C4.91561 11.5276 4.27683 12.0004 3.5 12.0004V11.5004C4.16202 11.5004 4.49985 11.0884 4.5 10.8002Z" fill="#A71B14"/>
<path d="M8.9873 0.949463C9.77422 1.25101 10.3339 2.01157 10.334 2.90454C10.334 4.06172 9.39546 5.00024 8.23828 5.00024C7.72136 5.00019 7.24915 4.81156 6.88379 4.50122C7.1169 4.59074 7.36916 4.64282 7.63379 4.64282C8.79089 4.64273 9.72852 3.70424 9.72852 2.54712C9.72845 1.90643 9.44046 1.33375 8.9873 0.949463Z" fill="#F5F8FB"/>
<path d="M6.80284 3.00554C6.80284 3.19963 6.6455 3.35697 6.45141 3.35697C6.25732 3.35697 6.09998 3.19963 6.09998 3.00554C6.09998 2.81145 6.25732 2.65411 6.45141 2.65411C6.6455 2.65411 6.80284 2.81145 6.80284 3.00554Z" fill="#F5F8FB"/>
<path d="M7.80308 3.48504C7.80308 3.67913 7.64574 3.83647 7.45165 3.83647C7.25756 3.83647 7.10022 3.67913 7.10022 3.48504C7.10022 3.29095 7.25756 3.13361 7.45165 3.13361C7.64574 3.13361 7.80308 3.29095 7.80308 3.48504Z" fill="#F5F8FB"/>
<path d="M7.80308 2.49621C7.80308 2.69029 7.64574 2.84764 7.45165 2.84764C7.25756 2.84764 7.10022 2.69029 7.10022 2.49621C7.10022 2.30212 7.25756 2.14478 7.45165 2.14478C7.64574 2.14478 7.80308 2.30212 7.80308 2.49621Z" fill="#F5F8FB"/>
<path d="M7.80308 1.30089C7.80308 1.49498 7.64574 1.65232 7.45165 1.65232C7.25756 1.65232 7.10022 1.49498 7.10022 1.30089C7.10022 1.1068 7.25756 0.949463 7.45165 0.949463C7.64574 0.949463 7.80308 1.1068 7.80308 1.30089Z" fill="#F5F8FB"/>
<path d="M8.66813 2.00374C8.66813 2.19783 8.51079 2.35517 8.3167 2.35517C8.12261 2.35517 7.96527 2.19783 7.96527 2.00374C7.96527 1.80965 8.12261 1.65231 8.3167 1.65231C8.51079 1.65231 8.66813 1.80965 8.66813 2.00374Z" fill="#F5F8FB"/>
</svg>
