<svg width="16" height="12" viewBox="0 0 16 12" fill="none" xmlns="http://www.w3.org/2000/svg">
<path d="M0 0H16V12H0V0Z" fill="#70ADBE"/>
<path d="M0 0H9V6H0V0Z" fill="#2E4E9D"/>
<mask id="mask0_2251_2671" style="mask-type:alpha" maskUnits="userSpaceOnUse" x="0" y="0" width="9" height="6">
<path d="M0 0H9V6H0V0Z" fill="#C4C4C4"/>
</mask>
<g mask="url(#mask0_2251_2671)">
<path d="M10.647 -0.299072L-0.152954 7.70044L-1.64709 6.29932L9.15291 -1.70093L10.647 -0.299072Z" fill="#F5F8FB"/>
<path d="M10.1241 -0.789795L-0.675903 7.21045L-1.12415 6.79004L9.67585 -1.21021L10.1241 -0.789795Z" fill="#DC251C"/>
<path d="M-1.64711 -0.299072L9.15289 7.70044L10.647 6.29932L-0.152966 -1.70093L-1.64711 -0.299072Z" fill="#F5F8FB"/>
<path d="M-1.12416 -0.789795L9.67584 7.21045L10.1241 6.79004L-0.675916 -1.21021L-1.12416 -0.789795Z" fill="#DC251C"/>
<path d="M5.85 0V1.875H9V4.125H5.85V6H3.15V4.125H0V1.875H3.15V0H5.85Z" fill="#F5F8FB"/>
<path d="M5.4 0V2.25H9V3.75H5.4V6H3.6V3.75H0V2.25H3.6V0H5.4Z" fill="#DC251C"/>
</g>
<path d="M13 3.5C13 3.77614 12.7761 4 12.5 4C12.2239 4 12 3.77614 12 3.5C12 3.22386 12.2239 3 12.5 3C12.7761 3 13 3.22386 13 3.5Z" fill="#FFD018"/>
<path d="M12 5.5C12 5.77614 11.7761 6 11.5 6C11.2239 6 11 5.77614 11 5.5C11 5.22386 11.2239 5 11.5 5C11.7761 5 12 5.22386 12 5.5Z" fill="#FFD018"/>
<path d="M11 7.5C11 7.77614 10.7761 8 10.5 8C10.2239 8 10 7.77614 10 7.5C10 7.22386 10.2239 7 10.5 7C10.7761 7 11 7.22386 11 7.5Z" fill="#FFD018"/>
<path d="M12 7.5C12 7.77614 11.7761 8 11.5 8C11.2239 8 11 7.77614 11 7.5C11 7.22386 11.2239 7 11.5 7C11.7761 7 12 7.22386 12 7.5Z" fill="#FFD018"/>
<path d="M13 6.5C13 6.77614 12.7761 7 12.5 7C12.2239 7 12 6.77614 12 6.5C12 6.22386 12.2239 6 12.5 6C12.7761 6 13 6.22386 13 6.5Z" fill="#FFD018"/>
<path d="M14 5.5C14 5.77614 13.7761 6 13.5 6C13.2239 6 13 5.77614 13 5.5C13 5.22386 13.2239 5 13.5 5C13.7761 5 14 5.22386 14 5.5Z" fill="#FFD018"/>
<path d="M15 4.5C15 4.77614 14.7761 5 14.5 5C14.2239 5 14 4.77614 14 4.5C14 4.22386 14.2239 4 14.5 4C14.7761 4 15 4.22386 15 4.5Z" fill="#FFD018"/>
<path d="M14 3.5C14 3.77614 13.7761 4 13.5 4C13.2239 4 13 3.77614 13 3.5C13 3.22386 13.2239 3 13.5 3C13.7761 3 14 3.22386 14 3.5Z" fill="#FFD018"/>
<path d="M15 2.5C15 2.77614 14.7761 3 14.5 3C14.2239 3 14 2.77614 14 2.5C14 2.22386 14.2239 2 14.5 2C14.7761 2 15 2.22386 15 2.5Z" fill="#FFD018"/>
</svg>
