<svg width="16" height="12" viewBox="0 0 16 12" fill="none" xmlns="http://www.w3.org/2000/svg">
<g clip-path="url(#clip0_2251_2697)">
<rect width="16" height="12" fill="#F5F8FB"/>
<path d="M0 0H16V2H0V0Z" fill="#272727"/>
<path d="M0 2H16V4H0V2Z" fill="#FFD018"/>
<path d="M0 4H16V6H0V4Z" fill="#DC251C"/>
<path d="M0 6H16V8H0V6Z" fill="#272727"/>
<path d="M0 8H16V10H0V8Z" fill="#FFD018"/>
<path d="M0 10H16V12H0V10Z" fill="#DC251C"/>
<path d="M10 6C10 7.10457 9.10457 8 8 8C6.89543 8 6 7.10457 6 6C6 4.89543 6.89543 4 8 4C9.10457 4 10 4.89543 10 6Z" fill="#F5F8FB"/>
<path d="M7.81092 4.45065C7.88809 4.41764 7.97716 4.425 8.04725 4.47116C8.11737 4.51743 8.15955 4.59614 8.15955 4.68014C8.15955 4.82216 8.10649 5.14018 7.87928 5.38327C7.82241 5.44408 7.7744 5.56292 7.78553 5.68307C7.79519 5.78632 7.84835 5.89815 8.01405 5.97409C8.45594 6.17672 8.69901 6.46331 8.77577 6.62741L8.32264 6.83932C8.30454 6.80065 8.1592 6.5905 7.80506 6.42819C7.47325 6.27598 7.31337 6.00681 7.28748 5.72995C7.26318 5.47001 7.35765 5.20872 7.51405 5.04147C7.54673 5.00646 7.57097 4.96485 7.59217 4.92233L7.45545 4.60202L7.81092 4.45065Z" fill="#272727"/>
<path d="M8.29156 6.2933V7.31967H7.79156V6.2933H8.29156Z" fill="#272727"/>
<path d="M8.29291 6.04251C8.34671 6.0433 8.4216 6.04629 8.50385 6.05521C8.58543 6.06408 8.68058 6.07966 8.7724 6.10697C8.86119 6.13339 8.96563 6.1761 9.0517 6.25052C9.22102 6.39717 9.27335 6.62539 9.29291 6.76029C9.30386 6.83597 9.30758 6.90446 9.30853 6.95365C9.30901 6.97845 9.30887 6.99936 9.30853 7.01419C9.30837 7.02145 9.30773 7.02736 9.30756 7.03177V7.04056C9.30753 7.04062 9.30475 7.04071 9.05756 7.02689C8.81197 7.01316 8.80762 7.01219 8.80756 7.01224L8.80853 7.00248C8.80873 6.99377 8.80886 6.98034 8.80853 6.96341C8.80786 6.92877 8.80503 6.88154 8.79779 6.83158C8.78087 6.71501 8.748 6.64877 8.72455 6.62845C8.71414 6.61954 8.68549 6.60303 8.62982 6.58646C8.57657 6.57062 8.51378 6.5592 8.45013 6.55228C8.38741 6.54546 8.32901 6.54314 8.28607 6.54251H8.22357L8.22162 6.54349L8.20013 6.04349H8.20892C8.21348 6.04335 8.21972 6.04265 8.22748 6.04251C8.24334 6.04225 8.26592 6.04213 8.29291 6.04251Z" fill="#DC251C"/>
</g>
<defs>
<clipPath id="clip0_2251_2697">
<rect width="16" height="12" fill="white"/>
</clipPath>
</defs>
</svg>
