<svg width="16" height="12" viewBox="0 0 16 12" fill="none" xmlns="http://www.w3.org/2000/svg">
<path d="M0 0H16V11H0V0Z" fill="#F5F8FB"/>
<path d="M0 0H9V7H0V0Z" fill="#2E4E9D"/>
<path d="M9 0H16V1H9V0Z" fill="#DC251C"/>
<path d="M9 2H16V3H9V2Z" fill="#DC251C"/>
<path d="M9 4H16V5H9V4Z" fill="#DC251C"/>
<path d="M9 6H16V7H9V6Z" fill="#DC251C"/>
<path d="M0 8H16V9H0V8Z" fill="#DC251C"/>
<path d="M0 10H16V11H0V10Z" fill="#DC251C"/>
<path d="M1 1H2V2H1V1Z" fill="#C5D0EC"/>
<path d="M3 1H4V2H3V1Z" fill="#C5D0EC"/>
<path d="M5 1H6V2H5V1Z" fill="#C5D0EC"/>
<path d="M7 1H8V2H7V1Z" fill="#C5D0EC"/>
<path d="M1 3H2V4H1V3Z" fill="#C5D0EC"/>
<path d="M3 3H4V4H3V3Z" fill="#C5D0EC"/>
<path d="M5 3H6V4H5V3Z" fill="#C5D0EC"/>
<path d="M2 4H3V5H2V4Z" fill="#C5D0EC"/>
<path d="M4 4H5V5H4V4Z" fill="#C5D0EC"/>
<path d="M6 4H7V5H6V4Z" fill="#C5D0EC"/>
<path d="M2 2H3V3H2V2Z" fill="#C5D0EC"/>
<path d="M4 2H5V3H4V2Z" fill="#C5D0EC"/>
<path d="M6 2H7V3H6V2Z" fill="#C5D0EC"/>
<path d="M7 3H8V4H7V3Z" fill="#C5D0EC"/>
<path d="M1 5H2V6H1V5Z" fill="#C5D0EC"/>
<path d="M3 5H4V6H3V5Z" fill="#C5D0EC"/>
<path d="M5 5H6V6H5V5Z" fill="#C5D0EC"/>
<path d="M7 5H8V6H7V5Z" fill="#C5D0EC"/>
</svg>
