<svg width="16" height="12" viewBox="0 0 16 12" fill="none" xmlns="http://www.w3.org/2000/svg">
<path d="M0 0H16V4H0V0Z" fill="#25A3BB"/>
<path d="M0 8H16V12H0V8Z" fill="#2B9F5A"/>
<path d="M0 4H16V8H0V4Z" fill="#F5F8FB"/>
<path d="M16 8V8.25H0V8H16ZM16 3.75V4H0V3.75H16Z" fill="#A71B14"/>
<path d="M2.38318 0.529449C2.70347 0.529482 2.99911 0.632921 3.2406 0.806793C3.20045 0.802727 3.15975 0.799965 3.11853 0.799957C2.45593 0.799957 1.91833 1.33756 1.91833 2.00015C1.91842 2.66268 2.45599 3.19937 3.11853 3.19937C3.15974 3.19936 3.20046 3.19758 3.2406 3.19351C2.99913 3.36732 2.7034 3.47082 2.38318 3.47086C1.57107 3.47086 0.912559 2.81224 0.912476 2.00015C0.912476 1.18799 1.57102 0.529449 2.38318 0.529449Z" fill="#F5F8FB"/>
<path d="M8 1.00299C8 1.14106 7.88807 1.25299 7.75 1.25299C7.61193 1.25299 7.5 1.14106 7.5 1.00299C7.5 0.86492 7.61193 0.752991 7.75 0.752991C7.88807 0.752991 8 0.86492 8 1.00299Z" fill="#F5F8FB"/>
<path d="M8 2C8 2.13807 7.88807 2.25 7.75 2.25C7.61193 2.25 7.5 2.13807 7.5 2C7.5 1.86193 7.61193 1.75 7.75 1.75C7.88807 1.75 8 1.86193 8 2Z" fill="#F5F8FB"/>
<path d="M8 2.99701C8 3.13508 7.88807 3.24701 7.75 3.24701C7.61193 3.24701 7.5 3.13508 7.5 2.99701C7.5 2.85894 7.61193 2.74701 7.75 2.74701C7.88807 2.74701 8 2.85894 8 2.99701Z" fill="#F5F8FB"/>
<path d="M7.00299 1.00299C7.00299 1.14106 6.89106 1.25299 6.75299 1.25299C6.61492 1.25299 6.50299 1.14106 6.50299 1.00299C6.50299 0.86492 6.61492 0.752991 6.75299 0.752991C6.89106 0.752991 7.00299 0.86492 7.00299 1.00299Z" fill="#F5F8FB"/>
<path d="M7.00299 2C7.00299 2.13807 6.89106 2.25 6.75299 2.25C6.61492 2.25 6.50299 2.13807 6.50299 2C6.50299 1.86193 6.61492 1.75 6.75299 1.75C6.89106 1.75 7.00299 1.86193 7.00299 2Z" fill="#F5F8FB"/>
<path d="M7.00299 2.99701C7.00299 3.13508 6.89106 3.24701 6.75299 3.24701C6.61492 3.24701 6.50299 3.13508 6.50299 2.99701C6.50299 2.85894 6.61492 2.74701 6.75299 2.74701C6.89106 2.74701 7.00299 2.85894 7.00299 2.99701Z" fill="#F5F8FB"/>
<path d="M6.00598 1.00299C6.00598 1.14106 5.89405 1.25299 5.75598 1.25299C5.61791 1.25299 5.50598 1.14106 5.50598 1.00299C5.50598 0.86492 5.61791 0.752991 5.75598 0.752991C5.89405 0.752991 6.00598 0.86492 6.00598 1.00299Z" fill="#F5F8FB"/>
<path d="M6.00598 2C6.00598 2.13807 5.89405 2.25 5.75598 2.25C5.61791 2.25 5.50598 2.13807 5.50598 2C5.50598 1.86193 5.61791 1.75 5.75598 1.75C5.89405 1.75 6.00598 1.86193 6.00598 2Z" fill="#F5F8FB"/>
<path d="M6.00598 2.99701C6.00598 3.13508 5.89405 3.24701 5.75598 3.24701C5.61791 3.24701 5.50598 3.13508 5.50598 2.99701C5.50598 2.85894 5.61791 2.74701 5.75598 2.74701C5.89405 2.74701 6.00598 2.85894 6.00598 2.99701Z" fill="#F5F8FB"/>
<path d="M5.00897 2C5.00897 2.13807 4.89704 2.25 4.75897 2.25C4.6209 2.25 4.50897 2.13807 4.50897 2C4.50897 1.86193 4.6209 1.75 4.75897 1.75C4.89704 1.75 5.00897 1.86193 5.00897 2Z" fill="#F5F8FB"/>
<path d="M5.00897 2.99701C5.00897 3.13508 4.89704 3.24701 4.75897 3.24701C4.6209 3.24701 4.50897 3.13508 4.50897 2.99701C4.50897 2.85894 4.6209 2.74701 4.75897 2.74701C4.89704 2.74701 5.00897 2.85894 5.00897 2.99701Z" fill="#F5F8FB"/>
<path d="M4.01196 2.99701C4.01196 3.13508 3.90003 3.24701 3.76196 3.24701C3.62389 3.24701 3.51196 3.13508 3.51196 2.99701C3.51196 2.85894 3.62389 2.74701 3.76196 2.74701C3.90003 2.74701 4.01196 2.85894 4.01196 2.99701Z" fill="#F5F8FB"/>
</svg>
