<svg width="16" height="12" viewBox="0 0 16 12" fill="none" xmlns="http://www.w3.org/2000/svg">
<path d="M0 0H16V6H0V0Z" fill="#DC251C"/>
<path d="M0 6H16V12H0V6Z" fill="#2B9F5A"/>
<path d="M8 5L0 0V12L8 7H16V5H8Z" fill="#272727"/>
<path d="M8.08789 5.7002H16V6.2998H8.08789L0 11.4072V10.6973L7.4375 6L0 1.30176V0.591797L8.08789 5.7002Z" fill="#FFD018"/>
<path d="M3.50085 6.00018C3.50085 5.4459 3.05121 4.99637 2.49695 4.99628C1.9426 4.99628 1.49304 5.44584 1.49304 6.00018C1.49314 6.55445 1.94266 7.00409 2.49695 7.00409V7.50409L2.34265 7.49628C1.63501 7.42425 1.07261 6.86122 1.00085 6.1535L0.993042 6.00018C0.993042 5.16969 1.66646 4.49628 2.49695 4.49628L2.65027 4.50409C3.40865 4.58098 4.00085 5.22152 4.00085 6.00018L3.99304 6.1535C3.91617 6.91185 3.27555 7.504 2.49695 7.50409V7.00409C3.05116 7.004 3.50076 6.55439 3.50085 6.00018Z" fill="#FFD018"/>
</svg>
