<svg width="16" height="12" viewBox="0 0 16 12" fill="none" xmlns="http://www.w3.org/2000/svg">
<path d="M2 0H8V12H2V0Z" fill="#FFD018"/>
<path d="M8 0H14V12H8V0Z" fill="#F5F8FB"/>
<path d="M10.75 9.5V6C10.75 5.86193 10.8619 5.75 11 5.75C11.1381 5.75 11.25 5.86193 11.25 6V9.5C11.25 9.63807 11.1381 9.75 11 9.75C10.8619 9.75 10.75 9.63807 10.75 9.5Z" fill="#A71B14"/>
<path d="M12.3232 3.82325C12.4209 3.72562 12.5791 3.72562 12.6767 3.82325C12.7744 3.92088 12.7744 4.07914 12.6767 4.17677L10.1767 6.67677C10.0791 6.7744 9.92085 6.7744 9.82322 6.67677C9.72559 6.57914 9.72559 6.42088 9.82322 6.32325L12.3232 3.82325Z" fill="#FFD018"/>
<path d="M9.32322 3.82325C9.42085 3.72562 9.57911 3.72562 9.67674 3.82325L12.1767 6.32325C12.2744 6.42088 12.2744 6.57914 12.1767 6.67677C12.0791 6.7744 11.9209 6.7744 11.8232 6.67677L9.32322 4.17677C9.22559 4.07914 9.22559 3.92088 9.32322 3.82325Z" fill="#BAC3D2"/>
<path d="M13.125 7.25C13.125 6.97386 12.9011 6.75 12.625 6.75C12.3489 6.75 12.125 6.97386 12.125 7.25C12.125 7.52614 12.3489 7.75 12.625 7.75C12.9011 7.75 13.125 7.52614 13.125 7.25ZM13.625 7.25C13.625 7.80228 13.1773 8.25 12.625 8.25C12.0727 8.25 11.625 7.80228 11.625 7.25C11.625 6.69772 12.0727 6.25 12.625 6.25C13.1773 6.25 13.625 6.69772 13.625 7.25Z" fill="#BAC3D2"/>
<path d="M9.875 7.25C9.875 6.97386 9.65114 6.75 9.375 6.75C9.09886 6.75 8.875 6.97386 8.875 7.25C8.875 7.52614 9.09886 7.75 9.375 7.75C9.65114 7.75 9.875 7.52614 9.875 7.25ZM10.375 7.25C10.375 7.80228 9.92728 8.25 9.375 8.25C8.82272 8.25 8.375 7.80228 8.375 7.25C8.375 6.69772 8.82272 6.25 9.375 6.25C9.92728 6.25 10.375 6.69772 10.375 7.25Z" fill="#FFD018"/>
<path d="M10 3.5L11 4.5L12 3.5L11 2L10 3.5Z" fill="#B2A46A"/>
<path d="M12.3623 7.79103C12.4776 7.7151 12.633 7.74711 12.709 7.86232C12.7849 7.97756 12.7529 8.13299 12.6377 8.209C12.0524 8.59511 11.5526 8.80866 11.0225 8.80568C10.4959 8.80265 9.98256 8.58587 9.37013 8.21388C9.25213 8.14221 9.21448 7.98814 9.28615 7.87013C9.35782 7.75213 9.51189 7.71448 9.6299 7.78615C10.2206 8.14491 10.6376 8.30347 11.0254 8.30568C11.4097 8.30784 11.8087 8.15629 12.3623 7.79103Z" fill="#A71B14"/>
</svg>
