<svg width="16" height="12" viewBox="0 0 16 12" fill="none" xmlns="http://www.w3.org/2000/svg">
<path d="M0 0H16V4H0V0Z" fill="#FFD018"/>
<path d="M0 4H16V8H0V4Z" fill="#2E4E9D"/>
<path d="M0 8H16V12H0V8Z" fill="#DC251C"/>
<path d="M5.43262 7.57812C5.39261 7.74154 5.375 7.88495 5.375 8H4.625C4.625 7.81297 4.65286 7.60864 4.7041 7.39941L5.43262 7.57812ZM11.2959 7.39941C11.3471 7.60864 11.375 7.81297 11.375 8H10.625C10.625 7.88495 10.6074 7.74154 10.5674 7.57812L11.2959 7.39941ZM6.05273 6.34766C5.84968 6.59896 5.69085 6.87442 5.57812 7.14258L4.88672 6.85254C5.02473 6.52409 5.21809 6.18622 5.46875 5.87598L6.05273 6.34766ZM10.5312 5.87598C10.7819 6.18622 10.9753 6.52409 11.1133 6.85254L10.4219 7.14258C10.3091 6.87442 10.1503 6.59896 9.94727 6.34766L10.5312 5.87598ZM7.125 5.53711C6.83937 5.64943 6.58664 5.81502 6.36719 6.01367L5.86426 5.45703C6.14287 5.20489 6.47142 4.98795 6.85059 4.83887L7.125 5.53711ZM9.14941 4.83887C9.52858 4.98795 9.85713 5.20489 10.1357 5.45703L9.63281 6.01367C9.41336 5.81502 9.16063 5.64943 8.875 5.53711L9.14941 4.83887ZM8 4.625C8.20238 4.625 8.39678 4.64343 8.58301 4.67773L8.44727 5.41504C8.30624 5.38906 8.15719 5.375 8 5.375C7.84281 5.375 7.69376 5.38906 7.55273 5.41504L7.41699 4.67773C7.60322 4.64343 7.79762 4.625 8 4.625Z" fill="#F5F8FB"/>
</svg>
