<svg width="16" height="12" viewBox="0 0 16 12" fill="none" xmlns="http://www.w3.org/2000/svg">
<path d="M0 0H16V12H0V0Z" fill="#DC251C"/>
<path d="M0 0H8V5H0V0Z" fill="#2E4E9D"/>
<path d="M4.5 0.96875C4.5 1.24489 4.27614 1.46875 4 1.46875C3.72386 1.46875 3.5 1.24489 3.5 0.96875C3.5 0.692608 3.72386 0.46875 4 0.46875C4.27614 0.46875 4.5 0.692608 4.5 0.96875Z" fill="#F5F8FB"/>
<path d="M6 2C6 2.27614 5.77614 2.5 5.5 2.5C5.22386 2.5 5 2.27614 5 2C5 1.72386 5.22386 1.5 5.5 1.5C5.77614 1.5 6 1.72386 6 2Z" fill="#F5F8FB"/>
<path d="M5.15625 3.05096C5.15625 3.23218 5.00934 3.37909 4.82812 3.37909C4.64691 3.37909 4.5 3.23218 4.5 3.05096C4.5 2.86975 4.64691 2.72284 4.82812 2.72284C5.00934 2.72284 5.15625 2.86975 5.15625 3.05096Z" fill="#F5F8FB"/>
<path d="M4.5 4.125C4.5 4.40114 4.27614 4.625 4 4.625C3.72386 4.625 3.5 4.40114 3.5 4.125C3.5 3.84886 3.72386 3.625 4 3.625C4.27614 3.625 4.5 3.84886 4.5 4.125Z" fill="#F5F8FB"/>
<path d="M3 2C3 2.27614 2.77614 2.5 2.5 2.5C2.22386 2.5 2 2.27614 2 2C2 1.72386 2.22386 1.5 2.5 1.5C2.77614 1.5 3 1.72386 3 2Z" fill="#F5F8FB"/>
</svg>
