<svg width="16" height="12" viewBox="0 0 16 12" fill="none" xmlns="http://www.w3.org/2000/svg">
<path d="M0 0H16V12H0V0Z" fill="#2E4E9D"/>
<path d="M10.8774 5.87946C10.2066 5.22993 8.9326 4.15071 8.15356 4.01432C8.06029 3.99799 7.97324 3.9465 7.93089 3.8618L7.56909 3.1382C7.52674 3.0535 7.44017 3 7.34548 3H7.19518C7.08047 3 6.98047 3.07807 6.95265 3.18937L6.53137 4.87446C6.51169 4.95319 6.45422 5.01719 6.37948 5.04883C5.56859 5.39218 5.56508 5.71857 5.08308 6.38773C5.0325 6.45795 5.01955 6.54915 5.04721 6.63115C5.27321 7.30094 5.16003 7.63198 5.91284 7.96322C5.96852 7.98773 6.015 8.03002 6.04221 8.08443L6.49999 9L7.02638 10.0528C7.14436 10.2887 7.49999 10.2048 7.49999 9.94098V9.66124C7.49999 9.56307 7.55788 9.474 7.64689 9.43261C9.37106 8.63092 10.1314 7.88205 10.9285 6.15708C10.972 6.0629 10.9519 5.95162 10.8774 5.87946Z" fill="#B2A46A"/>
<path d="M3.78288 2.06436L3.9911 2.41035L4.38449 2.50146L4.11978 2.8064L4.1547 3.20869L3.78288 3.05117L3.41107 3.20869L3.44598 2.8064L3.18127 2.50146L3.57467 2.41035L3.78288 2.06436Z" fill="#F5F8FB"/>
<path d="M5.46971 1.73487L5.67793 2.08085L6.07132 2.17196L5.80661 2.4769L5.84152 2.87919L5.46971 2.72167L5.0979 2.87919L5.13281 2.4769L4.8681 2.17196L5.26149 2.08085L5.46971 1.73487Z" fill="#F5F8FB"/>
<path d="M7.1566 1.4318L7.36482 1.77778L7.75821 1.86889L7.4935 2.17383L7.52841 2.57612L7.1566 2.4186L6.78479 2.57612L6.8197 2.17383L6.55499 1.86889L6.94838 1.77778L7.1566 1.4318Z" fill="#F5F8FB"/>
<path d="M8.84343 1.4318L9.05164 1.77778L9.44504 1.86889L9.18033 2.17383L9.21524 2.57612L8.84343 2.4186L8.47161 2.57612L8.50653 2.17383L8.24182 1.86889L8.63521 1.77778L8.84343 1.4318Z" fill="#F5F8FB"/>
<path d="M10.5303 1.73487L10.7385 2.08085L11.1319 2.17196L10.8672 2.4769L10.9021 2.87919L10.5303 2.72167L10.1584 2.87919L10.1934 2.4769L9.92865 2.17196L10.322 2.08085L10.5303 1.73487Z" fill="#F5F8FB"/>
<path d="M12.2171 2.06436L12.4253 2.41035L12.8187 2.50146L12.554 2.8064L12.5889 3.20869L12.2171 3.05117L11.8453 3.20869L11.8802 2.8064L11.6155 2.50146L12.0089 2.41035L12.2171 2.06436Z" fill="#F5F8FB"/>
</svg>
