<svg width="16" height="12" viewBox="0 0 16 12" fill="none" xmlns="http://www.w3.org/2000/svg">
<path d="M0 0H16V12H0V0Z" fill="#2B9F5A"/>
<path d="M14 5H16V12H14V5Z" fill="#FF8718"/>
<path d="M12 5H14V12H12V5Z" fill="#272727"/>
<path d="M10 5H12V12H10V5Z" fill="#DC251C"/>
<path d="M12.5 2.5L10 1L12.5 1.5L15 1L12.5 2.5L13 3.5H12L12.5 2.5Z" fill="#FF8718"/>
<path d="M10.0244 0.876947L12.5 1.37206L14.9756 0.876947C15.0352 0.865128 15.0943 0.898418 15.1162 0.955072C15.1382 1.01178 15.1166 1.07613 15.0645 1.10742L12.6631 2.54785L13.1114 3.44433C13.1307 3.48299 13.1291 3.52861 13.1065 3.56542C13.0837 3.60228 13.0433 3.62499 13 3.62499H12C11.9567 3.62499 11.9164 3.60228 11.8936 3.56542C11.871 3.52861 11.8694 3.48299 11.8887 3.44433L12.336 2.54785L9.93557 1.10742C9.88344 1.07613 9.86189 1.01178 9.88382 0.955072C9.90572 0.898417 9.96488 0.865128 10.0244 0.876947ZM12.2012 3.37499H12.7989L12.5 2.77831L12.2012 3.37499ZM12.5244 1.62304C12.5084 1.62623 12.4917 1.62623 12.4756 1.62304L10.6846 1.26464L12.5 2.35351L14.3145 1.26464L12.5244 1.62304Z" fill="black"/>
</svg>
