<svg width="16" height="12" viewBox="0 0 16 12" fill="none" xmlns="http://www.w3.org/2000/svg">
<path d="M0 0H16V1.5H0V0Z" fill="#2B9F5A"/>
<path d="M0 10.5H16V12H0V10.5Z" fill="#2B9F5A"/>
<path d="M0 1.5H16V3H0V1.5Z" fill="#FFD018"/>
<path d="M0 9H16V10.5H0V9Z" fill="#FFD018"/>
<path d="M0 3H16V4.5H0V3Z" fill="#DC251C"/>
<path d="M0 7.5H16V9H0V7.5Z" fill="#DC251C"/>
<path d="M0 4.5H16V6H0V4.5Z" fill="#272727"/>
<path d="M0 6H16V7.5H0V6Z" fill="#272727"/>
<path d="M7 6L0 0V12L7 6Z" fill="#F5F8FB"/>
<path fill-rule="evenodd" clip-rule="evenodd" d="M7.38184 6L0.458489 12H0V11.736L6.61816 6L0 0.264021V0H0.458489L7.38184 6Z" fill="#272727"/>
<path d="M2.50002 3.5L3.16128 5.08986L4.87766 5.22746L3.56996 6.34764L3.96948 8.02254L2.50002 7.125L1.03055 8.02254L1.43008 6.34764L0.122375 5.22746L1.83876 5.08986L2.50002 3.5Z" fill="#DC251C"/>
<path d="M1.90625 4.03125C1.65625 4.00625 1.42708 4.35416 1.34375 4.53125C1.53125 4.60416 1.90625 4.875 1.90625 5.375C1.90625 5.875 1.53125 6.35416 1.34375 6.53125L1.5 7.625L3.96875 7.46875L4.34375 6.3125C3.63542 5.5625 2.15625 4.05625 1.90625 4.03125Z" fill="#FFD018"/>
</svg>
